<?xml version="1.0" standalone="no" ?>
<!DOCTYPE svg PUBLIC "-//W3C//DTD SVG 1.1//EN" "http://www.w3.org/Graphics/SVG/1.1/DTD/svg11.dtd">
<svg width="1332px" height="1644px" xmlns="http://www.w3.org/2000/svg" version="1.1" >
	<circle cx="22" cy="1352" r="5" fill="rgb(0,0,0)" />
	<circle cx="122" cy="1296" r="5" fill="rgb(0,0,0)" />
	<circle cx="909" cy="1570" r="5" fill="rgb(0,0,0)" />
	<circle cx="123" cy="740" r="5" fill="rgb(0,0,0)" />
	<circle cx="31" cy="945" r="5" fill="rgb(0,0,0)" />
	<circle cx="1070" cy="1341" r="5" fill="rgb(0,0,0)" />
	<circle cx="282" cy="1412" r="5" fill="rgb(0,0,0)" />
	<circle cx="1011" cy="387" r="5" fill="rgb(0,0,0)" />
	<circle cx="670" cy="145" r="5" fill="rgb(0,0,0)" />
	<circle cx="484" cy="279" r="5" fill="rgb(0,0,0)" />
	<circle cx="1302" cy="1561" r="5" fill="rgb(0,0,0)" />
	<circle cx="362" cy="1469" r="5" fill="rgb(0,0,0)" />
	<circle cx="500" cy="1620" r="5" fill="rgb(0,0,0)" />
	<circle cx="115" cy="1347" r="5" fill="rgb(0,0,0)" />
	<circle cx="101" cy="1038" r="5" fill="rgb(0,0,0)" />
	<circle cx="1048" cy="104" r="5" fill="rgb(0,0,0)" />
	<circle cx="663" cy="186" r="5" fill="rgb(0,0,0)" />
	<circle cx="158" cy="1620" r="5" fill="rgb(0,0,0)" />
	<circle cx="87" cy="1277" r="5" fill="rgb(0,0,0)" />
	<circle cx="544" cy="407" r="5" fill="rgb(0,0,0)" />
	<circle cx="795" cy="307" r="5" fill="rgb(0,0,0)" />
	<circle cx="1248" cy="1427" r="5" fill="rgb(0,0,0)" />
	<circle cx="50" cy="1124" r="5" fill="rgb(0,0,0)" />
	<circle cx="106" cy="663" r="5" fill="rgb(0,0,0)" />
	<circle cx="815" cy="237" r="5" fill="rgb(0,0,0)" />
	<circle cx="35" cy="645" r="5" fill="rgb(0,0,0)" />
	<circle cx="157" cy="1178" r="5" fill="rgb(0,0,0)" />
	<circle cx="1147" cy="469" r="5" fill="rgb(0,0,0)" />
	<circle cx="1149" cy="1231" r="5" fill="rgb(0,0,0)" />
	<circle cx="393" cy="1620" r="5" fill="rgb(0,0,0)" />
	<circle cx="640" cy="684" r="5" fill="rgb(0,0,0)" />
	<circle cx="111" cy="262" r="5" fill="rgb(0,0,0)" />
	<circle cx="847" cy="1035" r="5" fill="rgb(0,0,0)" />
	<circle cx="897" cy="1238" r="5" fill="rgb(0,0,0)" />
	<circle cx="737" cy="1258" r="5" fill="rgb(0,0,0)" />
	<circle cx="1298" cy="791" r="5" fill="rgb(0,0,0)" />
	<circle cx="1199" cy="1125" r="5" fill="rgb(0,0,0)" />
	<circle cx="45" cy="350" r="5" fill="rgb(0,0,0)" />
	<circle cx="1000" cy="1421" r="5" fill="rgb(0,0,0)" />
	<circle cx="871" cy="923" r="5" fill="rgb(0,0,0)" />
	<circle cx="334" cy="1394" r="5" fill="rgb(0,0,0)" />
	<circle cx="1304" cy="117" r="5" fill="rgb(0,0,0)" />
	<circle cx="37" cy="423" r="5" fill="rgb(0,0,0)" />
	<circle cx="26" cy="1445" r="5" fill="rgb(0,0,0)" />
	<circle cx="735" cy="1558" r="5" fill="rgb(0,0,0)" />
	<circle cx="539" cy="1564" r="5" fill="rgb(0,0,0)" />
	<circle cx="195" cy="182" r="5" fill="rgb(0,0,0)" />
	<circle cx="1201" cy="1570" r="5" fill="rgb(0,0,0)" />
	<circle cx="1151" cy="1619" r="5" fill="rgb(0,0,0)" />
	<circle cx="767" cy="1447" r="5" fill="rgb(0,0,0)" />
	<circle cx="31" cy="1194" r="5" fill="rgb(0,0,0)" />
	<circle cx="983" cy="1146" r="5" fill="rgb(0,0,0)" />
	<circle cx="145" cy="1573" r="5" fill="rgb(0,0,0)" />
	<circle cx="438" cy="788" r="5" fill="rgb(0,0,0)" />
	<circle cx="712" cy="678" r="5" fill="rgb(0,0,0)" />
	<circle cx="1248" cy="1369" r="5" fill="rgb(0,0,0)" />
	<circle cx="1118" cy="105" r="5" fill="rgb(0,0,0)" />
	<circle cx="444" cy="138" r="5" fill="rgb(0,0,0)" />
	<circle cx="191" cy="1075" r="5" fill="rgb(0,0,0)" />
	<circle cx="889" cy="38" r="5" fill="rgb(0,0,0)" />
	<circle cx="136" cy="34" r="5" fill="rgb(0,0,0)" />
	<circle cx="885" cy="469" r="5" fill="rgb(0,0,0)" />
	<circle cx="1237" cy="1001" r="5" fill="rgb(0,0,0)" />
	<circle cx="793" cy="1243" r="5" fill="rgb(0,0,0)" />
	<circle cx="236" cy="344" r="5" fill="rgb(0,0,0)" />
	<circle cx="789" cy="457" r="5" fill="rgb(0,0,0)" />
	<circle cx="615" cy="188" r="5" fill="rgb(0,0,0)" />
	<circle cx="1008" cy="1366" r="5" fill="rgb(0,0,0)" />
	<circle cx="997" cy="234" r="5" fill="rgb(0,0,0)" />
	<circle cx="706" cy="408" r="5" fill="rgb(0,0,0)" />
	<circle cx="1027" cy="1050" r="5" fill="rgb(0,0,0)" />
	<circle cx="761" cy="1616" r="5" fill="rgb(0,0,0)" />
	<circle cx="688" cy="1308" r="5" fill="rgb(0,0,0)" />
	<circle cx="1130" cy="1322" r="5" fill="rgb(0,0,0)" />
	<circle cx="1032" cy="1471" r="5" fill="rgb(0,0,0)" />
	<circle cx="409" cy="369" r="5" fill="rgb(0,0,0)" />
	<circle cx="124" cy="1436" r="5" fill="rgb(0,0,0)" />
	<circle cx="25" cy="1487" r="5" fill="rgb(0,0,0)" />
	<circle cx="1157" cy="176" r="5" fill="rgb(0,0,0)" />
	<circle cx="74" cy="1419" r="5" fill="rgb(0,0,0)" />
	<circle cx="799" cy="1295" r="5" fill="rgb(0,0,0)" />
	<circle cx="401" cy="1154" r="5" fill="rgb(0,0,0)" />
	<circle cx="683" cy="1516" r="5" fill="rgb(0,0,0)" />
	<circle cx="163" cy="1528" r="5" fill="rgb(0,0,0)" />
	<circle cx="1122" cy="1277" r="5" fill="rgb(0,0,0)" />
	<circle cx="1299" cy="955" r="5" fill="rgb(0,0,0)" />
	<circle cx="683" cy="1568" r="5" fill="rgb(0,0,0)" />
	<circle cx="264" cy="569" r="5" fill="rgb(0,0,0)" />
	<circle cx="1246" cy="1489" r="5" fill="rgb(0,0,0)" />
	<circle cx="638" cy="1466" r="5" fill="rgb(0,0,0)" />
	<circle cx="652" cy="1403" r="5" fill="rgb(0,0,0)" />
	<circle cx="659" cy="1619" r="5" fill="rgb(0,0,0)" />
	<circle cx="1130" cy="1422" r="5" fill="rgb(0,0,0)" />
	<circle cx="435" cy="476" r="5" fill="rgb(0,0,0)" />
	<circle cx="116" cy="182" r="5" fill="rgb(0,0,0)" />
	<circle cx="501" cy="822" r="5" fill="rgb(0,0,0)" />
	<circle cx="810" cy="34" r="5" fill="rgb(0,0,0)" />
	<circle cx="1278" cy="1111" r="5" fill="rgb(0,0,0)" />
	<circle cx="302" cy="1167" r="5" fill="rgb(0,0,0)" />
	<circle cx="903" cy="1350" r="5" fill="rgb(0,0,0)" />
	<circle cx="269" cy="1039" r="5" fill="rgb(0,0,0)" />
	<circle cx="829" cy="506" r="5" fill="rgb(0,0,0)" />
	<circle cx="1082" cy="937" r="5" fill="rgb(0,0,0)" />
	<circle cx="514" cy="529" r="5" fill="rgb(0,0,0)" />
	<circle cx="1249" cy="1549" r="5" fill="rgb(0,0,0)" />
	<circle cx="378" cy="1359" r="5" fill="rgb(0,0,0)" />
	<circle cx="517" cy="107" r="5" fill="rgb(0,0,0)" />
	<circle cx="486" cy="1573" r="5" fill="rgb(0,0,0)" />
	<circle cx="804" cy="1140" r="5" fill="rgb(0,0,0)" />
	<circle cx="1003" cy="1258" r="5" fill="rgb(0,0,0)" />
	<circle cx="751" cy="184" r="5" fill="rgb(0,0,0)" />
	<circle cx="976" cy="93" r="5" fill="rgb(0,0,0)" />
	<circle cx="355" cy="1180" r="5" fill="rgb(0,0,0)" />
	<circle cx="853" cy="304" r="5" fill="rgb(0,0,0)" />
	<circle cx="916" cy="996" r="5" fill="rgb(0,0,0)" />
	<circle cx="1071" cy="1519" r="5" fill="rgb(0,0,0)" />
	<circle cx="939" cy="1195" r="5" fill="rgb(0,0,0)" />
	<circle cx="816" cy="1618" r="5" fill="rgb(0,0,0)" />
	<circle cx="427" cy="204" r="5" fill="rgb(0,0,0)" />
	<circle cx="342" cy="1619" r="5" fill="rgb(0,0,0)" />
	<circle cx="1301" cy="259" r="5" fill="rgb(0,0,0)" />
	<circle cx="115" cy="1523" r="5" fill="rgb(0,0,0)" />
	<circle cx="669" cy="829" r="5" fill="rgb(0,0,0)" />
	<circle cx="114" cy="105" r="5" fill="rgb(0,0,0)" />
	<circle cx="1085" cy="1468" r="5" fill="rgb(0,0,0)" />
	<circle cx="1093" cy="1570" r="5" fill="rgb(0,0,0)" />
	<circle cx="1125" cy="1522" r="5" fill="rgb(0,0,0)" />
	<circle cx="552" cy="1617" r="5" fill="rgb(0,0,0)" />
	<circle cx="1148" cy="1131" r="5" fill="rgb(0,0,0)" />
	<circle cx="1169" cy="319" r="5" fill="rgb(0,0,0)" />
	<circle cx="1216" cy="544" r="5" fill="rgb(0,0,0)" />
	<circle cx="1299" cy="405" r="5" fill="rgb(0,0,0)" />
	<circle cx="1014" cy="1523" r="5" fill="rgb(0,0,0)" />
	<circle cx="527" cy="1491" r="5" fill="rgb(0,0,0)" />
	<circle cx="335" cy="1063" r="5" fill="rgb(0,0,0)" />
	<circle cx="917" cy="390" r="5" fill="rgb(0,0,0)" />
	<circle cx="1238" cy="382" r="5" fill="rgb(0,0,0)" />
	<circle cx="406" cy="1465" r="5" fill="rgb(0,0,0)" />
	<circle cx="99" cy="963" r="5" fill="rgb(0,0,0)" />
	<circle cx="1190" cy="1396" r="5" fill="rgb(0,0,0)" />
	<circle cx="363" cy="523" r="5" fill="rgb(0,0,0)" />
	<circle cx="552" cy="32" r="5" fill="rgb(0,0,0)" />
	<circle cx="728" cy="1494" r="5" fill="rgb(0,0,0)" />
	<circle cx="845" cy="798" r="5" fill="rgb(0,0,0)" />
	<circle cx="388" cy="1057" r="5" fill="rgb(0,0,0)" />
	<circle cx="1301" cy="1171" r="5" fill="rgb(0,0,0)" />
	<circle cx="1297" cy="1040" r="5" fill="rgb(0,0,0)" />
	<circle cx="32" cy="1033" r="5" fill="rgb(0,0,0)" />
	<circle cx="468" cy="39" r="5" fill="rgb(0,0,0)" />
	<circle cx="759" cy="1381" r="5" fill="rgb(0,0,0)" />
	<circle cx="426" cy="1365" r="5" fill="rgb(0,0,0)" />
	<circle cx="177" cy="1431" r="5" fill="rgb(0,0,0)" />
	<circle cx="1303" cy="1384" r="5" fill="rgb(0,0,0)" />
	<circle cx="954" cy="1366" r="5" fill="rgb(0,0,0)" />
	<circle cx="609" cy="1344" r="5" fill="rgb(0,0,0)" />
	<circle cx="168" cy="1227" r="5" fill="rgb(0,0,0)" />
	<circle cx="166" cy="1279" r="5" fill="rgb(0,0,0)" />
	<circle cx="781" cy="783" r="5" fill="rgb(0,0,0)" />
	<circle cx="1063" cy="1407" r="5" fill="rgb(0,0,0)" />
	<circle cx="712" cy="825" r="5" fill="rgb(0,0,0)" />
	<circle cx="319" cy="732" r="5" fill="rgb(0,0,0)" />
	<circle cx="951" cy="1312" r="5" fill="rgb(0,0,0)" />
	<circle cx="1167" cy="247" r="5" fill="rgb(0,0,0)" />
	<circle cx="736" cy="920" r="5" fill="rgb(0,0,0)" />
	<circle cx="1301" cy="330" r="5" fill="rgb(0,0,0)" />
	<circle cx="1200" cy="1229" r="5" fill="rgb(0,0,0)" />
	<circle cx="123" cy="1244" r="5" fill="rgb(0,0,0)" />
	<circle cx="1305" cy="1276" r="5" fill="rgb(0,0,0)" />
	<circle cx="603" cy="1071" r="5" fill="rgb(0,0,0)" />
	<circle cx="1234" cy="33" r="5" fill="rgb(0,0,0)" />
	<circle cx="945" cy="1038" r="5" fill="rgb(0,0,0)" />
	<circle cx="465" cy="1524" r="5" fill="rgb(0,0,0)" />
	<circle cx="108" cy="503" r="5" fill="rgb(0,0,0)" />
	<circle cx="860" cy="1514" r="5" fill="rgb(0,0,0)" />
	<circle cx="125" cy="1390" r="5" fill="rgb(0,0,0)" />
	<circle cx="994" cy="1618" r="5" fill="rgb(0,0,0)" />
	<circle cx="1055" cy="649" r="5" fill="rgb(0,0,0)" />
	<circle cx="102" cy="1570" r="5" fill="rgb(0,0,0)" />
	<circle cx="1096" cy="395" r="5" fill="rgb(0,0,0)" />
	<circle cx="370" cy="1302" r="5" fill="rgb(0,0,0)" />
	<circle cx="769" cy="1188" r="5" fill="rgb(0,0,0)" />
	<circle cx="589" cy="911" r="5" fill="rgb(0,0,0)" />
	<circle cx="610" cy="289" r="5" fill="rgb(0,0,0)" />
	<circle cx="394" cy="293" r="5" fill="rgb(0,0,0)" />
	<circle cx="906" cy="1518" r="5" fill="rgb(0,0,0)" />
	<circle cx="627" cy="907" r="5" fill="rgb(0,0,0)" />
	<circle cx="1254" cy="1612" r="5" fill="rgb(0,0,0)" />
	<circle cx="951" cy="1257" r="5" fill="rgb(0,0,0)" />
	<circle cx="1095" cy="320" r="5" fill="rgb(0,0,0)" />
	<circle cx="338" cy="1001" r="5" fill="rgb(0,0,0)" />
	<circle cx="224" cy="855" r="5" fill="rgb(0,0,0)" />
	<circle cx="985" cy="164" r="5" fill="rgb(0,0,0)" />
	<circle cx="1182" cy="1281" r="5" fill="rgb(0,0,0)" />
	<circle cx="605" cy="1618" r="5" fill="rgb(0,0,0)" />
	<circle cx="853" cy="1308" r="5" fill="rgb(0,0,0)" />
	<circle cx="951" cy="1420" r="5" fill="rgb(0,0,0)" />
	<circle cx="35" cy="496" r="5" fill="rgb(0,0,0)" />
	<circle cx="104" cy="584" r="5" fill="rgb(0,0,0)" />
	<circle cx="1062" cy="1279" r="5" fill="rgb(0,0,0)" />
	<circle cx="1150" cy="617" r="5" fill="rgb(0,0,0)" />
	<circle cx="157" cy="1333" r="5" fill="rgb(0,0,0)" />
	<circle cx="752" cy="1323" r="5" fill="rgb(0,0,0)" />
	<circle cx="792" cy="730" r="5" fill="rgb(0,0,0)" />
	<circle cx="180" cy="673" r="5" fill="rgb(0,0,0)" />
	<circle cx="1074" cy="175" r="5" fill="rgb(0,0,0)" />
	<circle cx="847" cy="1255" r="5" fill="rgb(0,0,0)" />
	<circle cx="542" cy="1016" r="5" fill="rgb(0,0,0)" />
	<circle cx="1121" cy="1086" r="5" fill="rgb(0,0,0)" />
	<circle cx="1165" cy="973" r="5" fill="rgb(0,0,0)" />
	<circle cx="372" cy="459" r="5" fill="rgb(0,0,0)" />
	<circle cx="37" cy="214" r="5" fill="rgb(0,0,0)" />
	<circle cx="905" cy="1405" r="5" fill="rgb(0,0,0)" />
	<circle cx="17" cy="1298" r="5" fill="rgb(0,0,0)" />
	<circle cx="1139" cy="1475" r="5" fill="rgb(0,0,0)" />
	<circle cx="400" cy="1257" r="5" fill="rgb(0,0,0)" />
	<circle cx="794" cy="1024" r="5" fill="rgb(0,0,0)" />
	<circle cx="358" cy="119" r="5" fill="rgb(0,0,0)" />
	<circle cx="119" cy="1198" r="5" fill="rgb(0,0,0)" />
	<circle cx="836" cy="615" r="5" fill="rgb(0,0,0)" />
	<circle cx="1003" cy="1313" r="5" fill="rgb(0,0,0)" />
	<circle cx="609" cy="1016" r="5" fill="rgb(0,0,0)" />
	<circle cx="575" cy="1143" r="5" fill="rgb(0,0,0)" />
	<circle cx="1167" cy="35" r="5" fill="rgb(0,0,0)" />
	<circle cx="789" cy="674" r="5" fill="rgb(0,0,0)" />
	<circle cx="158" cy="820" r="5" fill="rgb(0,0,0)" />
	<circle cx="684" cy="1459" r="5" fill="rgb(0,0,0)" />
	<circle cx="278" cy="171" r="5" fill="rgb(0,0,0)" />
	<circle cx="624" cy="838" r="5" fill="rgb(0,0,0)" />
	<circle cx="292" cy="1320" r="5" fill="rgb(0,0,0)" />
	<circle cx="190" cy="264" r="5" fill="rgb(0,0,0)" />
	<circle cx="187" cy="1481" r="5" fill="rgb(0,0,0)" />
	<circle cx="803" cy="1087" r="5" fill="rgb(0,0,0)" />
	<circle cx="934" cy="1619" r="5" fill="rgb(0,0,0)" />
	<circle cx="246" cy="1325" r="5" fill="rgb(0,0,0)" />
	<circle cx="21" cy="1578" r="5" fill="rgb(0,0,0)" />
	<circle cx="586" cy="1504" r="5" fill="rgb(0,0,0)" />
	<circle cx="1302" cy="1442" r="5" fill="rgb(0,0,0)" />
	<circle cx="1020" cy="1097" r="5" fill="rgb(0,0,0)" />
	<circle cx="1071" cy="1083" r="5" fill="rgb(0,0,0)" />
	<circle cx="1238" cy="311" r="5" fill="rgb(0,0,0)" />
	<circle cx="729" cy="34" r="5" fill="rgb(0,0,0)" />
	<circle cx="788" cy="1566" r="5" fill="rgb(0,0,0)" />
	<circle cx="201" cy="1326" r="5" fill="rgb(0,0,0)" />
	<circle cx="847" cy="1566" r="5" fill="rgb(0,0,0)" />
	<circle cx="32" cy="787" r="5" fill="rgb(0,0,0)" />
	<circle cx="842" cy="454" r="5" fill="rgb(0,0,0)" />
	<circle cx="718" cy="1421" r="5" fill="rgb(0,0,0)" />
	<circle cx="288" cy="815" r="5" fill="rgb(0,0,0)" />
	<circle cx="456" cy="1470" r="5" fill="rgb(0,0,0)" />
	<circle cx="306" cy="1223" r="5" fill="rgb(0,0,0)" />
	<circle cx="681" cy="778" r="5" fill="rgb(0,0,0)" />
	<circle cx="1099" cy="1619" r="5" fill="rgb(0,0,0)" />
	<circle cx="1297" cy="633" r="5" fill="rgb(0,0,0)" />
	<circle cx="587" cy="1561" r="5" fill="rgb(0,0,0)" />
	<circle cx="35" cy="283" r="5" fill="rgb(0,0,0)" />
	<circle cx="948" cy="479" r="5" fill="rgb(0,0,0)" />
	<circle cx="1187" cy="1515" r="5" fill="rgb(0,0,0)" />
	<circle cx="603" cy="740" r="5" fill="rgb(0,0,0)" />
	<circle cx="34" cy="84" r="5" fill="rgb(0,0,0)" />
	<circle cx="544" cy="1078" r="5" fill="rgb(0,0,0)" />
	<circle cx="331" cy="1442" r="5" fill="rgb(0,0,0)" />
	<circle cx="507" cy="670" r="5" fill="rgb(0,0,0)" />
	<circle cx="251" cy="1178" r="5" fill="rgb(0,0,0)" />
	<circle cx="548" cy="900" r="5" fill="rgb(0,0,0)" />
	<circle cx="247" cy="1133" r="5" fill="rgb(0,0,0)" />
	<circle cx="22" cy="1531" r="5" fill="rgb(0,0,0)" />
	<circle cx="877" cy="517" r="5" fill="rgb(0,0,0)" />
	<circle cx="1230" cy="727" r="5" fill="rgb(0,0,0)" />
	<circle cx="506" cy="167" r="5" fill="rgb(0,0,0)" />
	<circle cx="878" cy="1463" r="5" fill="rgb(0,0,0)" />
	<circle cx="1298" cy="710" r="5" fill="rgb(0,0,0)" />
	<circle cx="259" cy="1225" r="5" fill="rgb(0,0,0)" />
	<circle cx="859" cy="355" r="5" fill="rgb(0,0,0)" />
	<circle cx="607" cy="793" r="5" fill="rgb(0,0,0)" />
	<circle cx="912" cy="299" r="5" fill="rgb(0,0,0)" />
	<circle cx="1226" cy="635" r="5" fill="rgb(0,0,0)" />
	<circle cx="39" cy="148" r="5" fill="rgb(0,0,0)" />
	<circle cx="70" cy="1371" r="5" fill="rgb(0,0,0)" />
	<circle cx="34" cy="571" r="5" fill="rgb(0,0,0)" />
	<circle cx="459" cy="1087" r="5" fill="rgb(0,0,0)" />
	<circle cx="806" cy="1350" r="5" fill="rgb(0,0,0)" />
	<circle cx="904" cy="123" r="5" fill="rgb(0,0,0)" />
	<circle cx="974" cy="733" r="5" fill="rgb(0,0,0)" />
	<circle cx="179" cy="591" r="5" fill="rgb(0,0,0)" />
	<circle cx="861" cy="670" r="5" fill="rgb(0,0,0)" />
	<circle cx="902" cy="1292" r="5" fill="rgb(0,0,0)" />
	<circle cx="1187" cy="1338" r="5" fill="rgb(0,0,0)" />
	<circle cx="571" cy="223" r="5" fill="rgb(0,0,0)" />
	<circle cx="1095" cy="1175" r="5" fill="rgb(0,0,0)" />
	<circle cx="322" cy="1545" r="5" fill="rgb(0,0,0)" />
	<circle cx="1233" cy="172" r="5" fill="rgb(0,0,0)" />
	<circle cx="573" cy="871" r="5" fill="rgb(0,0,0)" />
	<circle cx="313" cy="1497" r="5" fill="rgb(0,0,0)" />
	<circle cx="308" cy="906" r="5" fill="rgb(0,0,0)" />
	<circle cx="985" cy="1045" r="5" fill="rgb(0,0,0)" />
	<circle cx="278" cy="477" r="5" fill="rgb(0,0,0)" />
	<circle cx="1071" cy="756" r="5" fill="rgb(0,0,0)" />
	<circle cx="1185" cy="105" r="5" fill="rgb(0,0,0)" />
	<circle cx="1228" cy="824" r="5" fill="rgb(0,0,0)" />
	<circle cx="1158" cy="779" r="5" fill="rgb(0,0,0)" />
	<circle cx="1246" cy="1154" r="5" fill="rgb(0,0,0)" />
	<circle cx="446" cy="1620" r="5" fill="rgb(0,0,0)" />
	<circle cx="520" cy="868" r="5" fill="rgb(0,0,0)" />
	<circle cx="501" cy="480" r="5" fill="rgb(0,0,0)" />
	<circle cx="111" cy="1151" r="5" fill="rgb(0,0,0)" />
	<circle cx="391" cy="39" r="5" fill="rgb(0,0,0)" />
	<circle cx="1303" cy="1329" r="5" fill="rgb(0,0,0)" />
	<circle cx="23" cy="1622" r="5" fill="rgb(0,0,0)" />
	<circle cx="1091" cy="1128" r="5" fill="rgb(0,0,0)" />
	<circle cx="95" cy="885" r="5" fill="rgb(0,0,0)" />
	<circle cx="339" cy="321" r="5" fill="rgb(0,0,0)" />
	<circle cx="467" cy="1256" r="5" fill="rgb(0,0,0)" />
	<circle cx="62" cy="1565" r="5" fill="rgb(0,0,0)" />
	<circle cx="405" cy="1015" r="5" fill="rgb(0,0,0)" />
	<circle cx="958" cy="30" r="5" fill="rgb(0,0,0)" />
	<circle cx="91" cy="812" r="5" fill="rgb(0,0,0)" />
	<circle cx="292" cy="1622" r="5" fill="rgb(0,0,0)" />
	<circle cx="808" cy="1406" r="5" fill="rgb(0,0,0)" />
	<circle cx="1181" cy="1071" r="5" fill="rgb(0,0,0)" />
	<circle cx="987" cy="1202" r="5" fill="rgb(0,0,0)" />
	<circle cx="539" cy="794" r="5" fill="rgb(0,0,0)" />
	<circle cx="1223" cy="908" r="5" fill="rgb(0,0,0)" />
	<circle cx="355" cy="1239" r="5" fill="rgb(0,0,0)" />
	<circle cx="247" cy="1622" r="5" fill="rgb(0,0,0)" />
	<circle cx="1054" cy="471" r="5" fill="rgb(0,0,0)" />
	<circle cx="929" cy="1139" r="5" fill="rgb(0,0,0)" />
	<circle cx="735" cy="788" r="5" fill="rgb(0,0,0)" />
	<circle cx="1147" cy="1182" r="5" fill="rgb(0,0,0)" />
	<circle cx="828" cy="105" r="5" fill="rgb(0,0,0)" />
	<circle cx="440" cy="599" r="5" fill="rgb(0,0,0)" />
	<circle cx="830" cy="1197" r="5" fill="rgb(0,0,0)" />
	<circle cx="370" cy="840" r="5" fill="rgb(0,0,0)" />
	<circle cx="214" cy="1532" r="5" fill="rgb(0,0,0)" />
	<circle cx="982" cy="981" r="5" fill="rgb(0,0,0)" />
	<circle cx="343" cy="1122" r="5" fill="rgb(0,0,0)" />
	<circle cx="417" cy="1311" r="5" fill="rgb(0,0,0)" />
	<circle cx="336" cy="1341" r="5" fill="rgb(0,0,0)" />
	<circle cx="216" cy="752" r="5" fill="rgb(0,0,0)" />
	<circle cx="660" cy="1055" r="5" fill="rgb(0,0,0)" />
	<circle cx="484" cy="1389" r="5" fill="rgb(0,0,0)" />
	<circle cx="267" cy="1272" r="5" fill="rgb(0,0,0)" />
	<circle cx="39" cy="717" r="5" fill="rgb(0,0,0)" />
	<circle cx="1247" cy="1310" r="5" fill="rgb(0,0,0)" />
	<circle cx="186" cy="505" r="5" fill="rgb(0,0,0)" />
	<circle cx="472" cy="215" r="5" fill="rgb(0,0,0)" />
	<circle cx="1129" cy="545" r="5" fill="rgb(0,0,0)" />
	<circle cx="1037" cy="557" r="5" fill="rgb(0,0,0)" />
	<circle cx="916" cy="1086" r="5" fill="rgb(0,0,0)" />
	<circle cx="979" cy="1473" r="5" fill="rgb(0,0,0)" />
	<circle cx="281" cy="1458" r="5" fill="rgb(0,0,0)" />
	<circle cx="161" cy="1135" r="5" fill="rgb(0,0,0)" />
	<circle cx="1099" cy="34" r="5" fill="rgb(0,0,0)" />
	<circle cx="178" cy="1381" r="5" fill="rgb(0,0,0)" />
	<circle cx="25" cy="1247" r="5" fill="rgb(0,0,0)" />
	<circle cx="1011" cy="307" r="5" fill="rgb(0,0,0)" />
	<circle cx="927" cy="1467" r="5" fill="rgb(0,0,0)" />
	<circle cx="83" cy="1325" r="5" fill="rgb(0,0,0)" />
	<circle cx="52" cy="1273" r="5" fill="rgb(0,0,0)" />
	<circle cx="380" cy="1414" r="5" fill="rgb(0,0,0)" />
	<circle cx="407" cy="942" r="5" fill="rgb(0,0,0)" />
	<circle cx="871" cy="415" r="5" fill="rgb(0,0,0)" />
	<circle cx="873" cy="1618" r="5" fill="rgb(0,0,0)" />
	<circle cx="362" cy="1516" r="5" fill="rgb(0,0,0)" />
	<circle cx="959" cy="1523" r="5" fill="rgb(0,0,0)" />
	<circle cx="135" cy="1481" r="5" fill="rgb(0,0,0)" />
	<circle cx="673" cy="95" r="5" fill="rgb(0,0,0)" />
	<circle cx="269" cy="1536" r="5" fill="rgb(0,0,0)" />
	<circle cx="822" cy="962" r="5" fill="rgb(0,0,0)" />
	<circle cx="291" cy="1104" r="5" fill="rgb(0,0,0)" />
	<circle cx="1293" cy="555" r="5" fill="rgb(0,0,0)" />
	<circle cx="896" cy="215" r="5" fill="rgb(0,0,0)" />
	<circle cx="174" cy="994" r="5" fill="rgb(0,0,0)" />
	<circle cx="213" cy="1271" r="5" fill="rgb(0,0,0)" />
	<circle cx="30" cy="864" r="5" fill="rgb(0,0,0)" />
	<circle cx="164" cy="907" r="5" fill="rgb(0,0,0)" />
	<circle cx="427" cy="1572" r="5" fill="rgb(0,0,0)" />
	<circle cx="202" cy="1175" r="5" fill="rgb(0,0,0)" />
	<circle cx="751" cy="115" r="5" fill="rgb(0,0,0)" />
	<circle cx="612" cy="874" r="5" fill="rgb(0,0,0)" />
	<circle cx="1306" cy="1223" r="5" fill="rgb(0,0,0)" />
	<circle cx="1305" cy="1617" r="5" fill="rgb(0,0,0)" />
	<circle cx="231" cy="1380" r="5" fill="rgb(0,0,0)" />
	<circle cx="272" cy="252" r="5" fill="rgb(0,0,0)" />
	<circle cx="930" cy="578" r="5" fill="rgb(0,0,0)" />
	<circle cx="777" cy="503" r="5" fill="rgb(0,0,0)" />
	<circle cx="1203" cy="1620" r="5" fill="rgb(0,0,0)" />
	<circle cx="240" cy="945" r="5" fill="rgb(0,0,0)" />
	<circle cx="202" cy="420" r="5" fill="rgb(0,0,0)" />
	<circle cx="1151" cy="695" r="5" fill="rgb(0,0,0)" />
	<circle cx="886" cy="1184" r="5" fill="rgb(0,0,0)" />
	<circle cx="223" cy="33" r="5" fill="rgb(0,0,0)" />
	<circle cx="1127" cy="1369" r="5" fill="rgb(0,0,0)" />
	<circle cx="1191" cy="1455" r="5" fill="rgb(0,0,0)" />
	<circle cx="1196" cy="1177" r="5" fill="rgb(0,0,0)" />
	<circle cx="631" cy="615" r="5" fill="rgb(0,0,0)" />
	<circle cx="969" cy="1092" r="5" fill="rgb(0,0,0)" />
	<circle cx="79" cy="1469" r="5" fill="rgb(0,0,0)" />
	<circle cx="352" cy="618" r="5" fill="rgb(0,0,0)" />
	<circle cx="491" cy="763" r="5" fill="rgb(0,0,0)" />
	<circle cx="259" cy="661" r="5" fill="rgb(0,0,0)" />
	<circle cx="1039" cy="1146" r="5" fill="rgb(0,0,0)" />
	<circle cx="814" cy="1517" r="5" fill="rgb(0,0,0)" />
	<circle cx="734" cy="477" r="5" fill="rgb(0,0,0)" />
	<circle cx="616" cy="228" r="5" fill="rgb(0,0,0)" />
	<circle cx="709" cy="1156" r="5" fill="rgb(0,0,0)" />
	<circle cx="525" cy="219" r="5" fill="rgb(0,0,0)" />
	<circle cx="715" cy="150" r="5" fill="rgb(0,0,0)" />
	<circle cx="433" cy="1418" r="5" fill="rgb(0,0,0)" />
	<circle cx="78" cy="1186" r="5" fill="rgb(0,0,0)" />
	<circle cx="1098" cy="1227" r="5" fill="rgb(0,0,0)" />
	<circle cx="857" cy="258" r="5" fill="rgb(0,0,0)" />
	<circle cx="728" cy="1021" r="5" fill="rgb(0,0,0)" />
	<circle cx="332" cy="406" r="5" fill="rgb(0,0,0)" />
	<circle cx="243" cy="1490" r="5" fill="rgb(0,0,0)" />
	<circle cx="1130" cy="862" r="5" fill="rgb(0,0,0)" />
	<circle cx="117" cy="422" r="5" fill="rgb(0,0,0)" />
	<circle cx="1089" cy="246" r="5" fill="rgb(0,0,0)" />
	<circle cx="895" cy="1037" r="5" fill="rgb(0,0,0)" />
	<circle cx="865" cy="1135" r="5" fill="rgb(0,0,0)" />
	<circle cx="1086" cy="1032" r="5" fill="rgb(0,0,0)" />
	<circle cx="403" cy="1204" r="5" fill="rgb(0,0,0)" />
	<circle cx="192" cy="1574" r="5" fill="rgb(0,0,0)" />
	<circle cx="1301" cy="1501" r="5" fill="rgb(0,0,0)" />
	<circle cx="859" cy="1083" r="5" fill="rgb(0,0,0)" />
	<circle cx="70" cy="1516" r="5" fill="rgb(0,0,0)" />
	<circle cx="246" cy="1579" r="5" fill="rgb(0,0,0)" />
	<circle cx="1301" cy="38" r="5" fill="rgb(0,0,0)" />
	<circle cx="275" cy="97" r="5" fill="rgb(0,0,0)" />
	<circle cx="660" cy="227" r="5" fill="rgb(0,0,0)" />
	<circle cx="1170" cy="392" r="5" fill="rgb(0,0,0)" />
	<circle cx="284" cy="1368" r="5" fill="rgb(0,0,0)" />
	<circle cx="412" cy="1519" r="5" fill="rgb(0,0,0)" />
	<circle cx="51" cy="1317" r="5" fill="rgb(0,0,0)" />
	<circle cx="1248" cy="100" r="5" fill="rgb(0,0,0)" />
	<circle cx="77" cy="1231" r="5" fill="rgb(0,0,0)" />
	<circle cx="564" cy="168" r="5" fill="rgb(0,0,0)" />
	<circle cx="855" cy="1364" r="5" fill="rgb(0,0,0)" />
	<circle cx="770" cy="1506" r="5" fill="rgb(0,0,0)" />
	<circle cx="1042" cy="1205" r="5" fill="rgb(0,0,0)" />
	<circle cx="246" cy="1090" r="5" fill="rgb(0,0,0)" />
	<circle cx="203" cy="1619" r="5" fill="rgb(0,0,0)" />
	<circle cx="390" cy="1105" r="5" fill="rgb(0,0,0)" />
	<circle cx="1046" cy="1619" r="5" fill="rgb(0,0,0)" />
	<circle cx="124" cy="1104" r="5" fill="rgb(0,0,0)" />
	<circle cx="1253" cy="1257" r="5" fill="rgb(0,0,0)" />
	<circle cx="1300" cy="188" r="5" fill="rgb(0,0,0)" />
	<circle cx="322" cy="1280" r="5" fill="rgb(0,0,0)" />
	<circle cx="620" cy="146" r="5" fill="rgb(0,0,0)" />
	<circle cx="807" cy="184" r="5" fill="rgb(0,0,0)" />
	<circle cx="1298" cy="874" r="5" fill="rgb(0,0,0)" />
	<circle cx="866" cy="988" r="5" fill="rgb(0,0,0)" />
	<circle cx="726" cy="249" r="5" fill="rgb(0,0,0)" />
	<circle cx="699" cy="1362" r="5" fill="rgb(0,0,0)" />
	<circle cx="855" cy="566" r="5" fill="rgb(0,0,0)" />
	<circle cx="422" cy="250" r="5" fill="rgb(0,0,0)" />
	<circle cx="24" cy="1400" r="5" fill="rgb(0,0,0)" />
	<circle cx="821" cy="1463" r="5" fill="rgb(0,0,0)" />
	<circle cx="311" cy="34" r="5" fill="rgb(0,0,0)" />
	<circle cx="735" cy="738" r="5" fill="rgb(0,0,0)" />
	<circle cx="1038" cy="1569" r="5" fill="rgb(0,0,0)" />
	<circle cx="817" cy="397" r="5" fill="rgb(0,0,0)" />
	<circle cx="50" cy="28" r="5" fill="rgb(0,0,0)" />
	<circle cx="615" cy="502" r="5" fill="rgb(0,0,0)" />
	<circle cx="702" cy="863" r="5" fill="rgb(0,0,0)" />
	<circle cx="195" cy="104" r="5" fill="rgb(0,0,0)" />
	<circle cx="421" cy="691" r="5" fill="rgb(0,0,0)" />
	<circle cx="669" cy="993" r="5" fill="rgb(0,0,0)" />
	<circle cx="1029" cy="33" r="5" fill="rgb(0,0,0)" />
	<circle cx="1296" cy="479" r="5" fill="rgb(0,0,0)" />
	<circle cx="707" cy="193" r="5" fill="rgb(0,0,0)" />
	<circle cx="1253" cy="1205" r="5" fill="rgb(0,0,0)" />
	<circle cx="365" cy="222" r="5" fill="rgb(0,0,0)" />
	<circle cx="68" cy="1617" r="5" fill="rgb(0,0,0)" />
	<circle cx="1226" cy="461" r="5" fill="rgb(0,0,0)" />
	<circle cx="1147" cy="1569" r="5" fill="rgb(0,0,0)" />
	<circle cx="1237" cy="241" r="5" fill="rgb(0,0,0)" />
	<circle cx="303" cy="1582" r="5" fill="rgb(0,0,0)" />
	<circle cx="230" cy="1435" r="5" fill="rgb(0,0,0)" />
	<circle cx="113" cy="1619" r="5" fill="rgb(0,0,0)" />
	<circle cx="659" cy="875" r="5" fill="rgb(0,0,0)" />
	<circle cx="214" cy="1222" r="5" fill="rgb(0,0,0)" />
	<circle cx="706" cy="526" r="5" fill="rgb(0,0,0)" />
	<circle cx="857" cy="1415" r="5" fill="rgb(0,0,0)" />
	<circle cx="599" cy="1446" r="5" fill="rgb(0,0,0)" />
	<circle cx="685" cy="479" r="5" fill="rgb(0,0,0)" />
	<circle cx="1002" cy="849" r="5" fill="rgb(0,0,0)" />
	<circle cx="204" cy="1126" r="5" fill="rgb(0,0,0)" />
	<circle cx="755" cy="828" r="5" fill="rgb(0,0,0)" />
	<circle cx="557" cy="835" r="5" fill="rgb(0,0,0)" />
	<circle cx="633" cy="1571" r="5" fill="rgb(0,0,0)" />
	<circle cx="976" cy="1571" r="5" fill="rgb(0,0,0)" />
	<circle cx="511" cy="951" r="5" fill="rgb(0,0,0)" />
	<circle cx="711" cy="1618" r="5" fill="rgb(0,0,0)" />
	<circle cx="638" cy="30" r="5" fill="rgb(0,0,0)" />
	<circle cx="547" cy="485" r="5" fill="rgb(0,0,0)" />
	<circle cx="134" cy="342" r="5" fill="rgb(0,0,0)" />
	<circle cx="590" cy="104" r="5" fill="rgb(0,0,0)" />
	<circle cx="766" cy="596" r="5" fill="rgb(0,0,0)" />
	<circle cx="369" cy="1571" r="5" fill="rgb(0,0,0)" />
	<circle cx="633" cy="1520" r="5" fill="rgb(0,0,0)" />
</svg>
