<?xml version="1.0" standalone="no" ?>
<!DOCTYPE svg PUBLIC "-//W3C//DTD SVG 1.1//EN" "http://www.w3.org/Graphics/SVG/1.1/DTD/svg11.dtd">
<svg width="664px" height="600px" xmlns="http://www.w3.org/2000/svg" version="1.1" >
	<circle cx="15.7033" cy="488.107" r="2.40964" fill="rgb(149,149,149)" />
	<circle cx="450.217" cy="270.224" r="5.21739" fill="rgb(9,9,9)" />
	<circle cx="69.6856" cy="117.078" r="2.8436" fill="rgb(111,111,111)" />
	<circle cx="258.873" cy="545.701" r="2.71493" fill="rgb(123,123,123)" />
	<circle cx="139.896" cy="578.591" r="2.33463" fill="rgb(153,153,153)" />
	<circle cx="552.094" cy="12.9079" r="3.33333" fill="rgb(80,80,80)" />
	<circle cx="50.4545" cy="265.507" r="2.52101" fill="rgb(137,137,137)" />
	<circle cx="114.255" cy="18.1398" r="2.87081" fill="rgb(110,110,110)" />
	<circle cx="552.034" cy="42.2345" r="3.26087" fill="rgb(85,85,85)" />
	<circle cx="553.845" cy="579.8" r="2.95567" fill="rgb(99,99,99)" />
	<circle cx="57.7778" cy="355.677" r="2.29885" fill="rgb(163,163,163)" />
	<circle cx="351.518" cy="429.484" r="3.92157" fill="rgb(54,54,54)" />
	<circle cx="646.758" cy="117.626" r="3.33333" fill="rgb(81,81,81)" />
	<circle cx="503.331" cy="214.054" r="2.7907" fill="rgb(103,103,103)" />
	<circle cx="448.128" cy="20.4466" r="2.9703" fill="rgb(103,103,103)" />
	<circle cx="293.161" cy="18.753" r="2.87081" fill="rgb(108,108,108)" />
	<circle cx="16.617" cy="292.091" r="2.5" fill="rgb(140,140,140)" />
	<circle cx="284.847" cy="473.023" r="2.94118" fill="rgb(110,110,110)" />
	<circle cx="583.467" cy="48.3512" r="3.33333" fill="rgb(80,80,80)" />
	<circle cx="640.369" cy="577.313" r="2.91262" fill="rgb(112,112,112)" />
	<circle cx="557.799" cy="76.714" r="3.1746" fill="rgb(89,89,89)" />
	<circle cx="556.543" cy="536.414" r="2.72727" fill="rgb(118,118,118)" />
	<circle cx="415.613" cy="580.493" r="2.73973" fill="rgb(123,123,123)" />
	<circle cx="410.31" cy="453.158" r="2.88462" fill="rgb(113,113,113)" />
	<circle cx="442.093" cy="254.026" r="4.83871" fill="rgb(10,10,10)" />
	<circle cx="644.978" cy="248.239" r="2.8436" fill="rgb(111,111,111)" />
	<circle cx="341.335" cy="535.765" r="2.89855" fill="rgb(114,114,114)" />
	<circle cx="103.476" cy="277.455" r="2.30769" fill="rgb(173,173,173)" />
	<circle cx="380.616" cy="392.392" r="6" fill="rgb(0,0,0)" />
	<circle cx="647.368" cy="201.265" r="3.01508" fill="rgb(100,100,100)" />
	<circle cx="245.889" cy="349.003" r="2.16606" fill="rgb(176,176,176)" />
	<circle cx="211.018" cy="133.383" r="1.97368" fill="rgb(255,255,255)" />
	<circle cx="608.928" cy="282.143" r="2.69058" fill="rgb(124,124,124)" />
	<circle cx="422.178" cy="243.138" r="3.07692" fill="rgb(103,103,103)" />
	<circle cx="614.449" cy="50.2455" r="3.40909" fill="rgb(75,75,75)" />
	<circle cx="597.947" cy="502.261" r="2.83019" fill="rgb(114,114,114)" />
	<circle cx="484.078" cy="47.222" r="2.9703" fill="rgb(103,103,103)" />
	<circle cx="200.065" cy="479.707" r="2.27273" fill="rgb(163,163,163)" />
	<circle cx="17.7431" cy="341.3" r="2.37154" fill="rgb(155,155,155)" />
	<circle cx="185.025" cy="17.6383" r="2.83019" fill="rgb(114,114,114)" />
	<circle cx="184.685" cy="581.344" r="2.64317" fill="rgb(116,116,116)" />
	<circle cx="484.096" cy="14.7767" r="3.09278" fill="rgb(95,95,95)" />
	<circle cx="595.858" cy="85.1748" r="3.27869" fill="rgb(84,84,84)" />
	<circle cx="258.211" cy="300.067" r="2.52101" fill="rgb(146,146,146)" />
	<circle cx="270.124" cy="442.188" r="2.63158" fill="rgb(114,114,114)" />
	<circle cx="598.573" cy="460.255" r="2.72727" fill="rgb(122,122,122)" />
	<circle cx="594.702" cy="580.543" r="2.98507" fill="rgb(101,101,101)" />
	<circle cx="46.5914" cy="14.4197" r="3" fill="rgb(104,104,104)" />
	<circle cx="647.253" cy="48.1396" r="3.50877" fill="rgb(72,72,72)" />
	<circle cx="408.659" cy="416.197" r="4.65116" fill="rgb(24,24,24)" />
	<circle cx="231.781" cy="583.521" r="2.7907" fill="rgb(111,111,111)" />
	<circle cx="520.474" cy="51.7731" r="3.09278" fill="rgb(94,94,94)" />
	<circle cx="100.315" cy="456.382" r="1.96721" fill="rgb(255,255,255)" />
	<circle cx="379.254" cy="498.648" r="2.9703" fill="rgb(107,107,107)" />
	<circle cx="276.736" cy="580.911" r="2.85714" fill="rgb(117,117,117)" />
	<circle cx="173.398" cy="58.5932" r="2.73973" fill="rgb(120,120,120)" />
	<circle cx="91.7278" cy="52.7233" r="2.83019" fill="rgb(114,114,114)" />
	<circle cx="322.281" cy="579.386" r="2.87081" fill="rgb(100,100,100)" />
	<circle cx="17.1629" cy="56.2037" r="3" fill="rgb(100,100,100)" />
	<circle cx="94.4654" cy="320.603" r="2.33463" fill="rgb(156,156,156)" />
	<circle cx="430.057" cy="265.272" r="4.72441" fill="rgb(27,27,27)" />
	<circle cx="490.086" cy="309.487" r="2.29008" fill="rgb(182,182,182)" />
	<circle cx="52.3677" cy="46.6135" r="2.92683" fill="rgb(107,107,107)" />
	<circle cx="149.241" cy="18.7965" r="2.83019" fill="rgb(114,114,114)" />
	<circle cx="467.232" cy="236.362" r="2.22222" fill="rgb(195,195,195)" />
	<circle cx="272.292" cy="508.178" r="2.8436" fill="rgb(117,117,117)" />
	<circle cx="367.175" cy="578.78" r="2.87081" fill="rgb(104,104,104)" />
	<circle cx="57.0852" cy="82.5609" r="2.87081" fill="rgb(111,111,111)" />
	<circle cx="590.521" cy="365.317" r="2.5641" fill="rgb(136,136,136)" />
	<circle cx="350.865" cy="400.455" r="3.59281" fill="rgb(74,74,74)" />
	<circle cx="311.442" cy="222.393" r="2.21402" fill="rgb(192,192,192)" />
	<circle cx="227.157" cy="436.069" r="2.43902" fill="rgb(165,165,165)" />
	<circle cx="343.203" cy="496.568" r="3.125" fill="rgb(105,105,105)" />
	<circle cx="55.1636" cy="305.086" r="2.42915" fill="rgb(148,148,148)" />
	<circle cx="597.329" cy="177.953" r="2.21402" fill="rgb(255,255,255)" />
	<circle cx="245.548" cy="475.219" r="2.5974" fill="rgb(142,142,142)" />
	<circle cx="216.66" cy="394.026" r="2.32558" fill="rgb(153,153,153)" />
	<circle cx="640.137" cy="387.435" r="2.6087" fill="rgb(131,131,131)" />
	<circle cx="360.547" cy="376.028" r="4.34783" fill="rgb(4,4,4)" />
	<circle cx="216.989" cy="552.35" r="2.5974" fill="rgb(127,127,127)" />
	<circle cx="647.568" cy="15.4183" r="3.65854" fill="rgb(65,65,65)" />
	<circle cx="381.173" cy="433.121" r="5.21739" fill="rgb(0,0,0)" />
	<circle cx="207.177" cy="294.85" r="2.6087" fill="rgb(134,134,134)" />
	<circle cx="80.5169" cy="187.364" r="2.13523" fill="rgb(244,244,244)" />
	<circle cx="297.085" cy="265.773" r="3.82166" fill="rgb(43,43,43)" />
	<circle cx="364.935" cy="461.328" r="2.95567" fill="rgb(106,106,106)" />
	<circle cx="560.103" cy="450.546" r="2.73973" fill="rgb(116,116,116)" />
	<circle cx="405.362" cy="387.499" r="5.50459" fill="rgb(0,0,0)" />
	<circle cx="25.3793" cy="396.094" r="2.37154" fill="rgb(154,154,154)" />
	<circle cx="599.32" cy="542.208" r="2.92683" fill="rgb(104,104,104)" />
	<circle cx="440.279" cy="113.044" r="1.94175" fill="rgb(252,252,252)" />
	<circle cx="561.8" cy="406.613" r="2.46914" fill="rgb(143,143,143)" />
	<circle cx="15.0382" cy="18.1321" r="3.09278" fill="rgb(95,95,95)" />
	<circle cx="321.698" cy="461.397" r="2.8436" fill="rgb(103,103,103)" />
	<circle cx="427.01" cy="542.148" r="2.58621" fill="rgb(133,133,133)" />
	<circle cx="22.4046" cy="441.415" r="2.45902" fill="rgb(139,139,139)" />
	<circle cx="641.328" cy="82.1095" r="3.37079" fill="rgb(78,78,78)" />
	<circle cx="310.564" cy="418.542" r="2.30769" fill="rgb(171,171,171)" />
	<circle cx="641.715" cy="488.459" r="2.83019" fill="rgb(109,109,109)" />
	<circle cx="134.06" cy="60.8018" r="2.76498" fill="rgb(117,117,117)" />
	<circle cx="227.886" cy="515.052" r="2.45902" fill="rgb(145,145,145)" />
	<circle cx="555.87" cy="277.673" r="2.20588" fill="rgb(231,231,231)" />
	<circle cx="104.244" cy="92.3916" r="2.76498" fill="rgb(116,116,116)" />
	<circle cx="200.432" cy="259.544" r="2.89855" fill="rgb(97,97,97)" />
	<circle cx="47.5337" cy="142.251" r="2.87081" fill="rgb(110,110,110)" />
	<circle cx="259.488" cy="399.331" r="2.21402" fill="rgb(179,179,179)" />
	<circle cx="556.662" cy="492.61" r="2.76498" fill="rgb(119,119,119)" />
	<circle cx="600.659" cy="414.298" r="2.65487" fill="rgb(126,126,126)" />
	<circle cx="370.324" cy="17.5832" r="2.87081" fill="rgb(110,110,110)" />
	<circle cx="612.14" cy="117.111" r="3.26087" fill="rgb(85,85,85)" />
	<circle cx="80.0164" cy="16.2155" r="2.94118" fill="rgb(103,103,103)" />
	<circle cx="19.2044" cy="169.073" r="2.85714" fill="rgb(110,110,110)" />
	<circle cx="221.084" cy="15.3157" r="2.85714" fill="rgb(108,108,108)" />
	<circle cx="359.035" cy="227.943" r="2.27273" fill="rgb(164,164,164)" />
	<circle cx="410.291" cy="17.5661" r="2.89855" fill="rgb(108,108,108)" />
	<circle cx="484.77" cy="439.613" r="2.06897" fill="rgb(252,252,252)" />
	<circle cx="18.3466" cy="245.196" r="2.5974" fill="rgb(131,131,131)" />
	<circle cx="644.822" cy="295.374" r="2.73973" fill="rgb(122,122,122)" />
	<circle cx="321.469" cy="255.874" r="2.63158" fill="rgb(136,136,136)" />
	<circle cx="384.621" cy="369.178" r="4.7619" fill="rgb(6,6,6)" />
	<circle cx="300.468" cy="541.277" r="2.8436" fill="rgb(106,106,106)" />
	<circle cx="584.128" cy="15.433" r="3.42857" fill="rgb(74,74,74)" />
	<circle cx="15.6525" cy="130.319" r="2.98507" fill="rgb(100,100,100)" />
	<circle cx="642.148" cy="342.124" r="2.67857" fill="rgb(122,122,122)" />
	<circle cx="529.186" cy="342.346" r="2.16606" fill="rgb(216,216,216)" />
	<circle cx="246.706" cy="248.322" r="2.18182" fill="rgb(224,224,224)" />
	<circle cx="645.317" cy="156.144" r="3.19149" fill="rgb(89,89,89)" />
	<circle cx="213.198" cy="49.7056" r="2.75229" fill="rgb(118,118,118)" />
	<circle cx="420.083" cy="498.117" r="2.53165" fill="rgb(131,131,131)" />
	<circle cx="492.413" cy="552.727" r="2.15054" fill="rgb(234,234,234)" />
	<circle cx="377.26" cy="324.219" r="2.06897" fill="rgb(251,251,251)" />
	<circle cx="504.089" cy="272.691" r="2.66667" fill="rgb(131,131,131)" />
	<circle cx="206.856" cy="328.871" r="2.4" fill="rgb(133,133,133)" />
	<circle cx="177.759" cy="534.425" r="2.30769" fill="rgb(171,171,171)" />
	<circle cx="19.7752" cy="95.178" r="2.9703" fill="rgb(102,102,102)" />
	<circle cx="603.889" cy="325.213" r="2.6087" fill="rgb(130,130,130)" />
	<circle cx="518.604" cy="15.8778" r="3.20856" fill="rgb(86,86,86)" />
	<circle cx="255.516" cy="23.4092" r="2.8436" fill="rgb(112,112,112)" />
	<circle cx="309.3" cy="502.068" r="3.07692" fill="rgb(89,89,89)" />
	<circle cx="331.458" cy="17.7685" r="2.88462" fill="rgb(108,108,108)" />
	<circle cx="641.261" cy="439.576" r="2.57511" fill="rgb(139,139,139)" />
	<circle cx="469.291" cy="275.475" r="2.8169" fill="rgb(81,81,81)" />
	<circle cx="161.688" cy="272.591" r="2.11268" fill="rgb(222,222,222)" />
	<circle cx="382.159" cy="538.196" r="2.85714" fill="rgb(111,111,111)" />
	<circle cx="615.59" cy="15.838" r="3.5503" fill="rgb(69,69,69)" />
	<circle cx="21.1716" cy="206.19" r="2.71493" fill="rgb(124,124,124)" />
	<circle cx="376.782" cy="412.246" r="5.88235" fill="rgb(0,0,0)" />
	<circle cx="283.374" cy="282.578" r="5.26316" fill="rgb(14,14,14)" />
	<circle cx="400.359" cy="221.451" r="2.3622" fill="rgb(147,147,147)" />
	<circle cx="641.541" cy="532.427" r="2.89855" fill="rgb(109,109,109)" />
</svg>
