<?xml version="1.0" ?>
<!DOCTYPE svg PUBLIC "-//W3C//DTD SVG 1.1//EN" "http://www.w3.org/Graphics/SVG/1.1/DTD/svg11.dtd">
<svg width="664" height="600" version="1.1" xmlns="http://www.w3.org/2000/svg">
<circle cx="355.913" cy="9.38713" r="7.72462" fill="rgb(106,106,106)" />
<circle cx="509.006" cy="9.07532" r="10.0408" fill="rgb(88,88,88)" />
<circle cx="594.647" cy="9.94018" r="9.94829" fill="rgb(69,69,69)" />
<circle cx="302.856" cy="10.1161" r="7.76388" fill="rgb(106,106,106)" />
<circle cx="483.225" cy="11.6219" r="8.84324" fill="rgb(94,94,94)" />
<circle cx="206.84" cy="11.7784" r="8.12705" fill="rgb(108,108,108)" />
<circle cx="459.234" cy="12.5906" r="8.48366" fill="rgb(98,98,98)" />
<circle cx="182.143" cy="13.2853" r="8.10369" fill="rgb(113,113,113)" />
<circle cx="520.238" cy="25.474" r="8.06017" fill="rgb(88,88,88)" />
<circle cx="367.244" cy="28.436" r="7.16032" fill="rgb(113,113,113)" />
<circle cx="392.822" cy="28.4254" r="7.75871" fill="rgb(110,110,110)" />
<circle cx="315.455" cy="28.9793" r="7.44927" fill="rgb(111,111,111)" />
<circle cx="608.169" cy="30.5974" r="9.03804" fill="rgb(74,74,74)" />
<circle cx="583.913" cy="31.0047" r="9.2895" fill="rgb(78,78,78)" />
<circle cx="289.967" cy="32.1997" r="7.18348" fill="rgb(111,111,111)" />
<circle cx="85.7203" cy="31.3459" r="8.03207" fill="rgb(106,106,106)" />
<circle cx="496.626" cy="32.7068" r="8.26211" fill="rgb(96,96,96)" />
<circle cx="227.178" cy="31.435" r="8.80679" fill="rgb(114,114,114)" />
<circle cx="58.5879" cy="33.3568" r="8.13236" fill="rgb(106,106,106)" />
<circle cx="129.175" cy="11.5547" r="9.72144" fill="rgb(111,111,111)" />
<circle cx="446.195" cy="36.7166" r="8.47842" fill="rgb(106,106,106)" />
<circle cx="538.7" cy="36.2814" r="8.50918" fill="rgb(87,87,87)" />
<circle cx="264.912" cy="36.1502" r="7.92962" fill="rgb(113,113,113)" />
<circle cx="32.6019" cy="36.5561" r="9.50359" fill="rgb(99,99,99)" />
<circle cx="129.19" cy="45.7346" r="9.32716" fill="rgb(117,117,117)" />
<circle cx="173.814" cy="40.523" r="9.34302" fill="rgb(115,115,115)" />
<circle cx="516.977" cy="49.1059" r="9.92943" fill="rgb(95,95,95)" />
<circle cx="621.21" cy="52.5598" r="10.3487" fill="rgb(75,75,75)" />
<circle cx="573.725" cy="53.2055" r="9.97014" fill="rgb(83,83,83)" />
<circle cx="102.678" cy="53.4105" r="7.72884" fill="rgb(114,114,114)" />
<circle cx="597.625" cy="54.0512" r="9.57824" fill="rgb(79,79,79)" />
<circle cx="547.269" cy="57.6094" r="10.2273" fill="rgb(87,87,87)" />
<circle cx="76.7214" cy="54.0013" r="9.35081" fill="rgb(114,114,114)" />
<circle cx="152.961" cy="57.8892" r="7.86996" fill="rgb(118,118,118)" />
<circle cx="492.371" cy="57.4839" r="10.2985" fill="rgb(101,101,101)" />
<circle cx="47.7831" cy="56.7785" r="9.86847" fill="rgb(106,106,106)" />
<circle cx="192.548" cy="63.0322" r="7.98955" fill="rgb(120,120,120)" />
<circle cx="524.533" cy="69.4352" r="10.7032" fill="rgb(96,96,96)" />
<circle cx="633.444" cy="70.6029" r="8.34337" fill="rgb(78,78,78)" />
<circle cx="125.624" cy="69.1813" r="8.04312" fill="rgb(116,116,116)" />
<circle cx="463.803" cy="59.9577" r="8.28369" fill="rgb(108,108,108)" />
<circle cx="566.608" cy="74.0277" r="8.31842" fill="rgb(87,87,87)" />
<circle cx="69.5808" cy="74.5982" r="9.4921" fill="rgb(113,113,113)" />
<circle cx="35.7367" cy="75.9247" r="9.90835" fill="rgb(106,106,106)" />
<circle cx="99.4568" cy="78.2348" r="9.04197" fill="rgb(116,116,116)" />
<circle cx="546.241" cy="83.7525" r="8.49616" fill="rgb(93,93,93)" />
<circle cx="56.0332" cy="92.1804" r="8.19773" fill="rgb(111,111,111)" />
<circle cx="632.657" cy="94.74" r="9.3109" fill="rgb(82,82,82)" />
<circle cx="569.251" cy="97.515" r="8.9775" fill="rgb(89,89,89)" />
<circle cx="612.398" cy="103.662" r="8.67756" fill="rgb(83,83,83)" />
<circle cx="108.516" cy="107.477" r="8.57056" fill="rgb(117,117,117)" />
<circle cx="14.2859" cy="59.8623" r="10.1814" fill="rgb(101,101,101)" />
<circle cx="70.8956" cy="114.933" r="8.05353" fill="rgb(112,112,112)" />
<circle cx="502.647" cy="81.046" r="11.2265" fill="rgb(108,108,108)" />
<circle cx="423.476" cy="54.0042" r="11.6721" fill="rgb(114,114,114)" />
<circle cx="591.167" cy="105.244" r="11.2851" fill="rgb(85,85,85)" />
<circle cx="630.026" cy="121.885" r="9.2362" fill="rgb(82,82,82)" />
<circle cx="606.495" cy="128.744" r="11.2517" fill="rgb(85,85,85)" />
<circle cx="475.679" cy="77.3819" r="6.38105" fill="rgb(112,112,112)" />
<circle cx="443.278" cy="63.5453" r="7.97283" fill="rgb(118,118,118)" />
<circle cx="189.281" cy="92.8569" r="9.46925" fill="rgb(125,125,125)" />
<circle cx="213.107" cy="85.5585" r="8.39764" fill="rgb(130,130,130)" />
<circle cx="525.211" cy="93.9073" r="8.98049" fill="rgb(106,106,106)" />
<circle cx="235.201" cy="73.2316" r="10.7191" fill="rgb(120,120,120)" />
<circle cx="74.8561" cy="143.009" r="7.78243" fill="rgb(114,114,114)" />
<circle cx="51.3996" cy="150.042" r="8.6467" fill="rgb(111,111,111)" />
<circle cx="163.158" cy="104.624" r="9.48747" fill="rgb(138,138,138)" />
<circle cx="628.356" cy="148.838" r="10.7121" fill="rgb(89,89,89)" />
<circle cx="572.9" cy="123.282" r="12.1159" fill="rgb(93,93,93)" />
<circle cx="403.233" cy="145.93" r="2.00961" fill="rgb(243,243,243)" />
<circle cx="548.539" cy="109.472" r="8.94927" fill="rgb(95,95,95)" />
<circle cx="324.914" cy="155.772" r="3.45459" fill="rgb(223,223,223)" />
<circle cx="52.1995" cy="170.684" r="7.26119" fill="rgb(116,116,116)" />
<circle cx="367.501" cy="156.204" r="3.7866" fill="rgb(207,207,207)" />
<circle cx="286.431" cy="152.204" r="1.99814" fill="rgb(244,244,244)" />
<circle cx="32.0825" cy="181.982" r="7.54281" fill="rgb(116,116,116)" />
<circle cx="431.821" cy="173.028" r="3.55455" fill="rgb(192,192,192)" />
<circle cx="97.4789" cy="151.662" r="7.94537" fill="rgb(120,120,120)" />
<circle cx="500.307" cy="183.714" r="7.46591" fill="rgb(94,94,94)" />
<circle cx="398.25" cy="181.543" r="5.21446" fill="rgb(178,178,178)" />
<circle cx="242.652" cy="175.334" r="2.75029" fill="rgb(214,214,214)" />
<circle cx="624.643" cy="181.608" r="12.3152" fill="rgb(110,110,110)" />
<circle cx="208.439" cy="182.221" r="9.79385" fill="rgb(58,58,58)" />
<circle cx="76.1512" cy="168.23" r="9.26108" fill="rgb(120,120,120)" />
<circle cx="230.977" cy="9.91032" r="6.89815" fill="rgb(108,108,108)" />
<circle cx="169.264" cy="180.576" r="2.22602" fill="rgb(209,209,209)" />
<circle cx="57.7734" cy="192.213" r="9.31038" fill="rgb(125,125,125)" />
<circle cx="552.935" cy="184.753" r="2.61338" fill="rgb(238,238,238)" />
<circle cx="508.899" cy="204.188" r="8.49593" fill="rgb(119,119,119)" />
<circle cx="128.821" cy="201.49" r="3.12747" fill="rgb(236,236,236)" />
<circle cx="622.922" cy="210.973" r="9.29329" fill="rgb(104,104,104)" />
<circle cx="582.406" cy="213.174" r="5.81068" fill="rgb(196,196,196)" />
<circle cx="199.721" cy="36.1241" r="7.86602" fill="rgb(115,115,115)" />
<circle cx="608.445" cy="158.922" r="11.0362" fill="rgb(94,94,94)" />
<circle cx="159.039" cy="216.166" r="3.21569" fill="rgb(213,213,213)" />
<circle cx="447.875" cy="228.054" r="7.36213" fill="rgb(156,156,156)" />
<circle cx="297.6" cy="218.895" r="4.7449" fill="rgb(178,178,178)" />
<circle cx="327.29" cy="224.093" r="7.0633" fill="rgb(159,159,159)" />
<circle cx="100.991" cy="223.411" r="5.52626" fill="rgb(205,205,205)" />
<circle cx="245.664" cy="215.08" r="4.69713" fill="rgb(203,203,203)" />
<circle cx="196.875" cy="231.315" r="8.05525" fill="rgb(79,79,79)" />
<circle cx="601.602" cy="236.991" r="5.58438" fill="rgb(201,201,201)" />
<circle cx="272.43" cy="239.859" r="6.00485" fill="rgb(196,196,196)" />
<circle cx="79.7996" cy="247.783" r="5.08265" fill="rgb(186,186,186)" />
<circle cx="452.812" cy="255.726" r="11.4338" fill="rgb(3,3,3)" />
<circle cx="382.336" cy="9.39596" r="7.73642" fill="rgb(106,106,106)" />
<circle cx="196.728" cy="257.14" r="8.40617" fill="rgb(96,96,96)" />
<circle cx="34.4492" cy="257.708" r="6.68171" fill="rgb(137,137,137)" />
<circle cx="84.3641" cy="96.724" r="8.32208" fill="rgb(114,114,114)" />
<circle cx="306.114" cy="51.4367" r="10.0632" fill="rgb(111,111,111)" />
<circle cx="109.514" cy="253.792" r="5.85647" fill="rgb(171,171,171)" />
<circle cx="277.492" cy="11.1625" r="7.99253" fill="rgb(109,109,109)" />
<circle cx="163.779" cy="251.936" r="3.04208" fill="rgb(228,228,228)" />
<circle cx="567.083" cy="10.4836" r="9.58743" fill="rgb(80,80,80)" />
<circle cx="602.435" cy="262.402" r="8.45257" fill="rgb(121,121,121)" />
<circle cx="420.681" cy="263.462" r="9.12234" fill="rgb(52,52,52)" />
<circle cx="147.737" cy="84.6467" r="8.66007" fill="rgb(121,121,121)" />
<circle cx="281.755" cy="267.558" r="11.743" fill="rgb(5,5,5)" />
<circle cx="57.5167" cy="266.547" r="6.87867" fill="rgb(139,139,139)" />
<circle cx="250.719" cy="268.675" r="6.39565" fill="rgb(111,111,111)" />
<circle cx="133.269" cy="268.724" r="6.09076" fill="rgb(161,161,161)" />
<circle cx="513.759" cy="277.086" r="8.76743" fill="rgb(91,91,91)" />
<circle cx="488.147" cy="216.894" r="3.98876" fill="rgb(191,191,191)" />
<circle cx="626.803" cy="271.962" r="8.46128" fill="rgb(118,118,118)" />
<circle cx="82.0959" cy="273.946" r="7.01478" fill="rgb(139,139,139)" />
<circle cx="376.496" cy="48.9722" r="8.92115" fill="rgb(115,115,115)" />
<circle cx="306.146" cy="276.132" r="10.8809" fill="rgb(19,19,19)" />
<circle cx="465.144" cy="274.132" r="10.6656" fill="rgb(64,64,64)" />
<circle cx="41.4774" cy="11.6347" r="8.65694" fill="rgb(100,100,100)" />
<circle cx="338.402" cy="192.109" r="5.54884" fill="rgb(192,192,192)" />
<circle cx="216.073" cy="274.844" r="6.78055" fill="rgb(146,146,146)" />
<circle cx="575.51" cy="274.457" r="6.29969" fill="rgb(191,191,191)" />
<circle cx="189.308" cy="282.325" r="10.0251" fill="rgb(90,90,90)" />
<circle cx="104.803" cy="285.013" r="5.90182" fill="rgb(143,143,143)" />
<circle cx="157.464" cy="11.2248" r="9.41423" fill="rgb(111,111,111)" />
<circle cx="117.719" cy="133.193" r="9.34962" fill="rgb(115,115,115)" />
<circle cx="604.059" cy="288.394" r="8.04972" fill="rgb(126,126,126)" />
<circle cx="264.846" cy="286.496" r="13.8893" fill="rgb(8,8,8)" />
<circle cx="34.4518" cy="286.256" r="6.85957" fill="rgb(140,140,140)" />
<circle cx="58.2191" cy="290.755" r="6.37633" fill="rgb(144,144,144)" />
<circle cx="69.8538" cy="10.7503" r="8.72192" fill="rgb(101,101,101)" />
<circle cx="580.484" cy="300.408" r="9.18262" fill="rgb(132,132,132)" />
<circle cx="622.305" cy="10.3464" r="10.177" fill="rgb(68,68,68)" />
<circle cx="78.4863" cy="301.369" r="7.07161" fill="rgb(148,148,148)" />
<circle cx="341.797" cy="27.7997" r="7.43433" fill="rgb(110,110,110)" />
<circle cx="206.822" cy="302.364" r="7.62287" fill="rgb(115,115,115)" />
<circle cx="515.479" cy="300.209" r="7.19993" fill="rgb(124,124,124)" />
<circle cx="627.797" cy="303.396" r="8.52126" fill="rgb(123,123,123)" />
<circle cx="100.535" cy="311.807" r="6.4757" fill="rgb(153,153,153)" />
<circle cx="54.8197" cy="130.455" r="7.06879" fill="rgb(111,111,111)" />
<circle cx="548.629" cy="310.498" r="5.81123" fill="rgb(133,133,133)" />
<circle cx="205.027" cy="207.335" r="9.23692" fill="rgb(98,98,98)" />
<circle cx="496.259" cy="312.938" r="5.15535" fill="rgb(158,158,158)" />
<circle cx="257.04" cy="312.023" r="5.31079" fill="rgb(151,151,151)" />
<circle cx="393.332" cy="272.436" r="7.2952" fill="rgb(199,199,199)" />
<circle cx="604.605" cy="316.219" r="7.26421" fill="rgb(128,128,128)" />
<circle cx="307.433" cy="301.971" r="7.01481" fill="rgb(156,156,156)" />
<circle cx="17.1597" cy="310.644" r="6.70882" fill="rgb(142,142,142)" />
<circle cx="47.097" cy="314.167" r="7.17333" fill="rgb(151,151,151)" />
<circle cx="332.659" cy="282.665" r="8.0161" fill="rgb(182,182,182)" />
<circle cx="422.776" cy="287.547" r="5.04996" fill="rgb(217,217,217)" />
<circle cx="589.05" cy="78.5126" r="9.95944" fill="rgb(83,83,83)" />
<circle cx="282.757" cy="316.023" r="6.90252" fill="rgb(144,144,144)" />
<circle cx="35.9722" cy="206.378" r="7.11738" fill="rgb(124,124,124)" />
<circle cx="123.685" cy="321.903" r="5.68242" fill="rgb(159,159,159)" />
<circle cx="229.911" cy="322.987" r="5.65768" fill="rgb(168,168,168)" />
<circle cx="577.276" cy="326.228" r="7.3769" fill="rgb(139,139,139)" />
<circle cx="72.7877" cy="327.532" r="6.19213" fill="rgb(157,157,157)" />
<circle cx="203.37" cy="329.186" r="6.79326" fill="rgb(143,143,143)" />
<circle cx="550.827" cy="333.189" r="7.54764" fill="rgb(144,144,144)" />
<circle cx="482.747" cy="334.172" r="4.37113" fill="rgb(198,198,198)" />
<circle cx="626.751" cy="335.327" r="8.02157" fill="rgb(127,127,127)" />
<circle cx="513.188" cy="327.786" r="5.71486" fill="rgb(150,150,150)" />
<circle cx="33.4692" cy="337.161" r="6.02843" fill="rgb(155,155,155)" />
<circle cx="133.768" cy="237.422" r="4.81224" fill="rgb(181,181,181)" />
<circle cx="601.628" cy="342.083" r="7.96838" fill="rgb(132,132,132)" />
<circle cx="367.534" cy="346.73" r="8.68323" fill="rgb(98,98,98)" />
<circle cx="455.74" cy="330.822" r="4.24404" fill="rgb(178,178,178)" />
<circle cx="322.793" cy="336.05" r="2.3333" fill="rgb(230,230,230)" />
<circle cx="55.4953" cy="348.293" r="6.45478" fill="rgb(160,160,160)" />
<circle cx="357.199" cy="220.62" r="6.05322" fill="rgb(171,171,171)" />
<circle cx="286.545" cy="290.434" r="11.1138" fill="rgb(4,4,4)" />
<circle cx="420.247" cy="351.127" r="6.6569" fill="rgb(189,189,189)" />
<circle cx="573.041" cy="352.64" r="6.90142" fill="rgb(140,140,140)" />
<circle cx="542.274" cy="354.216" r="5.73827" fill="rgb(155,155,155)" />
<circle cx="344.826" cy="358.274" r="6.36136" fill="rgb(142,142,142)" />
<circle cx="363.625" cy="276.872" r="4.9094" fill="rgb(185,185,185)" />
<circle cx="226.86" cy="351.266" r="5.89132" fill="rgb(164,164,164)" />
<circle cx="387.175" cy="366.21" r="11.6995" fill="rgb(24,24,24)" />
<circle cx="79.3075" cy="359.079" r="5.64802" fill="rgb(165,165,165)" />
<circle cx="598.321" cy="365.022" r="6.83514" fill="rgb(130,130,130)" />
<circle cx="200.661" cy="360.28" r="5.33071" fill="rgb(174,174,174)" />
<circle cx="365.238" cy="371.104" r="10.5318" fill="rgb(8,8,8)" />
<circle cx="292.179" cy="343.659" r="5.101" fill="rgb(175,175,175)" />
<circle cx="624.655" cy="365.417" r="8.24426" fill="rgb(124,124,124)" />
<circle cx="539.645" cy="285.247" r="5.28525" fill="rgb(144,144,144)" />
<circle cx="35.9428" cy="368.387" r="5.91666" fill="rgb(160,160,160)" />
<circle cx="459.341" cy="195.304" r="4.53287" fill="rgb(202,202,202)" />
<circle cx="179.173" cy="345.106" r="4.66888" fill="rgb(183,183,183)" />
<circle cx="329.213" cy="9.49032" r="7.87445" fill="rgb(104,104,104)" />
<circle cx="244.487" cy="372.858" r="5.41309" fill="rgb(174,174,174)" />
<circle cx="555.823" cy="374.603" r="5.63533" fill="rgb(146,146,146)" />
<circle cx="345.663" cy="381.587" r="8.39694" fill="rgb(68,68,68)" />
<circle cx="139.056" cy="116.767" r="10.4853" fill="rgb(126,126,126)" />
<circle cx="393.929" cy="343.991" r="7.64775" fill="rgb(118,118,118)" />
<circle cx="578.962" cy="381.051" r="6.9148" fill="rgb(140,140,140)" />
<circle cx="437.585" cy="376.806" r="6.24682" fill="rgb(151,151,151)" />
<circle cx="92.7676" cy="125.602" r="8.18518" fill="rgb(116,116,116)" />
<circle cx="329.423" cy="47.2907" r="11.5765" fill="rgb(116,116,116)" />
<circle cx="60.6212" cy="218.327" r="6.75115" fill="rgb(143,143,143)" />
<circle cx="60.046" cy="380.633" r="6.7039" fill="rgb(161,161,161)" />
<circle cx="317.205" cy="380.055" r="5.20362" fill="rgb(168,168,168)" />
<circle cx="401.478" cy="47.7049" r="12.5549" fill="rgb(117,117,117)" />
<circle cx="604.278" cy="388.994" r="7.86304" fill="rgb(124,124,124)" />
<circle cx="418.626" cy="392.364" r="11.145" fill="rgb(50,50,50)" />
<circle cx="489.872" cy="288.207" r="5.30915" fill="rgb(173,173,173)" />
<circle cx="214.123" cy="383.589" r="6.57744" fill="rgb(156,156,156)" />
<circle cx="530.888" cy="383.222" r="5.99402" fill="rgb(165,165,165)" />
<circle cx="362.445" cy="395.543" r="11.8012" fill="rgb(0,0,0)" />
<circle cx="627.597" cy="395.196" r="7.31971" fill="rgb(130,130,130)" />
<circle cx="261.195" cy="396.255" r="4.9587" fill="rgb(179,179,179)" />
<circle cx="35.1952" cy="398.045" r="5.93437" fill="rgb(157,157,157)" />
<circle cx="342.11" cy="404.195" r="10.0805" fill="rgb(93,93,93)" />
<circle cx="382.631" cy="406.335" r="11.7589" fill="rgb(0,0,0)" />
<circle cx="182.132" cy="384.903" r="4.90612" fill="rgb(204,204,204)" />
<circle cx="347.281" cy="249.583" r="6.94508" fill="rgb(157,157,157)" />
<circle cx="231.998" cy="401.584" r="7.67869" fill="rgb(135,135,135)" />
<circle cx="293.99" cy="398.429" r="4.11587" fill="rgb(215,215,215)" />
<circle cx="556.875" cy="402.08" r="6.84611" fill="rgb(141,141,141)" />
<circle cx="402.718" cy="411.013" r="11.8811" fill="rgb(1,1,1)" />
<circle cx="34.7419" cy="230.801" r="7.03993" fill="rgb(130,130,130)" />
<circle cx="422.641" cy="415.208" r="8.92305" fill="rgb(63,63,63)" />
<circle cx="470.218" cy="305.797" r="5.53557" fill="rgb(182,182,182)" />
<circle cx="57.9686" cy="408.765" r="5.58525" fill="rgb(159,159,159)" />
<circle cx="588.732" cy="141.145" r="9.12255" fill="rgb(94,94,94)" />
<circle cx="444.709" cy="405.987" r="5.99813" fill="rgb(165,165,165)" />
<circle cx="364.836" cy="417.421" r="12.2057" fill="rgb(9,9,9)" />
<circle cx="319.302" cy="413.165" r="6.47767" fill="rgb(148,148,148)" />
<circle cx="605.292" cy="414.944" r="7.51861" fill="rgb(124,124,124)" />
<circle cx="398.317" cy="388.926" r="12.6739" fill="rgb(0,0,0)" />
<circle cx="537.18" cy="415.501" r="6.22481" fill="rgb(149,149,149)" />
<circle cx="108.137" cy="366.7" r="6.71073" fill="rgb(166,166,166)" />
<circle cx="197.779" cy="412.743" r="5.24098" fill="rgb(192,192,192)" />
<circle cx="223.572" cy="239.345" r="6.16611" fill="rgb(184,184,184)" />
<circle cx="277.429" cy="420.23" r="5.84801" fill="rgb(123,123,123)" />
<circle cx="88.3411" cy="386.262" r="10.1789" fill="rgb(167,167,167)" />
<circle cx="250.4" cy="422.798" r="7.60491" fill="rgb(131,131,131)" />
<circle cx="627.494" cy="424.864" r="7.23181" fill="rgb(134,134,134)" />
<circle cx="129.819" cy="296.257" r="5.27409" fill="rgb(167,167,167)" />
<circle cx="387.804" cy="428.513" r="12.2646" fill="rgb(0,0,0)" />
<circle cx="581.826" cy="429.566" r="7.10405" fill="rgb(124,124,124)" />
<circle cx="39.6944" cy="428.166" r="6.48079" fill="rgb(146,146,146)" />
<circle cx="56.321" cy="241.867" r="6.2585" fill="rgb(132,132,132)" />
<circle cx="476.729" cy="402.932" r="3.4341" fill="rgb(223,223,223)" />
<circle cx="556.684" cy="432.509" r="8.82504" fill="rgb(127,127,127)" />
<circle cx="410.426" cy="434.569" r="10.7009" fill="rgb(12,12,12)" />
<circle cx="368.914" cy="439.135" r="11.8492" fill="rgb(8,8,8)" />
<circle cx="632.52" cy="32.5337" r="10.4646" fill="rgb(71,71,71)" />
<circle cx="274.36" cy="197.238" r="4.71102" fill="rgb(195,195,195)" />
<circle cx="324.468" cy="440.569" r="8.58307" fill="rgb(113,113,113)" />
<circle cx="603.071" cy="442.822" r="7.7757" fill="rgb(124,124,124)" />
<circle cx="273.103" cy="446.32" r="8.52932" fill="rgb(120,120,120)" />
<circle cx="348.3" cy="449.193" r="9.21519" fill="rgb(109,109,109)" />
<circle cx="526.821" cy="439.684" r="8.48297" fill="rgb(155,155,155)" />
<circle cx="393.526" cy="450.71" r="9.37163" fill="rgb(88,88,88)" />
<circle cx="625.78" cy="452.271" r="8.13388" fill="rgb(132,132,132)" />
<circle cx="249.022" cy="448.647" r="8.08229" fill="rgb(148,148,148)" />
<circle cx="575.3" cy="453.049" r="8.13412" fill="rgb(113,113,113)" />
<circle cx="81.4577" cy="410.836" r="6.2029" fill="rgb(166,166,166)" />
<circle cx="196.093" cy="446.516" r="5.93643" fill="rgb(181,181,181)" />
<circle cx="221.879" cy="453.548" r="6.63038" fill="rgb(100,100,100)" />
<circle cx="372.357" cy="462.357" r="8.3025" fill="rgb(122,122,122)" />
<circle cx="296.89" cy="460.092" r="9.75456" fill="rgb(100,100,100)" />
<circle cx="260.064" cy="64.5095" r="9.6256" fill="rgb(122,122,122)" />
<circle cx="570.518" cy="247.273" r="8.18574" fill="rgb(144,144,144)" />
<circle cx="69.641" cy="435.574" r="8.74558" fill="rgb(153,153,153)" />
<circle cx="323.012" cy="466.227" r="8.98124" fill="rgb(92,92,92)" />
<circle cx="597.304" cy="468.974" r="8.7556" fill="rgb(120,120,120)" />
<circle cx="353.173" cy="48.172" r="9.65536" fill="rgb(114,114,114)" />
<circle cx="271.838" cy="471.575" r="9.47284" fill="rgb(101,101,101)" />
<circle cx="240.506" cy="473.03" r="7.45053" fill="rgb(138,138,138)" />
<circle cx="435.183" cy="433.603" r="8.80037" fill="rgb(101,101,101)" />
<circle cx="567.776" cy="475.788" r="8.55777" fill="rgb(107,107,107)" />
<circle cx="513.647" cy="226.808" r="7.17136" fill="rgb(124,124,124)" />
<circle cx="626.242" cy="476.708" r="8.04495" fill="rgb(117,117,117)" />
<circle cx="175.398" cy="467.627" r="5.17637" fill="rgb(190,190,190)" />
<circle cx="508.798" cy="247.391" r="8.84654" fill="rgb(110,110,110)" />
<circle cx="520.14" cy="468.089" r="7.47038" fill="rgb(173,173,173)" />
<circle cx="398.263" cy="477.315" r="7.90674" fill="rgb(115,115,115)" />
<circle cx="493.412" cy="264.327" r="6.04912" fill="rgb(142,142,142)" />
<circle cx="139.208" cy="459.757" r="3.03539" fill="rgb(220,220,220)" />
<circle cx="435.211" cy="11.2678" r="8.3254" fill="rgb(100,100,100)" />
<circle cx="32.1013" cy="479.525" r="5.82919" fill="rgb(149,149,149)" />
<circle cx="277.21" cy="367.713" r="4.89986" fill="rgb(181,181,181)" />
<circle cx="303.275" cy="482.61" r="10.288" fill="rgb(102,102,102)" />
<circle cx="472.181" cy="36.8986" r="8.62161" fill="rgb(104,104,104)" />
<circle cx="63.4221" cy="458.585" r="7.85673" fill="rgb(149,149,149)" />
<circle cx="322.961" cy="255.83" r="7.50585" fill="rgb(139,139,139)" />
<circle cx="538.689" cy="484.643" r="7.83141" fill="rgb(123,123,123)" />
<circle cx="422.144" cy="487.265" r="7.27791" fill="rgb(135,135,135)" />
<circle cx="299.84" cy="248.799" r="9.49646" fill="rgb(127,127,127)" />
<circle cx="460.563" cy="440.056" r="5.59652" fill="rgb(185,185,185)" />
<circle cx="374.592" cy="487.196" r="8.67726" fill="rgb(99,99,99)" />
<circle cx="152.61" cy="317.709" r="4.27512" fill="rgb(172,172,172)" />
<circle cx="472.841" cy="477.404" r="3.65563" fill="rgb(193,193,193)" />
<circle cx="606.571" cy="492.357" r="6.95948" fill="rgb(116,116,116)" />
<circle cx="285.934" cy="496.256" r="9.01128" fill="rgb(103,103,103)" />
<circle cx="558.357" cy="498.473" r="6.71917" fill="rgb(119,119,119)" />
<circle cx="298.977" cy="435.016" r="7.48" fill="rgb(142,142,142)" />
<circle cx="231.864" cy="497.783" r="6.55855" fill="rgb(133,133,133)" />
<circle cx="402.413" cy="245.056" r="7.52983" fill="rgb(129,129,129)" />
<circle cx="583.09" cy="496.44" r="8.63538" fill="rgb(112,112,112)" />
<circle cx="627.802" cy="502.926" r="9.02398" fill="rgb(109,109,109)" />
<circle cx="514.152" cy="407.67" r="5.8629" fill="rgb(196,196,196)" />
<circle cx="151.195" cy="493.898" r="4.06063" fill="rgb(208,208,208)" />
<circle cx="395.336" cy="503.82" r="8.7316" fill="rgb(118,118,118)" />
<circle cx="447.347" cy="499.925" r="5.90333" fill="rgb(156,156,156)" />
<circle cx="30.2026" cy="130.1" r="9.03791" fill="rgb(103,103,103)" />
<circle cx="181.524" cy="500.254" r="6.11201" fill="rgb(148,148,148)" />
<circle cx="205.901" cy="508.336" r="5.69373" fill="rgb(148,148,148)" />
<circle cx="514.49" cy="501.093" r="5.97849" fill="rgb(177,177,177)" />
<circle cx="501.974" cy="351.88" r="5.25751" fill="rgb(165,165,165)" />
<circle cx="538.472" cy="513.215" r="7.47458" fill="rgb(126,126,126)" />
<circle cx="599.583" cy="516.982" r="9.12285" fill="rgb(109,109,109)" />
<circle cx="496.955" cy="379.464" r="3.65239" fill="rgb(202,202,202)" />
<circle cx="339.69" cy="515.315" r="9.45189" fill="rgb(101,101,101)" />
<circle cx="421.646" cy="514.632" r="6.96387" fill="rgb(133,133,133)" />
<circle cx="448.225" cy="295.745" r="6.21836" fill="rgb(140,140,140)" />
<circle cx="472.346" cy="360.999" r="3.79719" fill="rgb(207,207,207)" />
<circle cx="370.679" cy="515.931" r="9.76847" fill="rgb(83,83,83)" />
<circle cx="54.2201" cy="483.118" r="6.53702" fill="rgb(148,148,148)" />
<circle cx="441.513" cy="272.72" r="11.5762" fill="rgb(2,2,2)" />
<circle cx="567.962" cy="520.407" r="8.65871" fill="rgb(115,115,115)" />
<circle cx="420.566" cy="30.673" r="8.0382" fill="rgb(111,111,111)" />
<circle cx="234.811" cy="293.601" r="5.19834" fill="rgb(175,175,175)" />
<circle cx="295.641" cy="521.741" r="9.67585" fill="rgb(95,95,95)" />
<circle cx="419.947" cy="459.134" r="6.8046" fill="rgb(167,167,167)" />
<circle cx="250.483" cy="519.687" r="7.73758" fill="rgb(124,124,124)" />
<circle cx="625.524" cy="525.932" r="8.23927" fill="rgb(105,105,105)" />
<circle cx="171.326" cy="74.8496" r="9.00917" fill="rgb(122,122,122)" />
<circle cx="125.44" cy="93.7232" r="7.94992" fill="rgb(122,122,122)" />
<circle cx="111.816" cy="502.115" r="2.21761" fill="rgb(231,231,231)" />
<circle cx="408.985" cy="10.1492" r="7.81367" fill="rgb(105,105,105)" />
<circle cx="38.7238" cy="506.622" r="7.40839" fill="rgb(157,157,157)" />
<circle cx="472.748" cy="516.599" r="4.4887" fill="rgb(189,189,189)" />
<circle cx="138.991" cy="526.382" r="3.70229" fill="rgb(199,199,199)" />
<circle cx="397.743" cy="529.536" r="8.50836" fill="rgb(119,119,119)" />
<circle cx="446.935" cy="531.968" r="6.50022" fill="rgb(156,156,156)" />
<circle cx="419.806" cy="228.772" r="7.60363" fill="rgb(98,98,98)" />
<circle cx="526.058" cy="260.056" r="6.74383" fill="rgb(145,145,145)" />
<circle cx="323.904" cy="535.588" r="9.00407" fill="rgb(102,102,102)" />
<circle cx="98.9934" cy="339.505" r="5.31662" fill="rgb(167,167,167)" />
<circle cx="584.798" cy="538.003" r="7.67922" fill="rgb(110,110,110)" />
<circle cx="351.972" cy="537.217" r="8.84891" fill="rgb(110,110,110)" />
<circle cx="273.277" cy="516.199" r="7.6555" fill="rgb(113,113,113)" />
<circle cx="605.801" cy="542.887" r="9.60912" fill="rgb(105,105,105)" />
<circle cx="543.017" cy="538.205" r="7.68838" fill="rgb(128,128,128)" />
<circle cx="376.823" cy="541.299" r="7.65114" fill="rgb(119,119,119)" />
<circle cx="38.0164" cy="453.72" r="7.56252" fill="rgb(151,151,151)" />
<circle cx="299.972" cy="543.559" r="7.42891" fill="rgb(107,107,107)" />
<circle cx="112.32" cy="29.738" r="7.5384" fill="rgb(109,109,109)" />
<circle cx="328.863" cy="490.716" r="8.63992" fill="rgb(86,86,86)" />
<circle cx="272.894" cy="541.82" r="8.29579" fill="rgb(133,133,133)" />
<circle cx="517.286" cy="531.545" r="6.91929" fill="rgb(131,131,131)" />
<circle cx="628.832" cy="549.857" r="7.95158" fill="rgb(107,107,107)" />
<circle cx="28.6275" cy="99.5313" r="9.10123" fill="rgb(103,103,103)" />
<circle cx="245.721" cy="546.232" r="7.49394" fill="rgb(128,128,128)" />
<circle cx="563.876" cy="547.143" r="7.3255" fill="rgb(117,117,117)" />
<circle cx="348.672" cy="475.168" r="8.5288" fill="rgb(97,97,97)" />
<circle cx="218.439" cy="548.573" r="6.71736" fill="rgb(125,125,125)" />
<circle cx="445.729" cy="466.15" r="6.91583" fill="rgb(155,155,155)" />
<circle cx="10.4974" cy="289.317" r="5.50083" fill="rgb(138,138,138)" />
<circle cx="11.9647" cy="266.13" r="7.10591" fill="rgb(135,135,135)" />
<circle cx="31.6503" cy="534.031" r="5.42685" fill="rgb(154,154,154)" />
<circle cx="282.695" cy="56.8378" r="10.7023" fill="rgb(119,119,119)" />
<circle cx="86.6598" cy="544.041" r="2.80837" fill="rgb(233,233,233)" />
<circle cx="119.171" cy="553.495" r="6.31768" fill="rgb(202,202,202)" />
<circle cx="523.007" cy="559.205" r="8.78602" fill="rgb(148,148,148)" />
<circle cx="392.281" cy="215.367" r="6.48164" fill="rgb(163,163,163)" />
<circle cx="148.938" cy="556.635" r="6.69949" fill="rgb(161,161,161)" />
<circle cx="379.401" cy="385.247" r="10.6078" fill="rgb(0,0,0)" />
<circle cx="649.203" cy="202.313" r="9.80891" fill="rgb(100,100,100)" />
<circle cx="354.027" cy="498.126" r="8.25839" fill="rgb(93,93,93)" />
<circle cx="175.412" cy="559.222" r="7.50478" fill="rgb(118,118,118)" />
<circle cx="474.513" cy="551.65" r="5.3143" fill="rgb(193,193,193)" />
<circle cx="315.426" cy="564.042" r="8.17686" fill="rgb(127,127,127)" />
<circle cx="367.016" cy="564.003" r="8.88038" fill="rgb(107,107,107)" />
<circle cx="581.535" cy="564.67" r="9.61011" fill="rgb(104,104,104)" />
<circle cx="473.357" cy="250.699" r="6.96367" fill="rgb(189,189,189)" />
<circle cx="448.155" cy="559.676" r="7.7358" fill="rgb(150,150,150)" />
<circle cx="168.343" cy="527.469" r="5.81201" fill="rgb(186,186,186)" />
<circle cx="288.135" cy="565.321" r="8.04813" fill="rgb(102,102,102)" />
<circle cx="551.378" cy="566.735" r="8.47893" fill="rgb(113,113,113)" />
<circle cx="376.469" cy="243.542" r="6.38334" fill="rgb(152,152,152)" />
<circle cx="340.334" cy="560.669" r="8.54046" fill="rgb(107,107,107)" />
<circle cx="606.84" cy="566.704" r="8.23236" fill="rgb(103,103,103)" />
<circle cx="554.701" cy="222.232" r="4.69001" fill="rgb(213,213,213)" />
<circle cx="261.066" cy="566.363" r="7.88019" fill="rgb(114,114,114)" />
<circle cx="201.354" cy="566.21" r="7.46351" fill="rgb(130,130,130)" />
<circle cx="422.517" cy="567.228" r="7.18565" fill="rgb(126,126,126)" />
<circle cx="232.332" cy="569.175" r="7.99303" fill="rgb(115,115,115)" />
<circle cx="631.481" cy="572.306" r="7.18246" fill="rgb(112,112,112)" />
<circle cx="16.6204" cy="562.613" r="7.71492" fill="rgb(142,142,142)" />
<circle cx="344.916" cy="427.085" r="10.2652" fill="rgb(79,79,79)" />
<circle cx="10.1093" cy="332.629" r="5.27747" fill="rgb(152,152,152)" />
<circle cx="12.2505" cy="358.628" r="5.94107" fill="rgb(155,155,155)" />
<circle cx="215.473" cy="154.935" r="5.30893" fill="rgb(112,112,112)" />
<circle cx="259.27" cy="340.065" r="4.96427" fill="rgb(188,188,188)" />
<circle cx="10.1608" cy="541.271" r="5.45452" fill="rgb(138,138,138)" />
<circle cx="12.2004" cy="516.656" r="5.87254" fill="rgb(148,148,148)" />
<circle cx="547.532" cy="458.416" r="7.6847" fill="rgb(118,118,118)" />
<circle cx="195.107" cy="534.64" r="7.71586" fill="rgb(146,146,146)" />
<circle cx="650.408" cy="279.126" r="9.01212" fill="rgb(116,116,116)" />
<circle cx="650.262" cy="179.236" r="8.16876" fill="rgb(93,93,93)" />
<circle cx="650.398" cy="157.108" r="11.6169" fill="rgb(88,88,88)" />
<circle cx="13.001" cy="439.214" r="6.52071" fill="rgb(139,139,139)" />
<circle cx="650.959" cy="537.876" r="8.10283" fill="rgb(108,108,108)" />
<circle cx="650.468" cy="253.292" r="8.45925" fill="rgb(112,112,112)" />
<circle cx="649.603" cy="226.902" r="9.08758" fill="rgb(106,106,106)" />
<circle cx="408.962" cy="370.562" r="12.0401" fill="rgb(10,10,10)" />
<circle cx="11.7356" cy="241.968" r="6.81933" fill="rgb(129,129,129)" />
<circle cx="11.8279" cy="217.57" r="6.83479" fill="rgb(124,124,124)" />
<circle cx="12.8593" cy="413.553" r="6.50904" fill="rgb(145,145,145)" />
<circle cx="216.975" cy="56.2741" r="7.83046" fill="rgb(120,120,120)" />
<circle cx="11.983" cy="385.752" r="5.97192" fill="rgb(152,152,152)" />
<circle cx="29.6884" cy="156.164" r="7.71173" fill="rgb(108,108,108)" />
<circle cx="626.533" cy="241.782" r="8.81597" fill="rgb(113,113,113)" />
<circle cx="312.951" cy="508.787" r="9.38959" fill="rgb(95,95,95)" />
<circle cx="650.347" cy="327.64" r="8.66091" fill="rgb(120,120,120)" />
<circle cx="423.365" cy="203.474" r="5.40199" fill="rgb(156,156,156)" />
<circle cx="181.17" cy="311.459" r="6.93381" fill="rgb(149,149,149)" />
<circle cx="651.531" cy="303.348" r="6.47216" fill="rgb(119,119,119)" />
<circle cx="649.923" cy="353.836" r="7.49491" fill="rgb(126,126,126)" />
<circle cx="539.796" cy="10.6638" r="10.5521" fill="rgb(82,82,82)" />
<circle cx="243.24" cy="46.921" r="9.32762" fill="rgb(116,116,116)" />
<circle cx="382.434" cy="586.102" r="8.06978" fill="rgb(115,115,115)" />
<circle cx="148.048" cy="31.8702" r="7.60851" fill="rgb(115,115,115)" />
<circle cx="514.207" cy="584.962" r="7.81724" fill="rgb(141,141,141)" />
<circle cx="225.281" cy="525.907" r="6.9845" fill="rgb(150,150,150)" />
<circle cx="473.867" cy="584.627" r="6.53162" fill="rgb(152,152,152)" />
<circle cx="258.425" cy="492.929" r="7.74466" fill="rgb(95,95,95)" />
<circle cx="158.271" cy="585.243" r="6.64765" fill="rgb(153,153,153)" />
<circle cx="11.2408" cy="193.577" r="7.58602" fill="rgb(115,115,115)" />
<circle cx="592.656" cy="587.714" r="8.17886" fill="rgb(101,101,101)" />
<circle cx="482.167" cy="140.279" r="2.73622" fill="rgb(159,159,159)" />
<circle cx="433.202" cy="248.024" r="11.9681" fill="rgb(25,25,25)" />
<circle cx="129.273" cy="585.242" r="6.41194" fill="rgb(160,160,160)" />
<circle cx="98.0416" cy="583.122" r="5.27188" fill="rgb(203,203,203)" />
<circle cx="651.445" cy="132.939" r="9.4507" fill="rgb(84,84,84)" />
<circle cx="45.4374" cy="111.946" r="7.4493" fill="rgb(106,106,106)" />
<circle cx="652.067" cy="107.754" r="9.11948" fill="rgb(78,78,78)" />
<circle cx="653.197" cy="81.3673" r="9.26986" fill="rgb(76,76,76)" />
<circle cx="611.42" cy="78.2589" r="11.3975" fill="rgb(82,82,82)" />
<circle cx="11.571" cy="491.795" r="6.37832" fill="rgb(149,149,149)" />
<circle cx="11.4376" cy="464.708" r="6.25944" fill="rgb(140,140,140)" />
<circle cx="650.832" cy="513.983" r="8.18291" fill="rgb(105,105,105)" />
<circle cx="354.827" cy="586.758" r="8.59803" fill="rgb(105,105,105)" />
<circle cx="207.678" cy="478.919" r="6.28073" fill="rgb(165,165,165)" />
<circle cx="329.179" cy="586.559" r="8.09502" fill="rgb(107,107,107)" />
<circle cx="10.325" cy="85.2334" r="8.75059" fill="rgb(101,101,101)" />
<circle cx="307.756" cy="187.646" r="4.9736" fill="rgb(184,184,184)" />
<circle cx="10.3459" cy="114.114" r="8.67912" fill="rgb(101,101,101)" />
<circle cx="162.128" cy="290.187" r="3.95154" fill="rgb(219,219,219)" />
<circle cx="650.276" cy="380.433" r="7.27306" fill="rgb(128,128,128)" />
<circle cx="581.114" cy="406.227" r="8.6084" fill="rgb(133,133,133)" />
<circle cx="11.9409" cy="585.766" r="6.92821" fill="rgb(139,139,139)" />
<circle cx="98.9438" cy="9.92245" r="8.812" fill="rgb(107,107,107)" />
<circle cx="494.816" cy="162.453" r="5.85004" fill="rgb(110,110,110)" />
<circle cx="421.061" cy="542.856" r="8.11443" fill="rgb(122,122,122)" />
<circle cx="63.7579" cy="583.2" r="3.44967" fill="rgb(216,216,216)" />
<circle cx="650.646" cy="489.099" r="7.73102" fill="rgb(109,109,109)" />
<circle cx="650.643" cy="55.1233" r="10.6061" fill="rgb(73,73,73)" />
<circle cx="539.522" cy="587.444" r="9.38843" fill="rgb(105,105,105)" />
<circle cx="371.022" cy="194.825" r="4.66112" fill="rgb(196,196,196)" />
<circle cx="566.518" cy="587.418" r="8.66723" fill="rgb(93,93,93)" />
<circle cx="128.005" cy="345.334" r="5.91165" fill="rgb(170,170,170)" />
<circle cx="650.655" cy="463.791" r="7.11953" fill="rgb(124,124,124)" />
<circle cx="395.956" cy="560.816" r="8.78374" fill="rgb(123,123,123)" />
<circle cx="275.215" cy="587.8" r="7.90056" fill="rgb(104,104,104)" />
<circle cx="302.327" cy="587.473" r="7.82302" fill="rgb(103,103,103)" />
<circle cx="164.445" cy="425.855" r="3.67234" fill="rgb(234,234,234)" />
<circle cx="186.664" cy="587.324" r="7.76809" fill="rgb(107,107,107)" />
<circle cx="650.716" cy="437.04" r="6.71875" fill="rgb(140,140,140)" />
<circle cx="650.719" cy="408.642" r="6.63298" fill="rgb(135,135,135)" />
<circle cx="10.2437" cy="168.174" r="7.65811" fill="rgb(108,108,108)" />
<circle cx="253.217" cy="13.8455" r="9.8606" fill="rgb(108,108,108)" />
<circle cx="9.94267" cy="141.343" r="8.15987" fill="rgb(101,101,101)" />
<circle cx="409.912" cy="587.75" r="8.57558" fill="rgb(120,120,120)" />
<circle cx="441.994" cy="587.585" r="7.75498" fill="rgb(135,135,135)" />
<circle cx="215.649" cy="588.719" r="8.71164" fill="rgb(115,115,115)" />
<circle cx="246.762" cy="588.55" r="8.70567" fill="rgb(112,112,112)" />
<circle cx="559.855" cy="32.8074" r="10.1579" fill="rgb(82,82,82)" />
<circle cx="10.0892" cy="35.6334" r="7.62564" fill="rgb(98,98,98)" />
<circle cx="222.891" cy="427.544" r="6.52992" fill="rgb(161,161,161)" />
<circle cx="13.78" cy="11.5764" r="9.92062" fill="rgb(94,94,94)" />
<circle cx="649.934" cy="587.949" r="8.90519" fill="rgb(108,108,108)" />
<circle cx="652.539" cy="562.654" r="7.88283" fill="rgb(106,106,106)" />
<circle cx="653.4" cy="32.2926" r="8.41825" fill="rgb(67,67,67)" />
<circle cx="619.454" cy="589.424" r="9.01578" fill="rgb(104,104,104)" />
<circle cx="649.357" cy="10.3718" r="10.4803" fill="rgb(63,63,63)" />
</svg>
