<?xml version="1.0" standalone="no" ?>
<!DOCTYPE svg PUBLIC "-//W3C//DTD SVG 1.1//EN" "http://www.w3.org/Graphics/SVG/1.1/DTD/svg11.dtd">
<svg width="664px" height="600px" xmlns="http://www.w3.org/2000/svg" version="1.1" >
	<circle cx="505.378" cy="255.71" r="2.72727" fill="rgb(141,141,141)" />
	<circle cx="222.108" cy="314.131" r="2.32558" fill="rgb(161,161,161)" />
	<circle cx="464.039" cy="33.0906" r="2.94118" fill="rgb(104,104,104)" />
	<circle cx="587.367" cy="43.7406" r="3.37079" fill="rgb(78,78,78)" />
	<circle cx="239.741" cy="508.431" r="2.52101" fill="rgb(140,140,140)" />
	<circle cx="653.227" cy="207.794" r="3" fill="rgb(100,100,100)" />
	<circle cx="11.8284" cy="339.978" r="2.37154" fill="rgb(154,154,154)" />
	<circle cx="105.252" cy="112.039" r="2.76498" fill="rgb(117,117,117)" />
	<circle cx="532.45" cy="9.47121" r="3.27869" fill="rgb(83,83,83)" />
	<circle cx="25.0771" cy="208.014" r="2.69058" fill="rgb(125,125,125)" />
	<circle cx="229.462" cy="51.8043" r="2.75229" fill="rgb(120,120,120)" />
	<circle cx="10.5315" cy="366.464" r="2.37154" fill="rgb(154,154,154)" />
	<circle cx="103.059" cy="42.3011" r="2.8436" fill="rgb(109,109,109)" />
	<circle cx="53.7321" cy="432.5" r="2.40964" fill="rgb(151,151,151)" />
	<circle cx="624.305" cy="482.002" r="2.77778" fill="rgb(116,116,116)" />
	<circle cx="40.5217" cy="137.724" r="2.91262" fill="rgb(105,105,105)" />
	<circle cx="393.274" cy="584.179" r="2.83019" fill="rgb(108,108,108)" />
	<circle cx="620.037" cy="535.009" r="2.92683" fill="rgb(103,103,103)" />
	<circle cx="648.888" cy="340.734" r="2.69058" fill="rgb(124,124,124)" />
	<circle cx="489.348" cy="6.22994" r="3.15789" fill="rgb(89,89,89)" />
	<circle cx="533.948" cy="414.29" r="2.29885" fill="rgb(184,184,184)" />
	<circle cx="626.782" cy="53.7865" r="3.42857" fill="rgb(75,75,75)" />
	<circle cx="194.714" cy="560.313" r="2.51046" fill="rgb(154,154,154)" />
	<circle cx="195.346" cy="216.029" r="2.41935" fill="rgb(162,162,162)" />
	<circle cx="465.588" cy="294.908" r="2.39044" fill="rgb(153,153,153)" />
	<circle cx="445.371" cy="267.513" r="5.60748" fill="rgb(16,16,16)" />
	<circle cx="64.0188" cy="9.64232" r="2.98507" fill="rgb(102,102,102)" />
	<circle cx="152.577" cy="587.763" r="2.43902" fill="rgb(142,142,142)" />
	<circle cx="26.3004" cy="7.30552" r="3.09278" fill="rgb(94,94,94)" />
	<circle cx="265.432" cy="586.758" r="2.8169" fill="rgb(99,99,99)" />
	<circle cx="554.909" cy="331.41" r="2.47934" fill="rgb(145,145,145)" />
	<circle cx="650.793" cy="67.0248" r="3.44828" fill="rgb(75,75,75)" />
	<circle cx="31.1337" cy="417.421" r="2.40964" fill="rgb(149,149,149)" />
	<circle cx="556.904" cy="408.263" r="2.46914" fill="rgb(142,142,142)" />
	<circle cx="624.689" cy="560.71" r="2.89855" fill="rgb(106,106,106)" />
	<circle cx="142.736" cy="514.301" r="1.98676" fill="rgb(213,213,213)" />
	<circle cx="575.372" cy="82.2126" r="3.22581" fill="rgb(87,87,87)" />
	<circle cx="427.118" cy="418.697" r="3.35196" fill="rgb(74,74,74)" />
	<circle cx="535.239" cy="567.396" r="2.6087" fill="rgb(131,131,131)" />
	<circle cx="7.18314" cy="59.2043" r="3.01508" fill="rgb(101,101,101)" />
	<circle cx="391.015" cy="174.258" r="2.02703" fill="rgb(204,204,204)" />
	<circle cx="371.459" cy="316.898" r="1.94175" fill="rgb(255,255,255)" />
	<circle cx="88.7001" cy="587.762" r="2.06186" fill="rgb(201,201,201)" />
	<circle cx="329.129" cy="393.112" r="2.34375" fill="rgb(167,167,167)" />
	<circle cx="553.955" cy="556.568" r="2.77778" fill="rgb(117,117,117)" />
	<circle cx="322.112" cy="444.382" r="2.65487" fill="rgb(124,124,124)" />
	<circle cx="152.207" cy="55.5819" r="2.75229" fill="rgb(117,117,117)" />
	<circle cx="654.092" cy="8.5617" r="3.7037" fill="rgb(61,61,61)" />
	<circle cx="385.233" cy="494.398" r="2.91262" fill="rgb(111,111,111)" />
	<circle cx="342.283" cy="193.793" r="2.06897" fill="rgb(200,200,200)" />
	<circle cx="8.67484" cy="435.915" r="2.51046" fill="rgb(137,137,137)" />
	<circle cx="100.435" cy="85.41" r="2.77778" fill="rgb(115,115,115)" />
	<circle cx="589.405" cy="453.026" r="2.73973" fill="rgb(120,120,120)" />
	<circle cx="5.7225" cy="95.0811" r="3" fill="rgb(101,101,101)" />
	<circle cx="239.227" cy="289.618" r="2.32558" fill="rgb(172,172,172)" />
	<circle cx="136.112" cy="230.985" r="2.04082" fill="rgb(196,196,196)" />
	<circle cx="263.635" cy="441.135" r="2.69058" fill="rgb(115,115,115)" />
	<circle cx="216.797" cy="587.5" r="2.80374" fill="rgb(116,116,116)" />
	<circle cx="32.8449" cy="24.0403" r="3.01508" fill="rgb(102,102,102)" />
	<circle cx="24.6258" cy="151.06" r="2.91262" fill="rgb(106,106,106)" />
	<circle cx="620.335" cy="421.521" r="2.6087" fill="rgb(131,131,131)" />
	<circle cx="228.402" cy="461.045" r="2.48963" fill="rgb(148,148,148)" />
	<circle cx="486.225" cy="39.2814" r="3" fill="rgb(101,101,101)" />
	<circle cx="298.415" cy="267.919" r="4.25532" fill="rgb(33,33,33)" />
	<circle cx="308.081" cy="556.654" r="2.77778" fill="rgb(135,135,135)" />
	<circle cx="44.0084" cy="200.184" r="2.67857" fill="rgb(123,123,123)" />
	<circle cx="304.077" cy="506.652" r="3.1746" fill="rgb(87,87,87)" />
	<circle cx="198.232" cy="418.027" r="2.15054" fill="rgb(170,170,170)" />
	<circle cx="352.339" cy="396.11" r="3.97351" fill="rgb(45,45,45)" />
	<circle cx="47.0826" cy="270.264" r="2.52101" fill="rgb(139,139,139)" />
	<circle cx="354.2" cy="8.8" r="2.91262" fill="rgb(106,106,106)" />
	<circle cx="503.028" cy="281.137" r="2.58621" fill="rgb(135,135,135)" />
	<circle cx="42.3822" cy="60.9244" r="2.94118" fill="rgb(103,103,103)" />
	<circle cx="41.5313" cy="244.138" r="2.57511" fill="rgb(131,131,131)" />
	<circle cx="9.37295" cy="556.801" r="2.45902" fill="rgb(145,145,145)" />
	<circle cx="425.535" cy="444.309" r="2.72727" fill="rgb(120,120,120)" />
	<circle cx="77.2767" cy="32.4329" r="2.89855" fill="rgb(108,108,108)" />
	<circle cx="196.357" cy="315.17" r="2.58621" fill="rgb(127,127,127)" />
	<circle cx="345.188" cy="507.232" r="3.09278" fill="rgb(92,92,92)" />
	<circle cx="377.091" cy="370.625" r="5.45455" fill="rgb(2,2,2)" />
	<circle cx="650.296" cy="273.949" r="2.7907" fill="rgb(115,115,115)" />
	<circle cx="286.628" cy="260.957" r="3.50877" fill="rgb(75,75,75)" />
	<circle cx="542.453" cy="457.44" r="2.66667" fill="rgb(124,124,124)" />
	<circle cx="410.481" cy="555.153" r="2.75229" fill="rgb(129,129,129)" />
	<circle cx="409.183" cy="526.105" r="2.67857" fill="rgb(128,128,128)" />
	<circle cx="150.425" cy="82.5064" r="2.71493" fill="rgb(123,123,123)" />
	<circle cx="596.382" cy="343.274" r="2.57511" fill="rgb(135,135,135)" />
	<circle cx="383.278" cy="555.104" r="2.8436" fill="rgb(119,119,119)" />
	<circle cx="255.066" cy="13.1858" r="2.87081" fill="rgb(108,108,108)" />
	<circle cx="341.193" cy="484.121" r="3.15789" fill="rgb(78,78,78)" />
	<circle cx="447.03" cy="280.688" r="3.7037" fill="rgb(62,62,62)" />
	<circle cx="173.163" cy="23.3276" r="2.8169" fill="rgb(114,114,114)" />
	<circle cx="297.454" cy="252.393" r="2.91262" fill="rgb(118,118,118)" />
	<circle cx="479.175" cy="18.1176" r="3.06122" fill="rgb(98,98,98)" />
	<circle cx="597.921" cy="481.238" r="2.75229" fill="rgb(120,120,120)" />
	<circle cx="491.62" cy="175.647" r="2.26415" fill="rgb(151,151,151)" />
	<circle cx="394.873" cy="442.004" r="4.1958" fill="rgb(42,42,42)" />
	<circle cx="319.142" cy="179.785" r="2.02703" fill="rgb(197,197,197)" />
	<circle cx="623.37" cy="78.0526" r="3.33333" fill="rgb(80,80,80)" />
	<circle cx="202.901" cy="338.148" r="2.3166" fill="rgb(161,161,161)" />
	<circle cx="294.224" cy="234.844" r="2.28137" fill="rgb(189,189,189)" />
	<circle cx="292.443" cy="189.759" r="2.00669" fill="rgb(209,209,209)" />
	<circle cx="24.705" cy="229.86" r="2.63158" fill="rgb(128,128,128)" />
	<circle cx="651.252" cy="241.753" r="2.87081" fill="rgb(109,109,109)" />
	<circle cx="207.134" cy="293.566" r="2.65487" fill="rgb(126,126,126)" />
	<circle cx="333.086" cy="561.056" r="2.8436" fill="rgb(108,108,108)" />
	<circle cx="524.771" cy="73.1965" r="3.06122" fill="rgb(98,98,98)" />
	<circle cx="217.648" cy="560.791" r="2.6087" fill="rgb(143,143,143)" />
	<circle cx="38.0477" cy="80.5223" r="2.91262" fill="rgb(107,107,107)" />
	<circle cx="366.196" cy="509.476" r="3.14136" fill="rgb(88,88,88)" />
	<circle cx="590.697" cy="583.278" r="3" fill="rgb(101,101,101)" />
	<circle cx="634.8" cy="9.40481" r="3.63636" fill="rgb(65,65,65)" />
	<circle cx="204.332" cy="177.462" r="2.64317" fill="rgb(110,110,110)" />
	<circle cx="440.321" cy="517.581" r="2.3622" fill="rgb(157,157,157)" />
	<circle cx="616.535" cy="586.336" r="2.94118" fill="rgb(103,103,103)" />
	<circle cx="37.1627" cy="99.8252" r="2.92683" fill="rgb(105,105,105)" />
	<circle cx="92.0284" cy="59.3001" r="2.8169" fill="rgb(113,113,113)" />
	<circle cx="525.153" cy="292.113" r="2.29885" fill="rgb(164,164,164)" />
	<circle cx="191.373" cy="280.094" r="3.0303" fill="rgb(96,96,96)" />
	<circle cx="597.145" cy="261.402" r="2.46914" fill="rgb(118,118,118)" />
	<circle cx="651.485" cy="497.766" r="2.88462" fill="rgb(108,108,108)" />
	<circle cx="314.531" cy="586.172" r="2.88462" fill="rgb(107,107,107)" />
	<circle cx="603.294" cy="394.139" r="2.66667" fill="rgb(124,124,124)" />
	<circle cx="262.65" cy="226.924" r="1.98676" fill="rgb(204,204,204)" />
	<circle cx="316.134" cy="467.374" r="3.07692" fill="rgb(94,94,94)" />
	<circle cx="172.897" cy="564.503" r="2.6087" fill="rgb(119,119,119)" />
	<circle cx="490.06" cy="547.898" r="2.02703" fill="rgb(233,233,233)" />
	<circle cx="628.811" cy="511.104" r="2.89855" fill="rgb(107,107,107)" />
	<circle cx="580.543" cy="527.728" r="2.8436" fill="rgb(113,113,113)" />
	<circle cx="572.136" cy="61.2673" r="3.26087" fill="rgb(84,84,84)" />
	<circle cx="360.151" cy="362.894" r="3.2967" fill="rgb(91,91,91)" />
	<circle cx="503.159" cy="23.042" r="3.125" fill="rgb(92,92,92)" />
	<circle cx="649.693" cy="306.989" r="2.73973" fill="rgb(119,119,119)" />
	<circle cx="194.624" cy="586.795" r="2.76498" fill="rgb(121,121,121)" />
	<circle cx="594.187" cy="425.124" r="2.67857" fill="rgb(123,123,123)" />
	<circle cx="567.312" cy="40.3527" r="3.31492" fill="rgb(81,81,81)" />
	<circle cx="552.227" cy="276.481" r="2.11268" fill="rgb(247,247,247)" />
	<circle cx="363.54" cy="381.195" r="5.55556" fill="rgb(11,11,11)" />
	<circle cx="349.037" cy="435.494" r="3.79747" fill="rgb(56,56,56)" />
	<circle cx="315.251" cy="224.348" r="2.18978" fill="rgb(182,182,182)" />
	<circle cx="297.033" cy="284.792" r="4.6875" fill="rgb(51,51,51)" />
	<circle cx="488.384" cy="146.647" r="2.54237" fill="rgb(137,137,137)" />
	<circle cx="594.649" cy="313.854" r="2.5974" fill="rgb(132,132,132)" />
	<circle cx="441.303" cy="24.7956" r="2.94118" fill="rgb(105,105,105)" />
	<circle cx="127.205" cy="49.1959" r="2.7907" fill="rgb(116,116,116)" />
	<circle cx="251.141" cy="460.197" r="2.58621" fill="rgb(133,133,133)" />
	<circle cx="553.433" cy="506.111" r="2.72727" fill="rgb(121,121,121)" />
	<circle cx="285.79" cy="378.817" r="2.01342" fill="rgb(216,216,216)" />
	<circle cx="420.301" cy="584.574" r="2.71493" fill="rgb(119,119,119)" />
	<circle cx="580.737" cy="23.5014" r="3.38983" fill="rgb(79,79,79)" />
	<circle cx="343.053" cy="30.4621" r="2.8436" fill="rgb(112,112,112)" />
	<circle cx="559.958" cy="21.1125" r="3.35196" fill="rgb(80,80,80)" />
	<circle cx="223.286" cy="393.415" r="2.41935" fill="rgb(153,153,153)" />
	<circle cx="398.55" cy="401.855" r="6" fill="rgb(0,0,0)" />
	<circle cx="22.5235" cy="65.9718" r="2.98507" fill="rgb(103,103,103)" />
	<circle cx="200.487" cy="387.385" r="2.1978" fill="rgb(183,183,183)" />
	<circle cx="21.2015" cy="83.709" r="2.95567" fill="rgb(104,104,104)" />
	<circle cx="414.012" cy="179.551" r="2.05479" fill="rgb(176,176,176)" />
	<circle cx="285.831" cy="301.499" r="3.06122" fill="rgb(94,94,94)" />
	<circle cx="377.363" cy="354.949" r="3.10881" fill="rgb(112,112,112)" />
	<circle cx="216.829" cy="156.742" r="2.6087" fill="rgb(111,111,111)" />
	<circle cx="557.114" cy="95.1766" r="3.125" fill="rgb(92,92,92)" />
	<circle cx="262.235" cy="535.187" r="2.67857" fill="rgb(120,120,120)" />
	<circle cx="298.418" cy="32.9233" r="2.83019" fill="rgb(113,113,113)" />
	<circle cx="500.484" cy="199.689" r="2.76498" fill="rgb(125,125,125)" />
	<circle cx="62.7675" cy="589.532" r="1.89274" fill="rgb(216,216,216)" />
	<circle cx="287.318" cy="273.616" r="5.45455" fill="rgb(11,11,11)" />
	<circle cx="649.925" cy="374.773" r="2.63158" fill="rgb(127,127,127)" />
	<circle cx="650.456" cy="539.192" r="2.89855" fill="rgb(108,108,108)" />
	<circle cx="238.475" cy="533.83" r="2.57511" fill="rgb(144,144,144)" />
	<circle cx="431.204" cy="8.42795" r="2.98507" fill="rgb(101,101,101)" />
	<circle cx="59.9178" cy="124.811" r="2.87081" fill="rgb(109,109,109)" />
	<circle cx="214.56" cy="535.914" r="2.53165" fill="rgb(140,140,140)" />
	<circle cx="8.56852" cy="242.924" r="2.63158" fill="rgb(128,128,128)" />
	<circle cx="377.969" cy="384.216" r="6" fill="rgb(0,0,0)" />
	<circle cx="240.44" cy="434.279" r="2.52101" fill="rgb(144,144,144)" />
	<circle cx="342.029" cy="586.378" r="2.88462" fill="rgb(92,92,92)" />
	<circle cx="76.5369" cy="200.478" r="2.05479" fill="rgb(250,250,250)" />
	<circle cx="633.707" cy="191.56" r="3.01508" fill="rgb(102,102,102)" />
	<circle cx="45.125" cy="160.163" r="2.83019" fill="rgb(113,113,113)" />
	<circle cx="154.78" cy="286.035" r="2.04778" fill="rgb(213,213,213)" />
	<circle cx="212.5" cy="364.049" r="2.27273" fill="rgb(159,159,159)" />
	<circle cx="310.163" cy="277.741" r="3.92157" fill="rgb(34,34,34)" />
	<circle cx="205.005" cy="61.8871" r="2.72727" fill="rgb(121,121,121)" />
	<circle cx="178.193" cy="45.6676" r="2.76498" fill="rgb(117,117,117)" />
	<circle cx="430.657" cy="199.364" r="2.06186" fill="rgb(193,193,193)" />
	<circle cx="325.23" cy="511.354" r="2.98507" fill="rgb(108,108,108)" />
	<circle cx="201.775" cy="470.192" r="2.25564" fill="rgb(181,181,181)" />
	<circle cx="399.281" cy="385.307" r="5.94059" fill="rgb(0,0,0)" />
	<circle cx="298.472" cy="420.032" r="2.23881" fill="rgb(182,182,182)" />
	<circle cx="446.074" cy="47.3551" r="2.87081" fill="rgb(110,110,110)" />
	<circle cx="405.169" cy="422.233" r="4.87805" fill="rgb(16,16,16)" />
	<circle cx="5.48431" cy="28.0787" r="3.09278" fill="rgb(94,94,94)" />
	<circle cx="140.589" cy="146.503" r="1.91693" fill="rgb(255,255,255)" />
	<circle cx="384.429" cy="396.579" r="6" fill="rgb(0,0,0)" />
	<circle cx="206.246" cy="214.221" r="2.8436" fill="rgb(118,118,118)" />
	<circle cx="204.422" cy="232.536" r="2.76498" fill="rgb(118,118,118)" />
	<circle cx="408.099" cy="497.422" r="2.66667" fill="rgb(122,122,122)" />
	<circle cx="44.653" cy="179.156" r="2.76498" fill="rgb(117,117,117)" />
	<circle cx="434.495" cy="479.448" r="2.4" fill="rgb(152,152,152)" />
	<circle cx="273.033" cy="265.104" r="2.98507" fill="rgb(157,157,157)" />
	<circle cx="264.082" cy="561.403" r="2.7907" fill="rgb(110,110,110)" />
	<circle cx="408.105" cy="220.059" r="2.37154" fill="rgb(163,163,163)" />
	<circle cx="421.283" cy="252.456" r="3.37079" fill="rgb(84,84,84)" />
	<circle cx="545.872" cy="588.587" r="3.01508" fill="rgb(100,100,100)" />
	<circle cx="569.632" cy="430.265" r="2.66667" fill="rgb(124,124,124)" />
	<circle cx="416.088" cy="385.49" r="4.08163" fill="rgb(26,26,26)" />
	<circle cx="474.319" cy="58.2641" r="2.91262" fill="rgb(105,105,105)" />
	<circle cx="222.953" cy="486.123" r="2.42915" fill="rgb(158,158,158)" />
	<circle cx="350.361" cy="258.763" r="2.24719" fill="rgb(167,167,167)" />
	<circle cx="24.556" cy="48.765" r="3" fill="rgb(99,99,99)" />
	<circle cx="338.533" cy="219.336" r="2.26415" fill="rgb(174,174,174)" />
	<circle cx="574.288" cy="6.64483" r="3.42857" fill="rgb(74,74,74)" />
	<circle cx="432.316" cy="260.705" r="5.35714" fill="rgb(12,12,12)" />
	<circle cx="28.7138" cy="493.297" r="2.38095" fill="rgb(153,153,153)" />
	<circle cx="244.63" cy="403.113" r="2.4" fill="rgb(157,157,157)" />
	<circle cx="123.1" cy="27.1354" r="2.8436" fill="rgb(111,111,111)" />
	<circle cx="7.10512" cy="5.34209" r="3.15789" fill="rgb(89,89,89)" />
	<circle cx="282.015" cy="287.095" r="5.66038" fill="rgb(5,5,5)" />
	<circle cx="386.062" cy="213.39" r="2.29008" fill="rgb(157,157,157)" />
	<circle cx="576.578" cy="500.747" r="2.83019" fill="rgb(112,112,112)" />
	<circle cx="10.5411" cy="313.73" r="2.45902" fill="rgb(143,143,143)" />
	<circle cx="64.7256" cy="511.496" r="1.86916" fill="rgb(253,253,253)" />
	<circle cx="579.376" cy="106.358" r="3.20856" fill="rgb(88,88,88)" />
	<circle cx="9.53447" cy="290.004" r="2.52101" fill="rgb(138,138,138)" />
	<circle cx="400.322" cy="198.155" r="2.21402" fill="rgb(187,187,187)" />
	<circle cx="209.162" cy="9.63015" r="2.87081" fill="rgb(108,108,108)" />
	<circle cx="372.773" cy="466.474" r="2.8169" fill="rgb(126,126,126)" />
	<circle cx="630.009" cy="392.78" r="2.62009" fill="rgb(129,129,129)" />
	<circle cx="356.191" cy="532.321" r="2.94118" fill="rgb(107,107,107)" />
	<circle cx="110.865" cy="589.345" r="2.22222" fill="rgb(161,161,161)" />
	<circle cx="601.753" cy="511.262" r="2.85714" fill="rgb(111,111,111)" />
	<circle cx="7.27266" cy="144.064" r="2.98507" fill="rgb(102,102,102)" />
	<circle cx="459.317" cy="273.097" r="4.51128" fill="rgb(8,8,8)" />
	<circle cx="556.725" cy="381.437" r="2.39044" fill="rgb(151,151,151)" />
	<circle cx="179.017" cy="73.5973" r="2.71493" fill="rgb(122,122,122)" />
	<circle cx="368.291" cy="397.253" r="6" fill="rgb(0,0,0)" />
	<circle cx="225.192" cy="217.947" r="2.04082" fill="rgb(213,213,213)" />
	<circle cx="79.0636" cy="103.348" r="2.83019" fill="rgb(113,113,113)" />
	<circle cx="177.073" cy="244.871" r="1.99336" fill="rgb(227,227,227)" />
	<circle cx="524.691" cy="589.102" r="2.66667" fill="rgb(125,125,125)" />
	<circle cx="362.309" cy="487.348" r="3.07692" fill="rgb(98,98,98)" />
	<circle cx="563.871" cy="454.168" r="2.8169" fill="rgb(111,111,111)" />
	<circle cx="177.891" cy="543.246" r="2.32558" fill="rgb(158,158,158)" />
	<circle cx="53.4512" cy="297.252" r="2.45902" fill="rgb(142,142,142)" />
	<circle cx="303.315" cy="9.73008" r="2.91262" fill="rgb(106,106,106)" />
	<circle cx="56.7095" cy="78.8753" r="2.87081" fill="rgb(110,110,110)" />
	<circle cx="555.814" cy="531.123" r="2.72727" fill="rgb(119,119,119)" />
	<circle cx="199.001" cy="195.854" r="2.48963" fill="rgb(135,135,135)" />
	<circle cx="368.069" cy="585.539" r="2.88462" fill="rgb(101,101,101)" />
	<circle cx="366.288" cy="30.867" r="2.83019" fill="rgb(114,114,114)" />
	<circle cx="20.9671" cy="32.8491" r="3.0303" fill="rgb(97,97,97)" />
	<circle cx="34.9361" cy="368.807" r="2.32558" fill="rgb(159,159,159)" />
	<circle cx="241.022" cy="586.219" r="2.80374" fill="rgb(116,116,116)" />
	<circle cx="428.29" cy="222.413" r="2.47934" fill="rgb(153,153,153)" />
	<circle cx="285.458" cy="552.192" r="2.8169" fill="rgb(121,121,121)" />
	<circle cx="632.914" cy="221.567" r="2.89855" fill="rgb(108,108,108)" />
	<circle cx="6.4937" cy="77.1233" r="3.01508" fill="rgb(101,101,101)" />
	<circle cx="305.522" cy="528.546" r="3.01508" fill="rgb(90,90,90)" />
	<circle cx="600.393" cy="94.0225" r="3.27869" fill="rgb(83,83,83)" />
	<circle cx="77.8585" cy="143.515" r="2.80374" fill="rgb(115,115,115)" />
	<circle cx="498.44" cy="170.638" r="2.76498" fill="rgb(99,99,99)" />
	<circle cx="352.343" cy="414.628" r="3.94737" fill="rgb(54,54,54)" />
	<circle cx="261.927" cy="508.287" r="2.73973" fill="rgb(121,121,121)" />
	<circle cx="108.252" cy="7.43474" r="2.89855" fill="rgb(107,107,107)" />
	<circle cx="622.434" cy="134.243" r="3.24324" fill="rgb(86,86,86)" />
	<circle cx="57.9694" cy="408.179" r="2.33463" fill="rgb(159,159,159)" />
	<circle cx="87.194" cy="126.275" r="2.80374" fill="rgb(115,115,115)" />
	<circle cx="499.678" cy="185.723" r="2.69058" fill="rgb(126,126,126)" />
	<circle cx="626.592" cy="30.1026" r="3.50877" fill="rgb(71,71,71)" />
	<circle cx="561.76" cy="356.163" r="2.44898" fill="rgb(138,138,138)" />
	<circle cx="331.039" cy="420.503" r="2.72727" fill="rgb(124,124,124)" />
	<circle cx="233.676" cy="98.8956" r="1.88679" fill="rgb(253,253,253)" />
	<circle cx="46.4704" cy="223.106" r="2.6087" fill="rgb(127,127,127)" />
	<circle cx="43.1064" cy="43.1541" r="2.9703" fill="rgb(102,102,102)" />
	<circle cx="455.156" cy="260.297" r="5.66038" fill="rgb(4,4,4)" />
	<circle cx="317.33" cy="201.864" r="2.12766" fill="rgb(161,161,161)" />
	<circle cx="362.996" cy="213.791" r="2.21402" fill="rgb(187,187,187)" />
	<circle cx="292.754" cy="468.192" r="3" fill="rgb(103,103,103)" />
	<circle cx="579.551" cy="399.708" r="2.54237" fill="rgb(138,138,138)" />
	<circle cx="185.366" cy="8.61936" r="2.85714" fill="rgb(110,110,110)" />
	<circle cx="226.299" cy="183.903" r="2.02703" fill="rgb(222,222,222)" />
	<circle cx="276.855" cy="247.902" r="2.30769" fill="rgb(167,167,167)" />
	<circle cx="574.9" cy="558.302" r="2.88462" fill="rgb(110,110,110)" />
	<circle cx="77.1607" cy="79.221" r="2.8169" fill="rgb(115,115,115)" />
	<circle cx="648.789" cy="581.224" r="2.91262" fill="rgb(107,107,107)" />
	<circle cx="63.1292" cy="326.395" r="2.35294" fill="rgb(154,154,154)" />
	<circle cx="606.387" cy="48.4112" r="3.40909" fill="rgb(75,75,75)" />
	<circle cx="7.51571" cy="159.429" r="2.92683" fill="rgb(107,107,107)" />
	<circle cx="649.716" cy="110.074" r="3.35196" fill="rgb(80,80,80)" />
	<circle cx="471.742" cy="196.399" r="1.92926" fill="rgb(224,224,224)" />
	<circle cx="210.036" cy="161.96" r="2.76498" fill="rgb(123,123,123)" />
	<circle cx="512.208" cy="7.62514" r="3.22581" fill="rgb(86,86,86)" />
	<circle cx="215.893" cy="510.673" r="2.38095" fill="rgb(160,160,160)" />
	<circle cx="154.804" cy="8.38694" r="2.8436" fill="rgb(111,111,111)" />
	<circle cx="19.5675" cy="101.16" r="2.9703" fill="rgb(101,101,101)" />
	<circle cx="72.2524" cy="357.427" r="2.27273" fill="rgb(164,164,164)" />
	<circle cx="193.881" cy="527.156" r="2.40964" fill="rgb(152,152,152)" />
	<circle cx="400.758" cy="466.089" r="2.72727" fill="rgb(146,146,146)" />
	<circle cx="617.713" cy="451.58" r="2.64317" fill="rgb(128,128,128)" />
	<circle cx="652.234" cy="175.534" r="3.14136" fill="rgb(92,92,92)" />
	<circle cx="381.068" cy="9.30942" r="2.89855" fill="rgb(106,106,106)" />
	<circle cx="272.369" cy="461.368" r="2.87081" fill="rgb(118,118,118)" />
	<circle cx="640.651" cy="155.978" r="3.1746" fill="rgb(87,87,87)" />
	<circle cx="127.433" cy="98.5571" r="2.72727" fill="rgb(121,121,121)" />
	<circle cx="122.191" cy="297.872" r="2.23881" fill="rgb(186,186,186)" />
	<circle cx="38.4464" cy="118.179" r="2.94118" fill="rgb(102,102,102)" />
	<circle cx="276.059" cy="36.5444" r="2.80374" fill="rgb(114,114,114)" />
	<circle cx="466.134" cy="261.44" r="4.95868" fill="rgb(7,7,7)" />
	<circle cx="98.3459" cy="22.7225" r="2.88462" fill="rgb(107,107,107)" />
	<circle cx="10.0056" cy="391.536" r="2.4" fill="rgb(151,151,151)" />
	<circle cx="110.145" cy="320.348" r="2.33463" fill="rgb(157,157,157)" />
	<circle cx="8.79815" cy="481.874" r="2.44898" fill="rgb(144,144,144)" />
	<circle cx="344.385" cy="460.296" r="2.77778" fill="rgb(137,137,137)" />
	<circle cx="131.213" cy="8.73082" r="2.85714" fill="rgb(110,110,110)" />
	<circle cx="395.381" cy="358.898" r="3.22581" fill="rgb(99,99,99)" />
	<circle cx="551.027" cy="7.41356" r="3.35196" fill="rgb(79,79,79)" />
	<circle cx="440.242" cy="552.01" r="2.54237" fill="rgb(125,125,125)" />
	<circle cx="260.753" cy="309.08" r="2.37154" fill="rgb(166,166,166)" />
	<circle cx="7.40098" cy="196.382" r="2.77778" fill="rgb(115,115,115)" />
	<circle cx="649.833" cy="88.0664" r="3.38983" fill="rgb(78,78,78)" />
	<circle cx="11.7583" cy="16.6207" r="3.09278" fill="rgb(94,94,94)" />
	<circle cx="651.017" cy="134.014" r="3.27869" fill="rgb(85,85,85)" />
	<circle cx="421.149" cy="266.883" r="3.125" fill="rgb(62,62,62)" />
	<circle cx="330.763" cy="535.199" r="2.87081" fill="rgb(109,109,109)" />
	<circle cx="260.065" cy="202.031" r="1.97368" fill="rgb(207,207,207)" />
	<circle cx="57.1591" cy="101.896" r="2.87081" fill="rgb(109,109,109)" />
	<circle cx="420.609" cy="238.119" r="2.9703" fill="rgb(85,85,85)" />
	<circle cx="597.9" cy="550.673" r="2.94118" fill="rgb(105,105,105)" />
	<circle cx="30.0904" cy="287.866" r="2.5" fill="rgb(139,139,139)" />
	<circle cx="573.844" cy="475.451" r="2.83019" fill="rgb(113,113,113)" />
	<circle cx="127.024" cy="253.944" r="2.28137" fill="rgb(179,179,179)" />
	<circle cx="93.8512" cy="265.088" r="2.22222" fill="rgb(178,178,178)" />
	<circle cx="209.392" cy="199.584" r="2.75229" fill="rgb(122,122,122)" />
	<circle cx="530.853" cy="498.183" r="2.55319" fill="rgb(129,129,129)" />
	<circle cx="507.176" cy="42.6872" r="3.07692" fill="rgb(96,96,96)" />
	<circle cx="616.116" cy="8.79381" r="3.57143" fill="rgb(68,68,68)" />
	<circle cx="22.2384" cy="134.291" r="2.9703" fill="rgb(101,101,101)" />
	<circle cx="209.375" cy="273.684" r="2.54237" fill="rgb(137,137,137)" />
	<circle cx="625.009" cy="250.404" r="2.7907" fill="rgb(114,114,114)" />
	<circle cx="391.513" cy="374.309" r="5.94059" fill="rgb(0,0,0)" />
	<circle cx="496.853" cy="304.172" r="2.37154" fill="rgb(168,168,168)" />
	<circle cx="20.6002" cy="118.049" r="2.9703" fill="rgb(103,103,103)" />
	<circle cx="256.352" cy="274.097" r="2.8436" fill="rgb(140,140,140)" />
	<circle cx="527.335" cy="51.11" r="3.125" fill="rgb(93,93,93)" />
	<circle cx="369.284" cy="412.534" r="5.71429" fill="rgb(0,0,0)" />
	<circle cx="434.195" cy="248.145" r="4.51128" fill="rgb(25,25,25)" />
	<circle cx="566.561" cy="585.629" r="3.09278" fill="rgb(94,94,94)" />
	<circle cx="315.261" cy="245.866" r="2.5" fill="rgb(137,137,137)" />
	<circle cx="240.626" cy="559.513" r="2.75229" fill="rgb(126,126,126)" />
	<circle cx="194.736" cy="497.382" r="2.28137" fill="rgb(166,166,166)" />
	<circle cx="299.065" cy="486.073" r="3.0303" fill="rgb(103,103,103)" />
	<circle cx="60.7237" cy="151.118" r="2.8169" fill="rgb(115,115,115)" />
	<circle cx="621.765" cy="304.526" r="2.66667" fill="rgb(124,124,124)" />
	<circle cx="209.381" cy="186.576" r="3.04569" fill="rgb(93,93,93)" />
	<circle cx="78.3752" cy="304.701" r="2.40964" fill="rgb(150,150,150)" />
	<circle cx="253.103" cy="41.544" r="2.7907" fill="rgb(115,115,115)" />
	<circle cx="617.672" cy="363.815" r="2.65487" fill="rgb(126,126,126)" />
	<circle cx="284.1" cy="501.871" r="3.01508" fill="rgb(96,96,96)" />
	<circle cx="483.619" cy="331.235" r="2.15827" fill="rgb(163,163,163)" />
	<circle cx="7.47854" cy="176.409" r="2.85714" fill="rgb(111,111,111)" />
	<circle cx="581.265" cy="233.446" r="2.3166" fill="rgb(158,158,158)" />
	<circle cx="276.04" cy="333.468" r="2.18182" fill="rgb(161,161,161)" />
	<circle cx="311.157" cy="261.94" r="3.09278" fill="rgb(99,99,99)" />
	<circle cx="10.6049" cy="533.213" r="2.48963" fill="rgb(139,139,139)" />
	<circle cx="9.62266" cy="458.02" r="2.48963" fill="rgb(142,142,142)" />
	<circle cx="438.336" cy="235.18" r="2.98507" fill="rgb(97,97,97)" />
	<circle cx="320.36" cy="30.8197" r="2.8436" fill="rgb(112,112,112)" />
	<circle cx="233.074" cy="8.58857" r="2.88462" fill="rgb(108,108,108)" />
	<circle cx="121.188" cy="272.278" r="2.35294" fill="rgb(139,139,139)" />
	<circle cx="130.594" cy="570.719" r="2.23881" fill="rgb(168,168,168)" />
	<circle cx="238.145" cy="338.479" r="2.18182" fill="rgb(185,185,185)" />
	<circle cx="596.957" cy="69.1502" r="3.31492" fill="rgb(82,82,82)" />
	<circle cx="172.804" cy="512.571" r="2.20588" fill="rgb(184,184,184)" />
	<circle cx="202.33" cy="33.0857" r="2.7907" fill="rgb(115,115,115)" />
	<circle cx="549.2" cy="53.2356" r="3.20856" fill="rgb(86,86,86)" />
	<circle cx="385.375" cy="412.224" r="6" fill="rgb(0,0,0)" />
	<circle cx="648.792" cy="460.367" r="2.66667" fill="rgb(126,126,126)" />
	<circle cx="70.2475" cy="276.298" r="2.47934" fill="rgb(142,142,142)" />
	<circle cx="62.4874" cy="382.137" r="2.29008" fill="rgb(161,161,161)" />
	<circle cx="603.462" cy="27.0953" r="3.46821" fill="rgb(74,74,74)" />
	<circle cx="371.685" cy="78.2028" r="1.84049" fill="rgb(255,255,255)" />
	<circle cx="228.119" cy="27.8694" r="2.83019" fill="rgb(113,113,113)" />
	<circle cx="386.304" cy="427.244" r="5.55556" fill="rgb(9,9,9)" />
	<circle cx="493.029" cy="160.244" r="2.46914" fill="rgb(154,154,154)" />
	<circle cx="83.3157" cy="9.18346" r="2.95567" fill="rgb(103,103,103)" />
	<circle cx="54.9121" cy="29.4127" r="2.95567" fill="rgb(103,103,103)" />
	<circle cx="283.778" cy="524.456" r="2.91262" fill="rgb(110,110,110)" />
	<circle cx="621.81" cy="333.024" r="2.64317" fill="rgb(128,128,128)" />
	<circle cx="321.314" cy="488.263" r="3.09278" fill="rgb(106,106,106)" />
	<circle cx="270.542" cy="483.145" r="2.87081" fill="rgb(128,128,128)" />
	<circle cx="452.538" cy="378.196" r="2.0339" fill="rgb(229,229,229)" />
	<circle cx="473.247" cy="230.72" r="2.04082" fill="rgb(228,228,228)" />
	<circle cx="508.747" cy="234.899" r="2.76498" fill="rgb(112,112,112)" />
	<circle cx="479.319" cy="271.004" r="2.52101" fill="rgb(175,175,175)" />
	<circle cx="152.712" cy="563.457" r="2.4" fill="rgb(173,173,173)" />
	<circle cx="129.509" cy="548.08" r="2.12014" fill="rgb(185,185,185)" />
	<circle cx="166.852" cy="481.595" r="2.04082" fill="rgb(190,190,190)" />
	<circle cx="456.292" cy="248.303" r="2.87081" fill="rgb(157,157,157)" />
	<circle cx="650.646" cy="46.314" r="3.52941" fill="rgb(71,71,71)" />
	<circle cx="404.224" cy="258.241" r="2.47934" fill="rgb(149,149,149)" />
	<circle cx="11.7406" cy="510.296" r="2.39044" fill="rgb(151,151,151)" />
	<circle cx="651.387" cy="27.1407" r="3.61446" fill="rgb(66,66,66)" />
	<circle cx="531.729" cy="542.29" r="2.54237" fill="rgb(138,138,138)" />
	<circle cx="185.586" cy="298.148" r="2.65487" fill="rgb(119,119,119)" />
	<circle cx="194.792" cy="264.228" r="3.10881" fill="rgb(88,88,88)" />
	<circle cx="149.11" cy="30.3971" r="2.7907" fill="rgb(116,116,116)" />
	<circle cx="434.102" cy="273.345" r="4.65116" fill="rgb(14,14,14)" />
	<circle cx="9.54038" cy="414.58" r="2.44898" fill="rgb(145,145,145)" />
	<circle cx="507.385" cy="208.048" r="3.07692" fill="rgb(40,40,40)" />
	<circle cx="595.641" cy="287.423" r="2.65487" fill="rgb(125,125,125)" />
	<circle cx="391.283" cy="31.0506" r="2.8436" fill="rgb(110,110,110)" />
	<circle cx="121.277" cy="71.238" r="2.76498" fill="rgb(117,117,117)" />
	<circle cx="484.883" cy="443.249" r="1.96078" fill="rgb(251,251,251)" />
	<circle cx="545.126" cy="32.1516" r="3.26087" fill="rgb(84,84,84)" />
	<circle cx="372.015" cy="189.872" r="2.01342" fill="rgb(204,204,204)" />
	<circle cx="173.639" cy="587.277" r="2.53165" fill="rgb(148,148,148)" />
	<circle cx="291.466" cy="446.332" r="2.62009" fill="rgb(141,141,141)" />
	<circle cx="383.097" cy="526.316" r="2.92683" fill="rgb(117,117,117)" />
	<circle cx="360.003" cy="236.389" r="2.27273" fill="rgb(171,171,171)" />
	<circle cx="624.42" cy="105.415" r="3.2967" fill="rgb(81,81,81)" />
	<circle cx="370.744" cy="445.053" r="3.97351" fill="rgb(66,66,66)" />
	<circle cx="530.65" cy="520.138" r="2.57511" fill="rgb(135,135,135)" />
	<circle cx="586.675" cy="370.031" r="2.54237" fill="rgb(136,136,136)" />
	<circle cx="484.306" cy="139.683" r="2.3166" fill="rgb(173,173,173)" />
	<circle cx="500.333" cy="63.0706" r="2.98507" fill="rgb(101,101,101)" />
	<circle cx="336.076" cy="241.366" r="2.41935" fill="rgb(148,148,148)" />
	<circle cx="291.086" cy="211.92" r="2.09059" fill="rgb(186,186,186)" />
	<circle cx="213.792" cy="170.28" r="2.75229" fill="rgb(109,109,109)" />
	<circle cx="8.77568" cy="266.886" r="2.5641" fill="rgb(134,134,134)" />
	<circle cx="368.048" cy="429.114" r="4.87805" fill="rgb(31,31,31)" />
	<circle cx="459.15" cy="8.71448" r="3.04569" fill="rgb(98,98,98)" />
	<circle cx="6.35719" cy="129.119" r="3.01508" fill="rgb(99,99,99)" />
	<circle cx="505.23" cy="218.39" r="2.85714" fill="rgb(97,97,97)" />
	<circle cx="327.141" cy="264.837" r="2.54237" fill="rgb(135,135,135)" />
	<circle cx="407.181" cy="10.2357" r="2.92683" fill="rgb(105,105,105)" />
	<circle cx="247.727" cy="484.136" r="2.63158" fill="rgb(136,136,136)" />
	<circle cx="383.668" cy="232.537" r="2.3622" fill="rgb(156,156,156)" />
	<circle cx="7.44258" cy="218.852" r="2.69058" fill="rgb(123,123,123)" />
	<circle cx="32.8508" cy="393.419" r="2.34375" fill="rgb(157,157,157)" />
	<circle cx="135.167" cy="372.55" r="1.89873" fill="rgb(254,254,254)" />
	<circle cx="222.745" cy="418.168" r="2.34375" fill="rgb(155,155,155)" />
	<circle cx="623.239" cy="277.071" r="2.72727" fill="rgb(120,120,120)" />
	<circle cx="279.121" cy="10.5529" r="2.88462" fill="rgb(108,108,108)" />
	<circle cx="410.833" cy="368.593" r="3.5503" fill="rgb(26,26,26)" />
	<circle cx="544.64" cy="435.264" r="2.53165" fill="rgb(136,136,136)" />
	<circle cx="511.565" cy="130.759" r="1.89873" fill="rgb(255,255,255)" />
	<circle cx="185.294" cy="449.294" r="2.06897" fill="rgb(194,194,194)" />
	<circle cx="6.4306" cy="583.595" r="2.47934" fill="rgb(142,142,142)" />
	<circle cx="358.108" cy="559.093" r="2.8436" fill="rgb(108,108,108)" />
	<circle cx="534.454" cy="477.074" r="2.63158" fill="rgb(126,126,126)" />
	<circle cx="39.6897" cy="343.998" r="2.32558" fill="rgb(159,159,159)" />
	<circle cx="348.402" cy="376.615" r="3.38983" fill="rgb(72,72,72)" />
	<circle cx="31.4062" cy="470.192" r="2.41935" fill="rgb(149,149,149)" />
	<circle cx="232.979" cy="255.283" r="2.02703" fill="rgb(218,218,218)" />
	<circle cx="213.817" cy="443.12" r="2.42915" fill="rgb(132,132,132)" />
	<circle cx="575.815" cy="334.245" r="2.52101" fill="rgb(139,139,139)" />
	<circle cx="95.9823" cy="292.194" r="2.40964" fill="rgb(147,147,147)" />
	<circle cx="106.712" cy="239.324" r="2.17391" fill="rgb(165,165,165)" />
	<circle cx="600.201" cy="121.204" r="3.22581" fill="rgb(86,86,86)" />
	<circle cx="7.34034" cy="43.0649" r="3.01508" fill="rgb(99,99,99)" />
	<circle cx="131.64" cy="590.455" r="2.3622" fill="rgb(166,166,166)" />
	<circle cx="600.327" cy="177.221" r="2.12014" fill="rgb(252,252,252)" />
	<circle cx="266.526" cy="281.331" r="5.30973" fill="rgb(20,20,20)" />
	<circle cx="202.458" cy="249.11" r="2.83019" fill="rgb(103,103,103)" />
	<circle cx="45.2927" cy="9.02531" r="3.01508" fill="rgb(101,101,101)" />
	<circle cx="328.23" cy="9.36676" r="2.91262" fill="rgb(104,104,104)" />
	<circle cx="649.699" cy="421.229" r="2.53165" fill="rgb(139,139,139)" />
	<circle cx="450.598" cy="584.601" r="2.48963" fill="rgb(142,142,142)" />
	<circle cx="443.128" cy="255.873" r="4.95868" fill="rgb(8,8,8)" />
	<circle cx="24.4585" cy="187.371" r="2.77778" fill="rgb(116,116,116)" />
	<circle cx="596.282" cy="8.2523" r="3.50877" fill="rgb(70,70,70)" />
	<circle cx="413.571" cy="402.43" r="4.58015" fill="rgb(17,17,17)" />
	<circle cx="92.5365" cy="337.723" r="2.28137" fill="rgb(165,165,165)" />
	<circle cx="573.867" cy="251.766" r="2.38095" fill="rgb(162,162,162)" />
	<circle cx="66.2236" cy="54.3327" r="2.85714" fill="rgb(110,110,110)" />
	<circle cx="24.8286" cy="168.208" r="2.85714" fill="rgb(111,111,111)" />
	<circle cx="105.935" cy="564.135" r="2.02703" fill="rgb(193,193,193)" />
	<circle cx="276.479" cy="277.15" r="5.04202" fill="rgb(3,3,3)" />
	<circle cx="27.9863" cy="441.296" r="2.46914" fill="rgb(141,141,141)" />
	<circle cx="26.4175" cy="259.99" r="2.55319" fill="rgb(132,132,132)" />
	<circle cx="5.82374" cy="113.11" r="3" fill="rgb(100,100,100)" />
	<circle cx="522.159" cy="342.493" r="2.08333" fill="rgb(229,229,229)" />
	<circle cx="266.263" cy="290.702" r="4.41176" fill="rgb(21,21,21)" />
	<circle cx="554.315" cy="481.642" r="2.80374" fill="rgb(116,116,116)" />
	<circle cx="47.7613" cy="455.06" r="2.40964" fill="rgb(152,152,152)" />
	<circle cx="289.42" cy="583.521" r="2.89855" fill="rgb(105,105,105)" />
	<circle cx="564.633" cy="221.85" r="2.13523" fill="rgb(187,187,187)" />
	<circle cx="403.078" cy="239.627" r="2.5974" fill="rgb(138,138,138)" />
	<circle cx="155.069" cy="539.406" r="2.18978" fill="rgb(192,192,192)" />
	<circle cx="380.486" cy="254.527" r="2.23881" fill="rgb(182,182,182)" />
	<circle cx="266.608" cy="417.811" r="2.38095" fill="rgb(168,168,168)" />
	<circle cx="527.836" cy="388.509" r="2.12766" fill="rgb(161,161,161)" />
	<circle cx="548.189" cy="75.0574" r="3.14136" fill="rgb(92,92,92)" />
	<circle cx="245.503" cy="371.081" r="2.15054" fill="rgb(169,169,169)" />
	<circle cx="34.3608" cy="315.907" r="2.40964" fill="rgb(150,150,150)" />
	<circle cx="525.333" cy="28.4022" r="3.19149" fill="rgb(87,87,87)" />
	<circle cx="418.115" cy="33.4621" r="2.85714" fill="rgb(113,113,113)" />
	<circle cx="514.896" cy="268.299" r="3.20856" fill="rgb(81,81,81)" />
	<circle cx="62.2231" cy="252.004" r="2.52101" fill="rgb(139,139,139)" />
</svg>
