<?xml version="1.0" standalone="no" ?>
<!DOCTYPE svg PUBLIC "-//W3C//DTD SVG 1.1//EN" "http://www.w3.org/Graphics/SVG/1.1/DTD/svg11.dtd">
<svg width="664px" height="600px" xmlns="http://www.w3.org/2000/svg" version="1.1" >
	<circle cx="505.932" cy="146" r="2.17391" fill="rgb(255,255,255)" />
	<circle cx="491.569" cy="485.861" r="2.17391" fill="rgb(232,232,232)" />
	<circle cx="422.157" cy="237.282" r="2.8436" fill="rgb(101,101,101)" />
	<circle cx="178.139" cy="30.5524" r="2.80374" fill="rgb(113,113,113)" />
	<circle cx="83.7434" cy="81.8144" r="2.8169" fill="rgb(117,117,117)" />
	<circle cx="370.108" cy="227.42" r="2.29885" fill="rgb(169,169,169)" />
	<circle cx="245.76" cy="267.326" r="2.35294" fill="rgb(162,162,162)" />
	<circle cx="372.67" cy="331.551" r="2.15827" fill="rgb(239,239,239)" />
	<circle cx="239.487" cy="351.774" r="2.23048" fill="rgb(177,177,177)" />
	<circle cx="577.247" cy="395.995" r="2.54237" fill="rgb(143,143,143)" />
	<circle cx="266.737" cy="569.372" r="2.8169" fill="rgb(116,116,116)" />
	<circle cx="636.583" cy="284.71" r="2.73973" fill="rgb(122,122,122)" />
	<circle cx="572.683" cy="563.523" r="2.91262" fill="rgb(109,109,109)" />
	<circle cx="568.788" cy="33.4296" r="3.33333" fill="rgb(80,80,80)" />
	<circle cx="26.4255" cy="391.156" r="2.37154" fill="rgb(156,156,156)" />
	<circle cx="498.635" cy="24.2" r="3.10881" fill="rgb(93,93,93)" />
	<circle cx="399.122" cy="563.616" r="2.77778" fill="rgb(108,108,108)" />
	<circle cx="159.553" cy="274.78" r="2.1978" fill="rgb(242,242,242)" />
	<circle cx="574.745" cy="488.101" r="2.80374" fill="rgb(109,109,109)" />
	<circle cx="323.737" cy="451.554" r="2.76498" fill="rgb(150,150,150)" />
	<circle cx="33.6022" cy="27.3697" r="3.01508" fill="rgb(102,102,102)" />
	<circle cx="145.093" cy="392.656" r="2.0339" fill="rgb(255,255,255)" />
	<circle cx="364.783" cy="422.752" r="4.6875" fill="rgb(15,15,15)" />
	<circle cx="197.719" cy="571.672" r="2.5974" fill="rgb(123,123,123)" />
	<circle cx="448.066" cy="260.142" r="4.6875" fill="rgb(2,2,2)" />
	<circle cx="35.5199" cy="306.16" r="2.42915" fill="rgb(147,147,147)" />
	<circle cx="309.144" cy="244.878" r="2.51046" fill="rgb(135,135,135)" />
	<circle cx="329.955" cy="569.289" r="2.85714" fill="rgb(117,117,117)" />
	<circle cx="254.426" cy="19.9618" r="2.85714" fill="rgb(111,111,111)" />
	<circle cx="65.8888" cy="523.658" r="2.06186" fill="rgb(251,251,251)" />
	<circle cx="632.255" cy="30.1672" r="3.52941" fill="rgb(70,70,70)" />
	<circle cx="401.688" cy="422.969" r="4.95868" fill="rgb(28,28,28)" />
	<circle cx="632.507" cy="567.63" r="2.91262" fill="rgb(113,113,113)" />
	<circle cx="629.98" cy="435.068" r="2.6087" fill="rgb(133,133,133)" />
	<circle cx="27.2145" cy="88.039" r="2.95567" fill="rgb(104,104,104)" />
	<circle cx="25.3121" cy="147.014" r="2.91262" fill="rgb(105,105,105)" />
	<circle cx="488.34" cy="280.233" r="2.57511" fill="rgb(159,159,159)" />
	<circle cx="109.05" cy="29.1144" r="2.85714" fill="rgb(110,110,110)" />
	<circle cx="230.436" cy="509.714" r="2.5" fill="rgb(154,154,154)" />
	<circle cx="632.598" cy="94.1536" r="3.33333" fill="rgb(82,82,82)" />
	<circle cx="632.624" cy="355.242" r="2.65487" fill="rgb(124,124,124)" />
	<circle cx="156.862" cy="154.06" r="2.08333" fill="rgb(251,251,251)" />
	<circle cx="346.049" cy="513.108" r="3.0303" fill="rgb(98,98,98)" />
	<circle cx="20.1947" cy="225.087" r="2.65487" fill="rgb(127,127,127)" />
	<circle cx="365.885" cy="386.88" r="5.30973" fill="rgb(3,3,3)" />
	<circle cx="395.747" cy="387.666" r="5.94059" fill="rgb(0,0,0)" />
	<circle cx="291.288" cy="505.59" r="2.9703" fill="rgb(95,95,95)" />
	<circle cx="253.727" cy="444.418" r="2.57511" fill="rgb(136,136,136)" />
	<circle cx="393.401" cy="479.984" r="2.8169" fill="rgb(138,138,138)" />
	<circle cx="633.142" cy="504.1" r="2.87081" fill="rgb(107,107,107)" />
</svg>
