<?xml version="1.0" standalone="no" ?>
<!DOCTYPE svg PUBLIC "-//W3C//DTD SVG 1.1//EN" "http://www.w3.org/Graphics/SVG/1.1/DTD/svg11.dtd">
<svg width="640px" height="480px" xmlns="http://www.w3.org/2000/svg" version="1.1" >
	<circle cx="129" cy="330" r="5" fill="rgb(175,175,175)" />
	<circle cx="262" cy="128" r="5" fill="rgb(67,67,67)" />
	<circle cx="111" cy="191" r="5" fill="rgb(101,101,101)" />
	<circle cx="492" cy="96" r="5" fill="rgb(50,50,50)" />
	<circle cx="453" cy="116" r="5" fill="rgb(61,61,61)" />
	<circle cx="627" cy="366" r="5" fill="rgb(194,194,194)" />
	<circle cx="386" cy="109" r="5" fill="rgb(57,57,57)" />
	<circle cx="29" cy="230" r="5" fill="rgb(122,122,122)" />
	<circle cx="97" cy="47" r="5" fill="rgb(24,24,24)" />
	<circle cx="230" cy="148" r="5" fill="rgb(78,78,78)" />
	<circle cx="472" cy="233" r="5" fill="rgb(123,123,123)" />
	<circle cx="295" cy="182" r="5" fill="rgb(96,96,96)" />
	<circle cx="246" cy="77" r="5" fill="rgb(40,40,40)" />
	<circle cx="473" cy="108" r="5" fill="rgb(57,57,57)" />
	<circle cx="317" cy="408" r="5" fill="rgb(216,216,216)" />
	<circle cx="434" cy="299" r="5" fill="rgb(158,158,158)" />
	<circle cx="386" cy="8" r="5" fill="rgb(4,4,4)" />
	<circle cx="17" cy="388" r="5" fill="rgb(206,206,206)" />
	<circle cx="53" cy="24" r="5" fill="rgb(12,12,12)" />
	<circle cx="36" cy="172" r="5" fill="rgb(91,91,91)" />
	<circle cx="367" cy="22" r="5" fill="rgb(11,11,11)" />
	<circle cx="266" cy="343" r="5" fill="rgb(182,182,182)" />
	<circle cx="177" cy="79" r="5" fill="rgb(41,41,41)" />
	<circle cx="343" cy="124" r="5" fill="rgb(65,65,65)" />
	<circle cx="210" cy="111" r="5" fill="rgb(58,58,58)" />
	<circle cx="354" cy="375" r="5" fill="rgb(199,199,199)" />
	<circle cx="74" cy="139" r="5" fill="rgb(73,73,73)" />
	<circle cx="160" cy="58" r="5" fill="rgb(30,30,30)" />
	<circle cx="366" cy="71" r="5" fill="rgb(38,38,38)" />
	<circle cx="382" cy="383" r="5" fill="rgb(203,203,203)" />
	<circle cx="177" cy="6" r="5" fill="rgb(3,3,3)" />
	<circle cx="221" cy="232" r="5" fill="rgb(123,123,123)" />
	<circle cx="477" cy="311" r="5" fill="rgb(165,165,165)" />
	<circle cx="164" cy="19" r="5" fill="rgb(10,10,10)" />
	<circle cx="209" cy="250" r="5" fill="rgb(132,132,132)" />
	<circle cx="471" cy="83" r="5" fill="rgb(44,44,44)" />
	<circle cx="425" cy="415" r="5" fill="rgb(220,220,220)" />
	<circle cx="124" cy="128" r="5" fill="rgb(67,67,67)" />
	<circle cx="23" cy="34" r="5" fill="rgb(18,18,18)" />
	<circle cx="113" cy="66" r="5" fill="rgb(35,35,35)" />
	<circle cx="630" cy="150" r="5" fill="rgb(79,79,79)" />
	<circle cx="607" cy="71" r="5" fill="rgb(38,38,38)" />
	<circle cx="626" cy="423" r="5" fill="rgb(225,225,225)" />
	<circle cx="328" cy="155" r="5" fill="rgb(82,82,82)" />
	<circle cx="562" cy="328" r="5" fill="rgb(174,174,174)" />
	<circle cx="410" cy="383" r="5" fill="rgb(203,203,203)" />
	<circle cx="538" cy="288" r="5" fill="rgb(152,152,152)" />
	<circle cx="437" cy="37" r="5" fill="rgb(19,19,19)" />
	<circle cx="92" cy="328" r="5" fill="rgb(174,174,174)" />
	<circle cx="94" cy="89" r="5" fill="rgb(47,47,47)" />
	<circle cx="227" cy="296" r="5" fill="rgb(157,157,157)" />
	<circle cx="419" cy="8" r="5" fill="rgb(4,4,4)" />
	<circle cx="98" cy="136" r="5" fill="rgb(72,72,72)" />
	<circle cx="526" cy="42" r="5" fill="rgb(22,22,22)" />
	<circle cx="41" cy="310" r="5" fill="rgb(164,164,164)" />
	<circle cx="68" cy="414" r="5" fill="rgb(219,219,219)" />
	<circle cx="8" cy="44" r="5" fill="rgb(23,23,23)" />
	<circle cx="503" cy="186" r="5" fill="rgb(98,98,98)" />
	<circle cx="486" cy="285" r="5" fill="rgb(151,151,151)" />
	<circle cx="51" cy="272" r="5" fill="rgb(144,144,144)" />
	<circle cx="229" cy="107" r="5" fill="rgb(56,56,56)" />
	<circle cx="572" cy="308" r="5" fill="rgb(163,163,163)" />
	<circle cx="148" cy="171" r="5" fill="rgb(90,90,90)" />
	<circle cx="414" cy="453" r="5" fill="rgb(240,240,240)" />
	<circle cx="199" cy="309" r="5" fill="rgb(164,164,164)" />
	<circle cx="393" cy="363" r="5" fill="rgb(192,192,192)" />
	<circle cx="608" cy="151" r="5" fill="rgb(80,80,80)" />
	<circle cx="60" cy="65" r="5" fill="rgb(34,34,34)" />
	<circle cx="218" cy="210" r="5" fill="rgb(111,111,111)" />
	<circle cx="587" cy="180" r="5" fill="rgb(95,95,95)" />
	<circle cx="194" cy="43" r="5" fill="rgb(22,22,22)" />
	<circle cx="216" cy="275" r="5" fill="rgb(146,146,146)" />
	<circle cx="10" cy="239" r="5" fill="rgb(126,126,126)" />
	<circle cx="368" cy="127" r="5" fill="rgb(67,67,67)" />
	<circle cx="251" cy="153" r="5" fill="rgb(81,81,81)" />
	<circle cx="350" cy="147" r="5" fill="rgb(78,78,78)" />
	<circle cx="572" cy="56" r="5" fill="rgb(29,29,29)" />
	<circle cx="245" cy="255" r="5" fill="rgb(135,135,135)" />
	<circle cx="411" cy="262" r="5" fill="rgb(139,139,139)" />
	<circle cx="475" cy="259" r="5" fill="rgb(137,137,137)" />
	<circle cx="397" cy="152" r="5" fill="rgb(80,80,80)" />
	<circle cx="333" cy="221" r="5" fill="rgb(117,117,117)" />
	<circle cx="502" cy="22" r="5" fill="rgb(11,11,11)" />
	<circle cx="263" cy="11" r="5" fill="rgb(5,5,5)" />
	<circle cx="592" cy="393" r="5" fill="rgb(208,208,208)" />
	<circle cx="435" cy="102" r="5" fill="rgb(54,54,54)" />
	<circle cx="360" cy="242" r="5" fill="rgb(128,128,128)" />
	<circle cx="387" cy="72" r="5" fill="rgb(38,38,38)" />
	<circle cx="490" cy="36" r="5" fill="rgb(19,19,19)" />
	<circle cx="376" cy="145" r="5" fill="rgb(77,77,77)" />
	<circle cx="518" cy="76" r="5" fill="rgb(40,40,40)" />
	<circle cx="295" cy="28" r="5" fill="rgb(14,14,14)" />
	<circle cx="503" cy="228" r="5" fill="rgb(121,121,121)" />
	<circle cx="501" cy="258" r="5" fill="rgb(137,137,137)" />
	<circle cx="349" cy="45" r="5" fill="rgb(23,23,23)" />
	<circle cx="455" cy="94" r="5" fill="rgb(49,49,49)" />
	<circle cx="422" cy="326" r="5" fill="rgb(173,173,173)" />
	<circle cx="85" cy="384" r="5" fill="rgb(203,203,203)" />
	<circle cx="454" cy="415" r="5" fill="rgb(220,220,220)" />
	<circle cx="171" cy="39" r="5" fill="rgb(21,21,21)" />
	<circle cx="551" cy="21" r="5" fill="rgb(11,11,11)" />
	<circle cx="422" cy="68" r="5" fill="rgb(36,36,36)" />
	<circle cx="344" cy="68" r="5" fill="rgb(36,36,36)" />
	<circle cx="361" cy="200" r="5" fill="rgb(106,106,106)" />
	<circle cx="411" cy="175" r="5" fill="rgb(92,92,92)" />
	<circle cx="195" cy="134" r="5" fill="rgb(71,71,71)" />
	<circle cx="511" cy="353" r="5" fill="rgb(187,187,187)" />
	<circle cx="409" cy="103" r="5" fill="rgb(55,55,55)" />
	<circle cx="36" cy="68" r="5" fill="rgb(36,36,36)" />
	<circle cx="535" cy="128" r="5" fill="rgb(67,67,67)" />
	<circle cx="243" cy="25" r="5" fill="rgb(13,13,13)" />
	<circle cx="245" cy="224" r="5" fill="rgb(118,118,118)" />
	<circle cx="132" cy="8" r="5" fill="rgb(4,4,4)" />
	<circle cx="174" cy="104" r="5" fill="rgb(55,55,55)" />
	<circle cx="475" cy="174" r="5" fill="rgb(92,92,92)" />
	<circle cx="187" cy="227" r="5" fill="rgb(120,120,120)" />
	<circle cx="48" cy="193" r="5" fill="rgb(102,102,102)" />
	<circle cx="204" cy="68" r="5" fill="rgb(36,36,36)" />
	<circle cx="399" cy="35" r="5" fill="rgb(18,18,18)" />
	<circle cx="72" cy="25" r="5" fill="rgb(13,13,13)" />
	<circle cx="11" cy="265" r="5" fill="rgb(140,140,140)" />
	<circle cx="611" cy="23" r="5" fill="rgb(12,12,12)" />
	<circle cx="325" cy="362" r="5" fill="rgb(192,192,192)" />
	<circle cx="557" cy="387" r="5" fill="rgb(205,205,205)" />
	<circle cx="121" cy="170" r="5" fill="rgb(90,90,90)" />
	<circle cx="261" cy="372" r="5" fill="rgb(197,197,197)" />
	<circle cx="192" cy="29" r="5" fill="rgb(15,15,15)" />
	<circle cx="352" cy="171" r="5" fill="rgb(90,90,90)" />
	<circle cx="591" cy="268" r="5" fill="rgb(142,142,142)" />
	<circle cx="446" cy="77" r="5" fill="rgb(40,40,40)" />
	<circle cx="137" cy="191" r="5" fill="rgb(101,101,101)" />
	<circle cx="440" cy="132" r="5" fill="rgb(70,70,70)" />
	<circle cx="288" cy="423" r="5" fill="rgb(225,225,225)" />
	<circle cx="583" cy="288" r="5" fill="rgb(152,152,152)" />
	<circle cx="337" cy="199" r="5" fill="rgb(106,106,106)" />
	<circle cx="90" cy="165" r="5" fill="rgb(87,87,87)" />
	<circle cx="190" cy="270" r="5" fill="rgb(143,143,143)" />
	<circle cx="336" cy="178" r="5" fill="rgb(94,94,94)" />
	<circle cx="531" cy="398" r="5" fill="rgb(211,211,211)" />
	<circle cx="627" cy="129" r="5" fill="rgb(68,68,68)" />
	<circle cx="43" cy="149" r="5" fill="rgb(79,79,79)" />
	<circle cx="358" cy="221" r="5" fill="rgb(117,117,117)" />
	<circle cx="433" cy="174" r="5" fill="rgb(92,92,92)" />
	<circle cx="21" cy="335" r="5" fill="rgb(177,177,177)" />
	<circle cx="485" cy="436" r="5" fill="rgb(231,231,231)" />
	<circle cx="480" cy="398" r="5" fill="rgb(211,211,211)" />
	<circle cx="78" cy="274" r="5" fill="rgb(145,145,145)" />
	<circle cx="30" cy="18" r="5" fill="rgb(9,9,9)" />
	<circle cx="628" cy="218" r="5" fill="rgb(115,115,115)" />
	<circle cx="388" cy="325" r="5" fill="rgb(172,172,172)" />
	<circle cx="508" cy="138" r="5" fill="rgb(73,73,73)" />
	<circle cx="266" cy="88" r="5" fill="rgb(46,46,46)" />
	<circle cx="26" cy="84" r="5" fill="rgb(44,44,44)" />
	<circle cx="479" cy="67" r="5" fill="rgb(35,35,35)" />
	<circle cx="329" cy="49" r="5" fill="rgb(26,26,26)" />
	<circle cx="448" cy="22" r="5" fill="rgb(11,11,11)" />
	<circle cx="206" cy="19" r="5" fill="rgb(10,10,10)" />
	<circle cx="27" cy="125" r="5" fill="rgb(66,66,66)" />
	<circle cx="589" cy="52" r="5" fill="rgb(27,27,27)" />
	<circle cx="155" cy="354" r="5" fill="rgb(188,188,188)" />
	<circle cx="209" cy="150" r="5" fill="rgb(79,79,79)" />
	<circle cx="77" cy="8" r="5" fill="rgb(4,4,4)" />
	<circle cx="57" cy="7" r="5" fill="rgb(3,3,3)" />
	<circle cx="13" cy="160" r="5" fill="rgb(84,84,84)" />
	<circle cx="574" cy="29" r="5" fill="rgb(15,15,15)" />
	<circle cx="590" cy="332" r="5" fill="rgb(176,176,176)" />
	<circle cx="386" cy="53" r="5" fill="rgb(28,28,28)" />
	<circle cx="284" cy="391" r="5" fill="rgb(208,208,208)" />
	<circle cx="622" cy="343" r="5" fill="rgb(182,182,182)" />
	<circle cx="277" cy="116" r="5" fill="rgb(61,61,61)" />
	<circle cx="97" cy="8" r="5" fill="rgb(4,4,4)" />
	<circle cx="587" cy="135" r="5" fill="rgb(72,72,72)" />
	<circle cx="330" cy="315" r="5" fill="rgb(167,167,167)" />
	<circle cx="460" cy="208" r="5" fill="rgb(110,110,110)" />
	<circle cx="524" cy="60" r="5" fill="rgb(31,31,31)" />
	<circle cx="582" cy="74" r="5" fill="rgb(39,39,39)" />
	<circle cx="306" cy="260" r="5" fill="rgb(138,138,138)" />
	<circle cx="98" cy="235" r="5" fill="rgb(124,124,124)" />
	<circle cx="514" cy="164" r="5" fill="rgb(87,87,87)" />
	<circle cx="421" cy="356" r="5" fill="rgb(189,189,189)" />
	<circle cx="252" cy="59" r="5" fill="rgb(31,31,31)" />
	<circle cx="630" cy="173" r="5" fill="rgb(91,91,91)" />
	<circle cx="317" cy="182" r="5" fill="rgb(96,96,96)" />
	<circle cx="272" cy="225" r="5" fill="rgb(119,119,119)" />
	<circle cx="506" cy="87" r="5" fill="rgb(46,46,46)" />
	<circle cx="519" cy="96" r="5" fill="rgb(50,50,50)" />
	<circle cx="147" cy="382" r="5" fill="rgb(202,202,202)" />
	<circle cx="509" cy="38" r="5" fill="rgb(20,20,20)" />
	<circle cx="95" cy="299" r="5" fill="rgb(158,158,158)" />
	<circle cx="257" cy="199" r="5" fill="rgb(106,106,106)" />
	<circle cx="424" cy="153" r="5" fill="rgb(81,81,81)" />
	<circle cx="499" cy="7" r="5" fill="rgb(3,3,3)" />
	<circle cx="543" cy="39" r="5" fill="rgb(21,21,21)" />
	<circle cx="591" cy="311" r="5" fill="rgb(165,165,165)" />
	<circle cx="297" cy="128" r="5" fill="rgb(67,67,67)" />
	<circle cx="205" cy="363" r="5" fill="rgb(192,192,192)" />
	<circle cx="489" cy="155" r="5" fill="rgb(82,82,82)" />
	<circle cx="383" cy="221" r="5" fill="rgb(117,117,117)" />
	<circle cx="495" cy="118" r="5" fill="rgb(62,62,62)" />
	<circle cx="593" cy="32" r="5" fill="rgb(16,16,16)" />
	<circle cx="601" cy="8" r="5" fill="rgb(4,4,4)" />
	<circle cx="309" cy="48" r="5" fill="rgb(25,25,25)" />
	<circle cx="279" cy="279" r="5" fill="rgb(148,148,148)" />
	<circle cx="365" cy="281" r="5" fill="rgb(149,149,149)" />
	<circle cx="15" cy="358" r="5" fill="rgb(190,190,190)" />
	<circle cx="462" cy="381" r="5" fill="rgb(202,202,202)" />
	<circle cx="591" cy="226" r="5" fill="rgb(120,120,120)" />
	<circle cx="183" cy="384" r="5" fill="rgb(203,203,203)" />
	<circle cx="59" cy="89" r="5" fill="rgb(47,47,47)" />
	<circle cx="143" cy="145" r="5" fill="rgb(77,77,77)" />
	<circle cx="533" cy="227" r="5" fill="rgb(120,120,120)" />
	<circle cx="290" cy="52" r="5" fill="rgb(27,27,27)" />
	<circle cx="311" cy="384" r="5" fill="rgb(203,203,203)" />
	<circle cx="140" cy="229" r="5" fill="rgb(121,121,121)" />
	<circle cx="508" cy="55" r="5" fill="rgb(29,29,29)" />
	<circle cx="439" cy="58" r="5" fill="rgb(30,30,30)" />
	<circle cx="230" cy="168" r="5" fill="rgb(89,89,89)" />
	<circle cx="308" cy="90" r="5" fill="rgb(47,47,47)" />
	<circle cx="147" cy="16" r="5" fill="rgb(8,8,8)" />
	<circle cx="369" cy="436" r="5" fill="rgb(231,231,231)" />
	<circle cx="572" cy="454" r="5" fill="rgb(241,241,241)" />
	<circle cx="270" cy="48" r="5" fill="rgb(25,25,25)" />
	<circle cx="428" cy="85" r="5" fill="rgb(45,45,45)" />
	<circle cx="527" cy="248" r="5" fill="rgb(131,131,131)" />
	<circle cx="530" cy="310" r="5" fill="rgb(164,164,164)" />
	<circle cx="271" cy="145" r="5" fill="rgb(77,77,77)" />
	<circle cx="628" cy="11" r="5" fill="rgb(5,5,5)" />
	<circle cx="79" cy="191" r="5" fill="rgb(101,101,101)" />
	<circle cx="310" cy="207" r="5" fill="rgb(109,109,109)" />
	<circle cx="562" cy="349" r="5" fill="rgb(185,185,185)" />
	<circle cx="453" cy="315" r="5" fill="rgb(167,167,167)" />
	<circle cx="511" cy="287" r="5" fill="rgb(152,152,152)" />
	<circle cx="552" cy="107" r="5" fill="rgb(56,56,56)" />
	<circle cx="49" cy="375" r="5" fill="rgb(199,199,199)" />
	<circle cx="560" cy="8" r="5" fill="rgb(4,4,4)" />
	<circle cx="121" cy="217" r="5" fill="rgb(115,115,115)" />
	<circle cx="245" cy="8" r="5" fill="rgb(4,4,4)" />
	<circle cx="630" cy="262" r="5" fill="rgb(139,139,139)" />
	<circle cx="114" cy="152" r="5" fill="rgb(80,80,80)" />
	<circle cx="469" cy="27" r="5" fill="rgb(14,14,14)" />
	<circle cx="538" cy="7" r="5" fill="rgb(3,3,3)" />
	<circle cx="489" cy="334" r="5" fill="rgb(177,177,177)" />
	<circle cx="334" cy="27" r="5" fill="rgb(14,14,14)" />
	<circle cx="398" cy="342" r="5" fill="rgb(181,181,181)" />
	<circle cx="224" cy="386" r="5" fill="rgb(205,205,205)" />
	<circle cx="469" cy="344" r="5" fill="rgb(182,182,182)" />
	<circle cx="503" cy="310" r="5" fill="rgb(164,164,164)" />
	<circle cx="474" cy="47" r="5" fill="rgb(24,24,24)" />
	<circle cx="187" cy="157" r="5" fill="rgb(83,83,83)" />
	<circle cx="213" cy="6" r="5" fill="rgb(3,3,3)" />
	<circle cx="316" cy="28" r="5" fill="rgb(14,14,14)" />
	<circle cx="329" cy="8" r="5" fill="rgb(4,4,4)" />
	<circle cx="25" cy="423" r="5" fill="rgb(225,225,225)" />
	<circle cx="155" cy="265" r="5" fill="rgb(140,140,140)" />
	<circle cx="446" cy="337" r="5" fill="rgb(179,179,179)" />
	<circle cx="39" cy="37" r="5" fill="rgb(19,19,19)" />
	<circle cx="289" cy="149" r="5" fill="rgb(79,79,79)" />
	<circle cx="157" cy="418" r="5" fill="rgb(222,222,222)" />
	<circle cx="79" cy="109" r="5" fill="rgb(57,57,57)" />
	<circle cx="165" cy="324" r="5" fill="rgb(172,172,172)" />
	<circle cx="396" cy="410" r="5" fill="rgb(217,217,217)" />
	<circle cx="350" cy="7" r="5" fill="rgb(3,3,3)" />
	<circle cx="374" cy="37" r="5" fill="rgb(19,19,19)" />
	<circle cx="454" cy="182" r="5" fill="rgb(96,96,96)" />
	<circle cx="180" cy="21" r="5" fill="rgb(11,11,11)" />
	<circle cx="406" cy="19" r="5" fill="rgb(10,10,10)" />
	<circle cx="131" cy="275" r="5" fill="rgb(146,146,146)" />
	<circle cx="122" cy="302" r="5" fill="rgb(160,160,160)" />
	<circle cx="391" cy="276" r="5" fill="rgb(146,146,146)" />
	<circle cx="243" cy="449" r="5" fill="rgb(238,238,238)" />
	<circle cx="536" cy="152" r="5" fill="rgb(80,80,80)" />
	<circle cx="143" cy="250" r="5" fill="rgb(132,132,132)" />
	<circle cx="611" cy="97" r="5" fill="rgb(51,51,51)" />
	<circle cx="273" cy="309" r="5" fill="rgb(164,164,164)" />
	<circle cx="560" cy="236" r="5" fill="rgb(125,125,125)" />
	<circle cx="283" cy="202" r="5" fill="rgb(107,107,107)" />
	<circle cx="554" cy="57" r="5" fill="rgb(30,30,30)" />
	<circle cx="367" cy="353" r="5" fill="rgb(187,187,187)" />
	<circle cx="63" cy="169" r="5" fill="rgb(89,89,89)" />
	<circle cx="351" cy="25" r="5" fill="rgb(13,13,13)" />
	<circle cx="363" cy="406" r="5" fill="rgb(215,215,215)" />
	<circle cx="252" cy="175" r="5" fill="rgb(92,92,92)" />
	<circle cx="149" cy="210" r="5" fill="rgb(111,111,111)" />
	<circle cx="460" cy="287" r="5" fill="rgb(152,152,152)" />
	<circle cx="247" cy="321" r="5" fill="rgb(170,170,170)" />
	<circle cx="293" cy="74" r="5" fill="rgb(39,39,39)" />
	<circle cx="436" cy="206" r="5" fill="rgb(109,109,109)" />
	<circle cx="583" cy="348" r="5" fill="rgb(184,184,184)" />
	<circle cx="284" cy="9" r="5" fill="rgb(4,4,4)" />
	<circle cx="605" cy="286" r="5" fill="rgb(151,151,151)" />
	<circle cx="527" cy="270" r="5" fill="rgb(143,143,143)" />
	<circle cx="79" cy="248" r="5" fill="rgb(131,131,131)" />
	<circle cx="12" cy="309" r="5" fill="rgb(164,164,164)" />
	<circle cx="34" cy="253" r="5" fill="rgb(134,134,134)" />
	<circle cx="98" cy="448" r="5" fill="rgb(237,237,237)" />
	<circle cx="420" cy="117" r="5" fill="rgb(62,62,62)" />
	<circle cx="575" cy="371" r="5" fill="rgb(197,197,197)" />
	<circle cx="104" cy="270" r="5" fill="rgb(143,143,143)" />
	<circle cx="562" cy="414" r="5" fill="rgb(219,219,219)" />
	<circle cx="183" cy="59" r="5" fill="rgb(31,31,31)" />
	<circle cx="532" cy="24" r="5" fill="rgb(12,12,12)" />
	<circle cx="539" cy="63" r="5" fill="rgb(33,33,33)" />
	<circle cx="253" cy="108" r="5" fill="rgb(57,57,57)" />
	<circle cx="60" cy="43" r="5" fill="rgb(22,22,22)" />
	<circle cx="211" cy="50" r="5" fill="rgb(26,26,26)" />
	<circle cx="230" cy="192" r="5" fill="rgb(101,101,101)" />
	<circle cx="79" cy="42" r="5" fill="rgb(22,22,22)" />
	<circle cx="404" cy="65" r="5" fill="rgb(34,34,34)" />
	<circle cx="163" cy="231" r="5" fill="rgb(123,123,123)" />
	<circle cx="608" cy="205" r="5" fill="rgb(108,108,108)" />
	<circle cx="360" cy="108" r="5" fill="rgb(57,57,57)" />
	<circle cx="421" cy="28" r="5" fill="rgb(14,14,14)" />
	<circle cx="65" cy="301" r="5" fill="rgb(159,159,159)" />
	<circle cx="525" cy="204" r="5" fill="rgb(108,108,108)" />
	<circle cx="369" cy="7" r="5" fill="rgb(3,3,3)" />
	<circle cx="150" cy="120" r="5" fill="rgb(63,63,63)" />
	<circle cx="119" cy="47" r="5" fill="rgb(24,24,24)" />
	<circle cx="390" cy="91" r="5" fill="rgb(48,48,48)" />
	<circle cx="11" cy="8" r="5" fill="rgb(4,4,4)" />
	<circle cx="21" cy="285" r="5" fill="rgb(151,151,151)" />
	<circle cx="596" cy="423" r="5" fill="rgb(225,225,225)" />
	<circle cx="609" cy="178" r="5" fill="rgb(94,94,94)" />
	<circle cx="629" cy="106" r="5" fill="rgb(56,56,56)" />
	<circle cx="37" cy="6" r="5" fill="rgb(3,3,3)" />
	<circle cx="201" cy="420" r="5" fill="rgb(223,223,223)" />
	<circle cx="150" cy="34" r="5" fill="rgb(18,18,18)" />
	<circle cx="606" cy="120" r="5" fill="rgb(63,63,63)" />
	<circle cx="171" cy="131" r="5" fill="rgb(69,69,69)" />
	<circle cx="390" cy="174" r="5" fill="rgb(92,92,92)" />
	<circle cx="101" cy="113" r="5" fill="rgb(60,60,60)" />
	<circle cx="629" cy="36" r="5" fill="rgb(19,19,19)" />
	<circle cx="556" cy="210" r="5" fill="rgb(111,111,111)" />
	<circle cx="78" cy="60" r="5" fill="rgb(31,31,31)" />
	<circle cx="176" cy="179" r="5" fill="rgb(95,95,95)" />
	<circle cx="516" cy="20" r="5" fill="rgb(10,10,10)" />
	<circle cx="200" cy="187" r="5" fill="rgb(99,99,99)" />
	<circle cx="151" cy="79" r="5" fill="rgb(41,41,41)" />
	<circle cx="444" cy="232" r="5" fill="rgb(123,123,123)" />
	<circle cx="386" cy="24" r="5" fill="rgb(12,12,12)" />
	<circle cx="560" cy="285" r="5" fill="rgb(151,151,151)" />
	<circle cx="404" cy="304" r="5" fill="rgb(161,161,161)" />
	<circle cx="151" cy="301" r="5" fill="rgb(159,159,159)" />
	<circle cx="460" cy="8" r="5" fill="rgb(4,4,4)" />
	<circle cx="41" cy="214" r="5" fill="rgb(113,113,113)" />
	<circle cx="332" cy="244" r="5" fill="rgb(129,129,129)" />
	<circle cx="366" cy="53" r="5" fill="rgb(28,28,28)" />
	<circle cx="435" cy="387" r="5" fill="rgb(205,205,205)" />
	<circle cx="209" cy="171" r="5" fill="rgb(90,90,90)" />
	<circle cx="221" cy="84" r="5" fill="rgb(44,44,44)" />
	<circle cx="9" cy="65" r="5" fill="rgb(34,34,34)" />
	<circle cx="271" cy="68" r="5" fill="rgb(36,36,36)" />
	<circle cx="69" cy="218" r="5" fill="rgb(115,115,115)" />
	<circle cx="305" cy="159" r="5" fill="rgb(84,84,84)" />
	<circle cx="515" cy="331" r="5" fill="rgb(175,175,175)" />
	<circle cx="447" cy="262" r="5" fill="rgb(139,139,139)" />
	<circle cx="339" cy="343" r="5" fill="rgb(182,182,182)" />
	<circle cx="581" cy="115" r="5" fill="rgb(61,61,61)" />
	<circle cx="253" cy="37" r="5" fill="rgb(19,19,19)" />
	<circle cx="129" cy="28" r="5" fill="rgb(14,14,14)" />
	<circle cx="295" cy="362" r="5" fill="rgb(192,192,192)" />
	<circle cx="421" cy="281" r="5" fill="rgb(149,149,149)" />
	<circle cx="522" cy="112" r="5" fill="rgb(59,59,59)" />
	<circle cx="569" cy="264" r="5" fill="rgb(140,140,140)" />
	<circle cx="391" cy="245" r="5" fill="rgb(130,130,130)" />
	<circle cx="155" cy="97" r="5" fill="rgb(51,51,51)" />
	<circle cx="495" cy="73" r="5" fill="rgb(38,38,38)" />
	<circle cx="391" cy="198" r="5" fill="rgb(105,105,105)" />
	<circle cx="11" cy="108" r="5" fill="rgb(57,57,57)" />
	<circle cx="307" cy="9" r="5" fill="rgb(4,4,4)" />
	<circle cx="275" cy="251" r="5" fill="rgb(133,133,133)" />
	<circle cx="114" cy="10" r="5" fill="rgb(5,5,5)" />
	<circle cx="274" cy="172" r="5" fill="rgb(91,91,91)" />
	<circle cx="561" cy="39" r="5" fill="rgb(21,21,21)" />
	<circle cx="83" cy="356" r="5" fill="rgb(189,189,189)" />
	<circle cx="130" cy="105" r="5" fill="rgb(55,55,55)" />
	<circle cx="321" cy="72" r="5" fill="rgb(38,38,38)" />
	<circle cx="422" cy="49" r="5" fill="rgb(26,26,26)" />
	<circle cx="527" cy="374" r="5" fill="rgb(198,198,198)" />
	<circle cx="303" cy="232" r="5" fill="rgb(123,123,123)" />
	<circle cx="321" cy="132" r="5" fill="rgb(70,70,70)" />
	<circle cx="56" cy="241" r="5" fill="rgb(128,128,128)" />
	<circle cx="629" cy="196" r="5" fill="rgb(104,104,104)" />
	<circle cx="313" cy="333" r="5" fill="rgb(176,176,176)" />
	<circle cx="166" cy="280" r="5" fill="rgb(148,148,148)" />
	<circle cx="347" cy="298" r="5" fill="rgb(158,158,158)" />
	<circle cx="193" cy="207" r="5" fill="rgb(109,109,109)" />
	<circle cx="401" cy="6" r="5" fill="rgb(3,3,3)" />
	<circle cx="543" cy="359" r="5" fill="rgb(191,191,191)" />
	<circle cx="408" cy="83" r="5" fill="rgb(44,44,44)" />
	<circle cx="503" cy="406" r="5" fill="rgb(215,215,215)" />
	<circle cx="504" cy="380" r="5" fill="rgb(201,201,201)" />
	<circle cx="228" cy="7" r="5" fill="rgb(3,3,3)" />
	<circle cx="230" cy="63" r="5" fill="rgb(33,33,33)" />
	<circle cx="552" cy="307" r="5" fill="rgb(163,163,163)" />
	<circle cx="54" cy="340" r="5" fill="rgb(180,180,180)" />
	<circle cx="455" cy="42" r="5" fill="rgb(22,22,22)" />
	<circle cx="624" cy="237" r="5" fill="rgb(125,125,125)" />
	<circle cx="371" cy="183" r="5" fill="rgb(97,97,97)" />
	<circle cx="59" cy="111" r="5" fill="rgb(58,58,58)" />
	<circle cx="453" cy="153" r="5" fill="rgb(81,81,81)" />
	<circle cx="609" cy="302" r="5" fill="rgb(160,160,160)" />
	<circle cx="370" cy="162" r="5" fill="rgb(86,86,86)" />
	<circle cx="241" cy="92" r="5" fill="rgb(48,48,48)" />
	<circle cx="615" cy="270" r="5" fill="rgb(143,143,143)" />
	<circle cx="243" cy="130" r="5" fill="rgb(69,69,69)" />
	<circle cx="630" cy="320" r="5" fill="rgb(169,169,169)" />
	<circle cx="623" cy="392" r="5" fill="rgb(208,208,208)" />
	<circle cx="610" cy="323" r="5" fill="rgb(171,171,171)" />
	<circle cx="213" cy="32" r="5" fill="rgb(16,16,16)" />
	<circle cx="316" cy="286" r="5" fill="rgb(151,151,151)" />
	<circle cx="138" cy="47" r="5" fill="rgb(24,24,24)" />
	<circle cx="629" cy="82" r="5" fill="rgb(43,43,43)" />
	<circle cx="119" cy="247" r="5" fill="rgb(131,131,131)" />
	<circle cx="199" cy="91" r="5" fill="rgb(48,48,48)" />
	<circle cx="76" cy="82" r="5" fill="rgb(43,43,43)" />
	<circle cx="586" cy="156" r="5" fill="rgb(82,82,82)" />
	<circle cx="339" cy="269" r="5" fill="rgb(142,142,142)" />
	<circle cx="393" cy="127" r="5" fill="rgb(67,67,67)" />
	<circle cx="157" cy="5" r="5" fill="rgb(2,2,2)" />
	<circle cx="109" cy="29" r="5" fill="rgb(15,15,15)" />
	<circle cx="447" cy="362" r="5" fill="rgb(192,192,192)" />
	<circle cx="561" cy="134" r="5" fill="rgb(71,71,71)" />
	<circle cx="337" cy="393" r="5" fill="rgb(208,208,208)" />
	<circle cx="43" cy="54" r="5" fill="rgb(28,28,28)" />
	<circle cx="528" cy="428" r="5" fill="rgb(227,227,227)" />
	<circle cx="36" cy="104" r="5" fill="rgb(55,55,55)" />
	<circle cx="562" cy="160" r="5" fill="rgb(84,84,84)" />
	<circle cx="594" cy="93" r="5" fill="rgb(49,49,49)" />
	<circle cx="117" cy="359" r="5" fill="rgb(191,191,191)" />
	<circle cx="406" cy="48" r="5" fill="rgb(25,25,25)" />
	<circle cx="95" cy="210" r="5" fill="rgb(111,111,111)" />
	<circle cx="629" cy="293" r="5" fill="rgb(155,155,155)" />
	<circle cx="369" cy="261" r="5" fill="rgb(138,138,138)" />
	<circle cx="128" cy="81" r="5" fill="rgb(43,43,43)" />
	<circle cx="411" cy="223" r="5" fill="rgb(118,118,118)" />
	<circle cx="330" cy="101" r="5" fill="rgb(53,53,53)" />
	<circle cx="361" cy="327" r="5" fill="rgb(174,174,174)" />
	<circle cx="519" cy="6" r="5" fill="rgb(3,3,3)" />
	<circle cx="479" cy="7" r="5" fill="rgb(3,3,3)" />
	<circle cx="49" cy="129" r="5" fill="rgb(68,68,68)" />
	<circle cx="413" cy="134" r="5" fill="rgb(71,71,71)" />
	<circle cx="376" cy="303" r="5" fill="rgb(160,160,160)" />
	<circle cx="195" cy="7" r="5" fill="rgb(3,3,3)" />
	<circle cx="24" cy="54" r="5" fill="rgb(28,28,28)" />
	<circle cx="290" cy="335" r="5" fill="rgb(177,177,177)" />
	<circle cx="562" cy="186" r="5" fill="rgb(98,98,98)" />
	<circle cx="605" cy="246" r="5" fill="rgb(130,130,130)" />
	<circle cx="183" cy="295" r="5" fill="rgb(157,157,157)" />
	<circle cx="348" cy="89" r="5" fill="rgb(47,47,47)" />
	<circle cx="370" cy="90" r="5" fill="rgb(47,47,47)" />
	<circle cx="183" cy="345" r="5" fill="rgb(183,183,183)" />
	<circle cx="231" cy="44" r="5" fill="rgb(23,23,23)" />
	<circle cx="537" cy="180" r="5" fill="rgb(95,95,95)" />
	<circle cx="548" cy="261" r="5" fill="rgb(138,138,138)" />
	<circle cx="328" cy="436" r="5" fill="rgb(231,231,231)" />
	<circle cx="472" cy="135" r="5" fill="rgb(72,72,72)" />
	<circle cx="94" cy="69" r="5" fill="rgb(36,36,36)" />
	<circle cx="11" cy="137" r="5" fill="rgb(72,72,72)" />
	<circle cx="180" cy="250" r="5" fill="rgb(132,132,132)" />
	<circle cx="423" cy="246" r="5" fill="rgb(130,130,130)" />
	<circle cx="583" cy="205" r="5" fill="rgb(108,108,108)" />
	<circle cx="227" cy="23" r="5" fill="rgb(12,12,12)" />
	<circle cx="276" cy="30" r="5" fill="rgb(15,15,15)" />
	<circle cx="91" cy="25" r="5" fill="rgb(13,13,13)" />
	<circle cx="601" cy="364" r="5" fill="rgb(193,193,193)" />
	<circle cx="221" cy="129" r="5" fill="rgb(68,68,68)" />
	<circle cx="208" cy="336" r="5" fill="rgb(178,178,178)" />
	<circle cx="250" cy="405" r="5" fill="rgb(215,215,215)" />
	<circle cx="415" cy="198" r="5" fill="rgb(105,105,105)" />
	<circle cx="287" cy="99" r="5" fill="rgb(52,52,52)" />
	<circle cx="167" cy="200" r="5" fill="rgb(106,106,106)" />
	<circle cx="559" cy="78" r="5" fill="rgb(41,41,41)" />
	<circle cx="538" cy="334" r="5" fill="rgb(177,177,177)" />
	<circle cx="459" cy="62" r="5" fill="rgb(32,32,32)" />
	<circle cx="539" cy="85" r="5" fill="rgb(45,45,45)" />
	<circle cx="12" cy="211" r="5" fill="rgb(112,112,112)" />
	<circle cx="223" cy="320" r="5" fill="rgb(169,169,169)" />
	<circle cx="8" cy="25" r="5" fill="rgb(13,13,13)" />
	<circle cx="115" cy="399" r="5" fill="rgb(211,211,211)" />
	<circle cx="486" cy="21" r="5" fill="rgb(11,11,11)" />
	<circle cx="14" cy="188" r="5" fill="rgb(99,99,99)" />
	<circle cx="437" cy="9" r="5" fill="rgb(4,4,4)" />
	<circle cx="485" cy="364" r="5" fill="rgb(193,193,193)" />
	<circle cx="165" cy="155" r="5" fill="rgb(82,82,82)" />
	<circle cx="583" cy="246" r="5" fill="rgb(130,130,130)" />
	<circle cx="250" cy="285" r="5" fill="rgb(151,151,151)" />
	<circle cx="491" cy="52" r="5" fill="rgb(27,27,27)" />
	<circle cx="299" cy="305" r="5" fill="rgb(162,162,162)" />
	<circle cx="610" cy="47" r="5" fill="rgb(24,24,24)" />
	<circle cx="192" cy="114" r="5" fill="rgb(60,60,60)" />
	<circle cx="485" cy="205" r="5" fill="rgb(108,108,108)" />
	<circle cx="9" cy="85" r="5" fill="rgb(45,45,45)" />
	<circle cx="310" cy="111" r="5" fill="rgb(58,58,58)" />
	<circle cx="580" cy="10" r="5" fill="rgb(5,5,5)" />
	<circle cx="44" cy="82" r="5" fill="rgb(43,43,43)" />
	<circle cx="137" cy="64" r="5" fill="rgb(33,33,33)" />
	<circle cx="237" cy="353" r="5" fill="rgb(187,187,187)" />
	<circle cx="112" cy="92" r="5" fill="rgb(48,48,48)" />
	<circle cx="629" cy="60" r="5" fill="rgb(31,31,31)" />
	<circle cx="572" cy="96" r="5" fill="rgb(50,50,50)" />
</svg>
