<?xml version="1.0" ?>
<!DOCTYPE svg PUBLIC "-//W3C//DTD SVG 1.1//EN" "http://www.w3.org/Graphics/SVG/1.1/DTD/svg11.dtd">
<svg width="640" height="480" version="1.1" xmlns="http://www.w3.org/2000/svg">
<circle cx="448.033" cy="19.6865" r="24.7784" fill="rgb(0,0,0)" />
<circle cx="284.385" cy="22.153" r="22.985" fill="rgb(0,0,0)" />
<circle cx="363.011" cy="23.3133" r="27.2928" fill="rgb(0,0,0)" />
<circle cx="493.919" cy="22.5892" r="28.0797" fill="rgb(0,0,0)" />
<circle cx="323.049" cy="23.987" r="28.8145" fill="rgb(0,0,0)" />
<circle cx="245.412" cy="24.7506" r="28.3208" fill="rgb(0,0,0)" />
<circle cx="584.94" cy="58.0613" r="21.4031" fill="rgb(0,0,0)" />
<circle cx="468.093" cy="57.9054" r="20.2525" fill="rgb(0,0,0)" />
<circle cx="96.1485" cy="56.6439" r="20.9027" fill="rgb(0,0,0)" />
<circle cx="423.574" cy="65.2916" r="22.4338" fill="rgb(0,0,0)" />
<circle cx="142.071" cy="65.1835" r="22.6862" fill="rgb(0,0,0)" />
<circle cx="54.7071" cy="68.2815" r="25.6778" fill="rgb(0,0,0)" />
<circle cx="543.926" cy="69.8167" r="25.7586" fill="rgb(0,0,0)" />
<circle cx="378.14" cy="69.8102" r="23.3146" fill="rgb(0,0,0)" />
<circle cx="332.028" cy="71.6371" r="24.4767" fill="rgb(0,0,0)" />
<circle cx="188.535" cy="72.3564" r="23.9773" fill="rgb(0,0,0)" />
<circle cx="105.264" cy="100.291" r="23.713" fill="rgb(0,0,0)" />
<circle cx="456.582" cy="102.629" r="20.4767" fill="rgb(0,0,0)" />
<circle cx="579.112" cy="106.375" r="20.5368" fill="rgb(0,0,0)" />
<circle cx="204.779" cy="24.13" r="27.6528" fill="rgb(0,0,0)" />
<circle cx="155.884" cy="113.89" r="22.0941" fill="rgb(0,0,0)" />
<circle cx="407.082" cy="113.03" r="20.815" fill="rgb(0,0,0)" />
<circle cx="260.706" cy="118.876" r="23.1119" fill="rgb(0,0,0)" />
<circle cx="535.107" cy="122.007" r="20.736" fill="rgb(0,0,0)" />
<circle cx="61.5327" cy="121.608" r="21.5689" fill="rgb(0,0,0)" />
<circle cx="490.906" cy="136.332" r="20.4906" fill="rgb(0,0,0)" />
<circle cx="109.468" cy="148.608" r="20.062" fill="rgb(0,0,0)" />
<circle cx="441.694" cy="150.324" r="18.1891" fill="rgb(0,0,0)" />
<circle cx="572.757" cy="158.698" r="18.6035" fill="rgb(0,0,0)" />
<circle cx="157.986" cy="164.123" r="20.8859" fill="rgb(0,0,0)" />
<circle cx="391.077" cy="165.253" r="21.5401" fill="rgb(0,0,0)" />
<circle cx="296.935" cy="168.283" r="20.8888" fill="rgb(0,0,0)" />
<circle cx="246.383" cy="168.207" r="22.5365" fill="rgb(0,0,0)" />
<circle cx="533.634" cy="24.3806" r="30.3205" fill="rgb(0,0,0)" />
<circle cx="345.792" cy="171.923" r="22.8184" fill="rgb(0,0,0)" />
<circle cx="67.0286" cy="179.164" r="18.8698" fill="rgb(0,0,0)" />
<circle cx="202.475" cy="180.949" r="17.7936" fill="rgb(0,0,0)" />
<circle cx="234.792" cy="73.9382" r="24.6039" fill="rgb(0,0,0)" />
<circle cx="477.058" cy="189.779" r="17.4275" fill="rgb(0,0,0)" />
<circle cx="162.244" cy="22.4581" r="26.8971" fill="rgb(0,0,0)" />
<circle cx="425.879" cy="199.814" r="15.2645" fill="rgb(0,0,0)" />
<circle cx="564.869" cy="213.693" r="16.0331" fill="rgb(0,0,0)" />
<circle cx="273.021" cy="215.433" r="16.2906" fill="rgb(0,0,0)" />
<circle cx="168.129" cy="223.189" r="16.3006" fill="rgb(0,0,0)" />
<circle cx="331.757" cy="222.371" r="18.2305" fill="rgb(0,0,0)" />
<circle cx="224.555" cy="234.307" r="19.4228" fill="rgb(0,0,0)" />
<circle cx="385.603" cy="230.846" r="18.4443" fill="rgb(0,0,0)" />
<circle cx="404.552" cy="22.2317" r="25.9268" fill="rgb(0,0,0)" />
<circle cx="510.625" cy="233.656" r="15.6227" fill="rgb(0,0,0)" />
<circle cx="525.716" cy="176.838" r="18.5451" fill="rgb(0,0,0)" />
<circle cx="73.6496" cy="239.055" r="15.7616" fill="rgb(0,0,0)" />
<circle cx="453.517" cy="242.579" r="17.0436" fill="rgb(0,0,0)" />
<circle cx="127.63" cy="264.715" r="15.0322" fill="rgb(0,0,0)" />
<circle cx="503.549" cy="80.8024" r="26.6566" fill="rgb(0,0,0)" />
<circle cx="207.332" cy="124.519" r="23.3887" fill="rgb(0,0,0)" />
<circle cx="554.428" cy="269.478" r="15.0956" fill="rgb(0,0,0)" />
<circle cx="184.841" cy="282.169" r="14.1073" fill="rgb(0,0,0)" />
<circle cx="283.808" cy="70.3147" r="25.9781" fill="rgb(0,0,0)" />
<circle cx="422.145" cy="286.035" r="15.8193" fill="rgb(0,0,0)" />
<circle cx="357.88" cy="285.246" r="14.7487" fill="rgb(0,0,0)" />
<circle cx="488.849" cy="290.631" r="13.534" fill="rgb(0,0,0)" />
<circle cx="243.095" cy="293.313" r="13.9826" fill="rgb(0,0,0)" />
<circle cx="81.0086" cy="301.507" r="12.4929" fill="rgb(0,0,0)" />
<circle cx="302.423" cy="314.627" r="10.8927" fill="rgb(0,0,0)" />
<circle cx="541.636" cy="325.369" r="12.4844" fill="rgb(0,0,0)" />
<circle cx="295.233" cy="262.251" r="17.2423" fill="rgb(0,0,0)" />
<circle cx="403.44" cy="340.505" r="10.3254" fill="rgb(0,0,0)" />
<circle cx="467.732" cy="350.182" r="12.21" fill="rgb(0,0,0)" />
<circle cx="200.467" cy="349.445" r="11.6614" fill="rgb(0,0,0)" />
<circle cx="141.746" cy="330.378" r="12.87" fill="rgb(0,0,0)" />
<circle cx="344.109" cy="357.127" r="9.8842" fill="rgb(0,0,0)" />
<circle cx="266.674" cy="361.985" r="9.34657" fill="rgb(0,0,0)" />
<circle cx="535.314" cy="385.535" r="7.17475" fill="rgb(0,0,0)" />
<circle cx="400.102" cy="412.596" r="5.10477" fill="rgb(0,0,0)" />
<circle cx="140.961" cy="413.957" r="5.26234" fill="rgb(0,0,0)" />
<circle cx="608.324" cy="300.054" r="13.3211" fill="rgb(0,0,0)" />
<circle cx="23.7211" cy="211.224" r="17.5633" fill="rgb(0,0,0)" />
<circle cx="26.0705" cy="273.968" r="14.461" fill="rgb(0,0,0)" />
<circle cx="313.339" cy="421.088" r="4.24245" fill="rgb(0,0,0)" />
<circle cx="310.747" cy="119.022" r="23.8912" fill="rgb(0,0,0)" />
<circle cx="223.055" cy="419.584" r="4.37614" fill="rgb(0,0,0)" />
<circle cx="617.719" cy="134.656" r="19.6191" fill="rgb(0,0,0)" />
<circle cx="116.449" cy="19.4367" r="25.174" fill="rgb(0,0,0)" />
<circle cx="66.2518" cy="19.9646" r="24.1148" fill="rgb(0,0,0)" />
<circle cx="18.7123" cy="90.412" r="25.4279" fill="rgb(0,0,0)" />
<circle cx="20.6106" cy="27.8591" r="29.469" fill="rgb(0,0,0)" />
<circle cx="41.6538" cy="417.857" r="4.93673" fill="rgb(0,0,0)" />
<circle cx="117.122" cy="203.775" r="17.7573" fill="rgb(0,0,0)" />
<circle cx="28.1417" cy="341.592" r="10.9795" fill="rgb(0,0,0)" />
<circle cx="595.166" cy="424.842" r="5.04455" fill="rgb(0,0,0)" />
<circle cx="605.802" cy="358.407" r="9.40602" fill="rgb(0,0,0)" />
<circle cx="612.259" cy="244.153" r="15.5005" fill="rgb(0,0,0)" />
<circle cx="21.5912" cy="150.596" r="20.8065" fill="rgb(0,0,0)" />
<circle cx="479.546" cy="422.896" r="5.14798" fill="rgb(0,0,0)" />
<circle cx="615.13" cy="189.088" r="16.9582" fill="rgb(0,0,0)" />
<circle cx="358.974" cy="119.262" r="21.0947" fill="rgb(0,0,0)" />
<circle cx="620.4" cy="80.3019" r="23.1546" fill="rgb(0,0,0)" />
<circle cx="89.6132" cy="366.338" r="8.14218" fill="rgb(0,0,0)" />
<circle cx="619.19" cy="24.7762" r="26.3415" fill="rgb(0,0,0)" />
<circle cx="575.342" cy="18.4635" r="28.9607" fill="rgb(0,0,0)" />
</svg>
