<?xml version="1.0" standalone="no" ?>
<!DOCTYPE svg PUBLIC "-//W3C//DTD SVG 1.1//EN" "http://www.w3.org/Graphics/SVG/1.1/DTD/svg11.dtd">
<svg width="640px" height="480px" xmlns="http://www.w3.org/2000/svg" version="1.1" >
	<circle cx="309" cy="273" r="2.04918" fill="rgb(145,145,145)" />
	<circle cx="306" cy="450" r="1.46199" fill="rgb(239,239,239)" />
	<circle cx="167" cy="304" r="1.91571" fill="rgb(161,161,161)" />
	<circle cx="209" cy="355" r="1.73611" fill="rgb(188,188,188)" />
	<circle cx="461" cy="176" r="2.59067" fill="rgb(93,93,93)" />
	<circle cx="15" cy="397" r="1.6129" fill="rgb(210,210,210)" />
	<circle cx="74" cy="357" r="1.7301" fill="rgb(189,189,189)" />
	<circle cx="545" cy="320" r="1.85874" fill="rgb(169,169,169)" />
	<circle cx="296" cy="202" r="2.41546" fill="rgb(107,107,107)" />
	<circle cx="500" cy="155" r="2.74725" fill="rgb(82,82,82)" />
	<circle cx="125" cy="42" r="4.13223" fill="rgb(22,22,22)" />
	<circle cx="94" cy="62" r="3.78788" fill="rgb(32,32,32)" />
	<circle cx="625" cy="260" r="2.10084" fill="rgb(138,138,138)" />
	<circle cx="247" cy="347" r="1.76056" fill="rgb(184,184,184)" />
	<circle cx="584" cy="96" r="3.33333" fill="rgb(50,50,50)" />
	<circle cx="567" cy="440" r="1.47929" fill="rgb(233,233,233)" />
	<circle cx="396" cy="142" r="2.85714" fill="rgb(75,75,75)" />
	<circle cx="606" cy="144" r="2.85714" fill="rgb(76,76,76)" />
	<circle cx="557" cy="353" r="1.74216" fill="rgb(187,187,187)" />
	<circle cx="46" cy="423" r="1.53846" fill="rgb(225,225,225)" />
	<circle cx="242" cy="414" r="1.5625" fill="rgb(219,219,219)" />
	<circle cx="248" cy="56" r="3.87597" fill="rgb(29,29,29)" />
	<circle cx="227" cy="379" r="1.66113" fill="rgb(201,201,201)" />
	<circle cx="309" cy="162" r="2.7027" fill="rgb(86,86,86)" />
	<circle cx="591" cy="366" r="1.70068" fill="rgb(194,194,194)" />
	<circle cx="435" cy="393" r="1.61812" fill="rgb(208,208,208)" />
	<circle cx="561" cy="257" r="2.11864" fill="rgb(136,136,136)" />
	<circle cx="140" cy="411" r="1.57233" fill="rgb(218,218,218)" />
	<circle cx="54" cy="254" r="2.13675" fill="rgb(134,134,134)" />
	<circle cx="208" cy="253" r="2.13675" fill="rgb(134,134,134)" />
	<circle cx="117" cy="101" r="3.26797" fill="rgb(53,53,53)" />
	<circle cx="594" cy="174" r="2.60417" fill="rgb(92,92,92)" />
	<circle cx="431" cy="18" r="4.58716" fill="rgb(9,9,9)" />
	<circle cx="443" cy="217" r="2.32558" fill="rgb(115,115,115)" />
	<circle cx="346" cy="272" r="2.04918" fill="rgb(144,144,144)" />
	<circle cx="334" cy="196" r="2.46305" fill="rgb(104,104,104)" />
	<circle cx="405" cy="217" r="2.33645" fill="rgb(115,115,115)" />
	<circle cx="153" cy="115" r="3.125" fill="rgb(61,61,61)" />
	<circle cx="547" cy="88" r="3.42466" fill="rgb(46,46,46)" />
	<circle cx="505" cy="62" r="3.78788" fill="rgb(32,32,32)" />
	<circle cx="57" cy="147" r="2.80899" fill="rgb(78,78,78)" />
	<circle cx="137" cy="315" r="1.87266" fill="rgb(167,167,167)" />
	<circle cx="128" cy="150" r="2.7933" fill="rgb(79,79,79)" />
	<circle cx="522" cy="292" r="1.96078" fill="rgb(155,155,155)" />
	<circle cx="425" cy="302" r="1.92308" fill="rgb(160,160,160)" />
	<circle cx="621" cy="55" r="3.90625" fill="rgb(29,29,29)" />
	<circle cx="316" cy="397" r="1.6129" fill="rgb(210,210,210)" />
	<circle cx="517" cy="258" r="2.11864" fill="rgb(137,137,137)" />
	<circle cx="568" cy="289" r="1.97628" fill="rgb(153,153,153)" />
	<circle cx="26" cy="446" r="1.46628" fill="rgb(236,236,236)" />
	<circle cx="229" cy="203" r="2.41546" fill="rgb(107,107,107)" />
	<circle cx="624" cy="126" r="3.01205" fill="rgb(66,66,66)" />
	<circle cx="463" cy="48" r="4" fill="rgb(25,25,25)" />
	<circle cx="95" cy="175" r="2.60417" fill="rgb(92,92,92)" />
	<circle cx="165" cy="162" r="2.7027" fill="rgb(86,86,86)" />
	<circle cx="18" cy="62" r="3.78788" fill="rgb(32,32,32)" />
	<circle cx="516" cy="217" r="2.32558" fill="rgb(115,115,115)" />
	<circle cx="91" cy="396" r="1.6129" fill="rgb(210,210,210)" />
	<circle cx="254" cy="315" r="1.87266" fill="rgb(167,167,167)" />
	<circle cx="487" cy="301" r="1.9305" fill="rgb(159,159,159)" />
	<circle cx="261" cy="168" r="2.6455" fill="rgb(89,89,89)" />
	<circle cx="292" cy="243" r="2.18341" fill="rgb(129,129,129)" />
	<circle cx="346" cy="21" r="4.54545" fill="rgb(11,11,11)" />
	<circle cx="51" cy="114" r="3.14465" fill="rgb(60,60,60)" />
	<circle cx="171" cy="375" r="1.67224" fill="rgb(199,199,199)" />
	<circle cx="571" cy="17" r="4.62963" fill="rgb(9,9,9)" />
	<circle cx="582" cy="55" r="3.87597" fill="rgb(29,29,29)" />
	<circle cx="264" cy="18" r="4.58716" fill="rgb(9,9,9)" />
	<circle cx="437" cy="103" r="3.24675" fill="rgb(55,55,55)" />
	<circle cx="626" cy="223" r="2.29358" fill="rgb(118,118,118)" />
	<circle cx="392" cy="274" r="2.04082" fill="rgb(145,145,145)" />
	<circle cx="438" cy="442" r="1.47493" fill="rgb(234,234,234)" />
	<circle cx="534" cy="145" r="2.84091" fill="rgb(77,77,77)" />
	<circle cx="104" cy="297" r="1.94553" fill="rgb(157,157,157)" />
	<circle cx="16" cy="138" r="2.89017" fill="rgb(73,73,73)" />
	<circle cx="418" cy="180" r="2.5641" fill="rgb(95,95,95)" />
	<circle cx="49" cy="13" r="4.71698" fill="rgb(6,6,6)" />
	<circle cx="477" cy="128" r="2.99401" fill="rgb(67,67,67)" />
	<circle cx="354" cy="149" r="2.7933" fill="rgb(79,79,79)" />
	<circle cx="306" cy="18" r="4.58716" fill="rgb(9,9,9)" />
	<circle cx="194" cy="224" r="2.29358" fill="rgb(118,118,118)" />
	<circle cx="105" cy="242" r="2.19298" fill="rgb(128,128,128)" />
	<circle cx="336" cy="234" r="2.23214" fill="rgb(124,124,124)" />
	<circle cx="290" cy="52" r="3.93701" fill="rgb(27,27,27)" />
	<circle cx="208" cy="54" r="3.90625" fill="rgb(28,28,28)" />
	<circle cx="272" cy="130" r="2.97619" fill="rgb(69,69,69)" />
	<circle cx="91" cy="18" r="4.58716" fill="rgb(9,9,9)" />
	<circle cx="372" cy="299" r="1.93798" fill="rgb(158,158,158)" />
	<circle cx="542" cy="51" r="3.96825" fill="rgb(27,27,27)" />
	<circle cx="147" cy="77" r="3.57143" fill="rgb(40,40,40)" />
	<circle cx="293" cy="89" r="3.42466" fill="rgb(47,47,47)" />
	<circle cx="91" cy="432" r="1.51515" fill="rgb(229,229,229)" />
	<circle cx="375" cy="237" r="2.22222" fill="rgb(125,125,125)" />
	<circle cx="356" cy="351" r="1.74825" fill="rgb(186,186,186)" />
	<circle cx="141" cy="449" r="1.46199" fill="rgb(238,238,238)" />
	<circle cx="533" cy="383" r="1.64474" fill="rgb(203,203,203)" />
	<circle cx="335" cy="64" r="3.7594" fill="rgb(33,33,33)" />
	<circle cx="626" cy="178" r="2.57732" fill="rgb(94,94,94)" />
	<circle cx="12" cy="291" r="1.9685" fill="rgb(154,154,154)" />
	<circle cx="257" cy="377" r="1.66667" fill="rgb(200,200,200)" />
	<circle cx="567" cy="131" r="2.95858" fill="rgb(69,69,69)" />
	<circle cx="197" cy="89" r="3.40136" fill="rgb(47,47,47)" />
	<circle cx="540" cy="229" r="2.26244" fill="rgb(121,121,121)" />
	<circle cx="150" cy="229" r="2.26244" fill="rgb(121,121,121)" />
	<circle cx="103" cy="333" r="1.81159" fill="rgb(176,176,176)" />
	<circle cx="524" cy="18" r="4.58716" fill="rgb(9,9,9)" />
	<circle cx="283" cy="331" r="1.81818" fill="rgb(175,175,175)" />
	<circle cx="141" cy="352" r="1.74825" fill="rgb(186,186,186)" />
	<circle cx="618" cy="406" r="1.57729" fill="rgb(215,215,215)" />
	<circle cx="187" cy="129" r="2.97619" fill="rgb(68,68,68)" />
	<circle cx="396" cy="403" r="1.59236" fill="rgb(214,214,214)" />
	<circle cx="263" cy="214" r="2.34742" fill="rgb(113,113,113)" />
	<circle cx="612" cy="290" r="1.97628" fill="rgb(154,154,154)" />
	<circle cx="566" cy="172" r="2.63158" fill="rgb(91,91,91)" />
	<circle cx="47" cy="342" r="1.77936" fill="rgb(181,181,181)" />
	<circle cx="132" cy="194" r="2.47525" fill="rgb(103,103,103)" />
	<circle cx="427" cy="255" r="2.12766" fill="rgb(135,135,135)" />
	<circle cx="457" cy="283" r="2" fill="rgb(150,150,150)" />
	<circle cx="428" cy="342" r="1.77936" fill="rgb(181,181,181)" />
	<circle cx="571" cy="398" r="1.60772" fill="rgb(211,211,211)" />
	<circle cx="183" cy="193" r="2.48756" fill="rgb(102,102,102)" />
	<circle cx="84" cy="102" r="3.24675" fill="rgb(54,54,54)" />
	<circle cx="399" cy="100" r="3.28947" fill="rgb(53,53,53)" />
	<circle cx="222" cy="18" r="4.62963" fill="rgb(9,9,9)" />
	<circle cx="21" cy="322" r="1.85185" fill="rgb(171,171,171)" />
	<circle cx="216" cy="320" r="1.85874" fill="rgb(169,169,169)" />
	<circle cx="391" cy="328" r="1.82482" fill="rgb(174,174,174)" />
	<circle cx="594" cy="249" r="2.1645" fill="rgb(132,132,132)" />
	<circle cx="206" cy="436" r="1.5015" fill="rgb(231,231,231)" />
	<circle cx="288" cy="364" r="1.70648" fill="rgb(193,193,193)" />
	<circle cx="63" cy="184" r="2.53807" fill="rgb(97,97,97)" />
	<circle cx="106" cy="366" r="1.70068" fill="rgb(194,194,194)" />
	<circle cx="227" cy="126" r="3.01205" fill="rgb(66,66,66)" />
	<circle cx="494" cy="372" r="1.6835" fill="rgb(197,197,197)" />
	<circle cx="622" cy="361" r="1.71821" fill="rgb(191,191,191)" />
	<circle cx="173" cy="411" r="1.57233" fill="rgb(218,218,218)" />
	<circle cx="317" cy="338" r="1.79211" fill="rgb(179,179,179)" />
	<circle cx="15" cy="219" r="2.31481" fill="rgb(116,116,116)" />
	<circle cx="139" cy="14" r="4.71698" fill="rgb(7,7,7)" />
	<circle cx="55" cy="76" r="3.57143" fill="rgb(40,40,40)" />
	<circle cx="307" cy="304" r="1.91571" fill="rgb(161,161,161)" />
	<circle cx="93" cy="211" r="2.36967" fill="rgb(112,112,112)" />
	<circle cx="43" cy="375" r="1.67785" fill="rgb(199,199,199)" />
	<circle cx="178" cy="338" r="1.79211" fill="rgb(179,179,179)" />
	<circle cx="180" cy="16" r="4.62963" fill="rgb(8,8,8)" />
	<circle cx="585" cy="324" r="1.84502" fill="rgb(172,172,172)" />
	<circle cx="14" cy="357" r="1.7301" fill="rgb(189,189,189)" />
	<circle cx="599" cy="209" r="2.38095" fill="rgb(111,111,111)" />
	<circle cx="516" cy="109" r="3.18471" fill="rgb(57,57,57)" />
	<circle cx="480" cy="218" r="2.32558" fill="rgb(115,115,115)" />
	<circle cx="466" cy="331" r="1.81818" fill="rgb(175,175,175)" />
	<circle cx="17" cy="101" r="3.26797" fill="rgb(53,53,53)" />
	<circle cx="130" cy="387" r="1.63934" fill="rgb(205,205,205)" />
	<circle cx="477" cy="253" r="2.13675" fill="rgb(134,134,134)" />
	<circle cx="67" cy="314" r="1.8797" fill="rgb(166,166,166)" />
	<circle cx="315" cy="425" r="1.53374" fill="rgb(225,225,225)" />
	<circle cx="248" cy="93" r="3.3557" fill="rgb(49,49,49)" />
	<circle cx="425" cy="61" r="3.78788" fill="rgb(32,32,32)" />
	<circle cx="279" cy="400" r="1.60256" fill="rgb(212,212,212)" />
	<circle cx="473" cy="88" r="3.42466" fill="rgb(46,46,46)" />
	<circle cx="358" cy="104" r="3.24675" fill="rgb(55,55,55)" />
	<circle cx="245" cy="247" r="2.17391" fill="rgb(131,131,131)" />
	<circle cx="93" cy="138" r="2.89017" fill="rgb(73,73,73)" />
	<circle cx="77" cy="278" r="2.02429" fill="rgb(147,147,147)" />
	<circle cx="216" cy="164" r="2.68817" fill="rgb(87,87,87)" />
	<circle cx="60" cy="226" r="2.28311" fill="rgb(120,120,120)" />
	<circle cx="197" cy="289" r="1.97628" fill="rgb(153,153,153)" />
	<circle cx="536" cy="185" r="2.53807" fill="rgb(98,98,98)" />
	<circle cx="491" cy="413" r="1.5625" fill="rgb(219,219,219)" />
	<circle cx="56" cy="43" r="4.09836" fill="rgb(22,22,22)" />
	<circle cx="38" cy="284" r="2" fill="rgb(150,150,150)" />
	<circle cx="357" cy="402" r="1.59236" fill="rgb(213,213,213)" />
	<circle cx="388" cy="19" r="4.58716" fill="rgb(10,10,10)" />
	<circle cx="481" cy="17" r="4.62963" fill="rgb(9,9,9)" />
	<circle cx="169" cy="49" r="4" fill="rgb(26,26,26)" />
	<circle cx="10" cy="182" r="2.55102" fill="rgb(96,96,96)" />
	<circle cx="169" cy="263" r="2.09205" fill="rgb(140,140,140)" />
	<circle cx="343" cy="313" r="1.8797" fill="rgb(166,166,166)" />
	<circle cx="30" cy="167" r="2.65957" fill="rgb(89,89,89)" />
	<circle cx="271" cy="283" r="2.00803" fill="rgb(150,150,150)" />
	<circle cx="457" cy="369" r="1.69492" fill="rgb(196,196,196)" />
	<circle cx="132" cy="271" r="2.05761" fill="rgb(143,143,143)" />
	<circle cx="381" cy="60" r="3.81679" fill="rgb(31,31,31)" />
	<circle cx="16" cy="21" r="4.5045" fill="rgb(11,11,11)" />
	<circle cx="392" cy="366" r="1.70068" fill="rgb(194,194,194)" />
	<circle cx="617" cy="18" r="4.62963" fill="rgb(9,9,9)" />
	<circle cx="59" cy="398" r="1.60772" fill="rgb(211,211,211)" />
	<circle cx="327" cy="370" r="1.68919" fill="rgb(196,196,196)" />
	<circle cx="37" cy="200" r="2.42718" fill="rgb(106,106,106)" />
	<circle cx="499" cy="188" r="2.51256" fill="rgb(99,99,99)" />
	<circle cx="373" cy="188" r="2.51256" fill="rgb(99,99,99)" />
	<circle cx="568" cy="213" r="2.34742" fill="rgb(113,113,113)" />
	<circle cx="512" cy="339" r="1.79211" fill="rgb(180,180,180)" />
	<circle cx="621" cy="92" r="3.37838" fill="rgb(48,48,48)" />
	<circle cx="202" cy="394" r="1.61812" fill="rgb(209,209,209)" />
	<circle cx="622" cy="323" r="1.84502" fill="rgb(171,171,171)" />
	<circle cx="17" cy="252" r="2.14592" fill="rgb(133,133,133)" />
	<circle cx="318" cy="119" r="3.08642" fill="rgb(63,63,63)" />
	<circle cx="438" cy="142" r="2.87356" fill="rgb(75,75,75)" />
	<circle cx="233" cy="284" r="2" fill="rgb(150,150,150)" />
</svg>
