<?xml version="1.0" standalone="no" ?>
<!DOCTYPE svg PUBLIC "-//W3C//DTD SVG 1.1//EN" "http://www.w3.org/Graphics/SVG/1.1/DTD/svg11.dtd">
<svg width="640px" height="480px" xmlns="http://www.w3.org/2000/svg" version="1.1" >
	<circle cx="305" cy="164" r="2.68817" fill="rgb(87,87,87)" />
	<circle cx="384" cy="252" r="2.14592" fill="rgb(133,133,133)" />
	<circle cx="591" cy="370" r="1.67224" fill="rgb(196,196,196)" />
	<circle cx="549" cy="243" r="2.19298" fill="rgb(129,129,129)" />
	<circle cx="356" cy="311" r="1.88679" fill="rgb(165,165,165)" />
	<circle cx="399" cy="170" r="2.6455" fill="rgb(90,90,90)" />
	<circle cx="28" cy="259" r="2.1097" fill="rgb(137,137,137)" />
	<circle cx="226" cy="16" r="4.62963" fill="rgb(8,8,8)" />
	<circle cx="492" cy="115" r="3.125" fill="rgb(61,61,61)" />
	<circle cx="443" cy="166" r="2.6738" fill="rgb(88,88,88)" />
	<circle cx="24" cy="197" r="2.45098" fill="rgb(104,104,104)" />
	<circle cx="341" cy="52" r="3.93701" fill="rgb(27,27,27)" />
	<circle cx="293" cy="52" r="3.93701" fill="rgb(27,27,27)" />
	<circle cx="117" cy="155" r="2.76243" fill="rgb(82,82,82)" />
	<circle cx="23" cy="96" r="3.33333" fill="rgb(50,50,50)" />
	<circle cx="123" cy="347" r="1.74216" fill="rgb(184,184,184)" />
	<circle cx="310" cy="87" r="3.44828" fill="rgb(46,46,46)" />
	<circle cx="148" cy="270" r="2.05761" fill="rgb(143,143,143)" />
	<circle cx="246" cy="51" r="3.96825" fill="rgb(27,27,27)" />
	<circle cx="212" cy="266" r="2.07469" fill="rgb(141,141,141)" />
	<circle cx="76" cy="205" r="2.40385" fill="rgb(108,108,108)" />
	<circle cx="560" cy="77" r="3.57143" fill="rgb(40,40,40)" />
	<circle cx="162" cy="88" r="3.42466" fill="rgb(46,46,46)" />
	<circle cx="403" cy="126" r="3.01205" fill="rgb(66,66,66)" />
	<circle cx="118" cy="107" r="3.20513" fill="rgb(56,56,56)" />
	<circle cx="448" cy="122" r="3.04878" fill="rgb(64,64,64)" />
	<circle cx="430" cy="219" r="2.31481" fill="rgb(116,116,116)" />
	<circle cx="111" cy="61" r="3.81679" fill="rgb(32,32,32)" />
	<circle cx="273" cy="17" r="4.62963" fill="rgb(9,9,9)" />
	<circle cx="621" cy="47" r="4.03226" fill="rgb(24,24,24)" />
	<circle cx="220" cy="126" r="3.01205" fill="rgb(66,66,66)" />
	<circle cx="434" cy="49" r="4" fill="rgb(26,26,26)" />
	<circle cx="163" cy="166" r="2.6738" fill="rgb(88,88,88)" />
	<circle cx="275" cy="417" r="1.51515" fill="rgb(221,221,221)" />
	<circle cx="39" cy="339" r="1.77305" fill="rgb(180,180,180)" />
	<circle cx="211" cy="88" r="3.42466" fill="rgb(46,46,46)" />
	<circle cx="431" cy="283" r="2" fill="rgb(150,150,150)" />
	<circle cx="534" cy="152" r="2.77778" fill="rgb(80,80,80)" />
	<circle cx="319" cy="17" r="4.62963" fill="rgb(9,9,9)" />
	<circle cx="609" cy="244" r="2.18341" fill="rgb(129,129,129)" />
	<circle cx="409" cy="86" r="3.44828" fill="rgb(45,45,45)" />
	<circle cx="579" cy="44" r="4.09836" fill="rgb(23,23,23)" />
	<circle cx="489" cy="155" r="2.76243" fill="rgb(82,82,82)" />
	<circle cx="27" cy="17" r="4.62963" fill="rgb(9,9,9)" />
	<circle cx="205" cy="330" r="1.81159" fill="rgb(175,175,175)" />
	<circle cx="130" cy="210" r="2.36967" fill="rgb(111,111,111)" />
	<circle cx="411" cy="16" r="4.62963" fill="rgb(8,8,8)" />
	<circle cx="126" cy="18" r="4.58716" fill="rgb(9,9,9)" />
	<circle cx="350" cy="166" r="2.6738" fill="rgb(88,88,88)" />
	<circle cx="364" cy="17" r="4.62963" fill="rgb(9,9,9)" />
	<circle cx="178" cy="16" r="4.62963" fill="rgb(8,8,8)" />
	<circle cx="187" cy="214" r="2.34742" fill="rgb(113,113,113)" />
	<circle cx="211" cy="168" r="2.65957" fill="rgb(89,89,89)" />
	<circle cx="20" cy="53" r="3.93701" fill="rgb(28,28,28)" />
	<circle cx="246" cy="213" r="2.35849" fill="rgb(113,113,113)" />
	<circle cx="570" cy="196" r="2.46305" fill="rgb(104,104,104)" />
	<circle cx="616" cy="198" r="2.45098" fill="rgb(105,105,105)" />
	<circle cx="71" cy="104" r="3.24675" fill="rgb(55,55,55)" />
	<circle cx="491" cy="295" r="1.94553" fill="rgb(156,156,156)" />
	<circle cx="612" cy="80" r="3.5461" fill="rgb(42,42,42)" />
	<circle cx="525" cy="196" r="2.46305" fill="rgb(104,104,104)" />
	<circle cx="155" cy="51" r="3.96825" fill="rgb(27,27,27)" />
	<circle cx="170" cy="125" r="3.0303" fill="rgb(66,66,66)" />
	<circle cx="360" cy="87" r="3.44828" fill="rgb(46,46,46)" />
	<circle cx="611" cy="298" r="1.93798" fill="rgb(158,158,158)" />
	<circle cx="329" cy="256" r="2.12766" fill="rgb(135,135,135)" />
	<circle cx="70" cy="152" r="2.77778" fill="rgb(80,80,80)" />
	<circle cx="458" cy="82" r="3.4965" fill="rgb(43,43,43)" />
	<circle cx="261" cy="87" r="3.44828" fill="rgb(46,46,46)" />
	<circle cx="65" cy="59" r="3.84615" fill="rgb(31,31,31)" />
	<circle cx="483" cy="46" r="4.06504" fill="rgb(24,24,24)" />
	<circle cx="552" cy="297" r="1.94553" fill="rgb(157,157,157)" />
	<circle cx="620" cy="116" r="3.10559" fill="rgb(61,61,61)" />
	<circle cx="259" cy="167" r="2.65957" fill="rgb(88,88,88)" />
	<circle cx="509" cy="15" r="4.6729" fill="rgb(7,7,7)" />
	<circle cx="388" cy="51" r="3.96825" fill="rgb(27,27,27)" />
	<circle cx="267" cy="124" r="3.0303" fill="rgb(65,65,65)" />
	<circle cx="560" cy="14" r="4.71698" fill="rgb(7,7,7)" />
	<circle cx="578" cy="112" r="3.16456" fill="rgb(59,59,59)" />
	<circle cx="535" cy="112" r="3.16456" fill="rgb(59,59,59)" />
	<circle cx="478" cy="199" r="2.43902" fill="rgb(105,105,105)" />
	<circle cx="613" cy="14" r="4.6729" fill="rgb(7,7,7)" />
	<circle cx="200" cy="51" r="3.96825" fill="rgb(27,27,27)" />
	<circle cx="365" cy="208" r="2.38095" fill="rgb(110,110,110)" />
	<circle cx="577" cy="152" r="2.77778" fill="rgb(80,80,80)" />
	<circle cx="458" cy="15" r="4.6729" fill="rgb(7,7,7)" />
	<circle cx="358" cy="125" r="3.0303" fill="rgb(66,66,66)" />
	<circle cx="491" cy="243" r="2.19298" fill="rgb(129,129,129)" />
	<circle cx="23" cy="144" r="2.84091" fill="rgb(76,76,76)" />
	<circle cx="508" cy="78" r="3.57143" fill="rgb(41,41,41)" />
	<circle cx="272" cy="261" r="2.10084" fill="rgb(138,138,138)" />
	<circle cx="314" cy="124" r="3.0303" fill="rgb(65,65,65)" />
	<circle cx="78" cy="19" r="4.58716" fill="rgb(10,10,10)" />
	<circle cx="305" cy="209" r="2.38095" fill="rgb(111,111,111)" />
	<circle cx="618" cy="156" r="2.74725" fill="rgb(82,82,82)" />
	<circle cx="532" cy="45" r="4.06504" fill="rgb(23,23,23)" />
	<circle cx="407" cy="361" r="1.70648" fill="rgb(191,191,191)" />
	<circle cx="497" cy="365" r="1.68919" fill="rgb(193,193,193)" />
	<circle cx="87" cy="267" r="2.06612" fill="rgb(141,141,141)" />
	<circle cx="284" cy="322" r="1.84502" fill="rgb(171,171,171)" />
</svg>
