<?xml version="1.0" standalone="no" ?>
<!DOCTYPE svg PUBLIC "-//W3C//DTD SVG 1.1//EN" "http://www.w3.org/Graphics/SVG/1.1/DTD/svg11.dtd">
<svg width="640px" height="480px" xmlns="http://www.w3.org/2000/svg" version="1.1" >
	<circle cx="364" cy="259" r="2.09205" fill="rgb(137,137,137)" />
	<circle cx="75" cy="323" r="1.80505" fill="rgb(171,171,171)" />
	<circle cx="295" cy="107" r="3.18471" fill="rgb(56,56,56)" />
	<circle cx="395" cy="34" r="4.23729" fill="rgb(18,18,18)" />
	<circle cx="48" cy="35" r="4.23729" fill="rgb(18,18,18)" />
	<circle cx="579" cy="241" r="2.1645" fill="rgb(128,128,128)" />
	<circle cx="148" cy="35" r="4.23729" fill="rgb(18,18,18)" />
	<circle cx="47" cy="113" r="3.125" fill="rgb(60,60,60)" />
	<circle cx="117" cy="157" r="2.71739" fill="rgb(83,83,83)" />
	<circle cx="420" cy="372" r="1.59236" fill="rgb(197,197,197)" />
	<circle cx="435" cy="104" r="3.22581" fill="rgb(55,55,55)" />
	<circle cx="468" cy="195" r="2.43902" fill="rgb(103,103,103)" />
	<circle cx="311" cy="187" r="2.5" fill="rgb(99,99,99)" />
	<circle cx="50" cy="217" r="2.31481" fill="rgb(115,115,115)" />
	<circle cx="194" cy="208" r="2.36967" fill="rgb(110,110,110)" />
	<circle cx="186" cy="103" r="3.22581" fill="rgb(55,55,55)" />
	<circle cx="585" cy="113" r="3.10559" fill="rgb(60,60,60)" />
	<circle cx="549" cy="36" r="4.20168" fill="rgb(19,19,19)" />
	<circle cx="269" cy="33" r="4.2735" fill="rgb(17,17,17)" />
	<circle cx="223" cy="317" r="1.8315" fill="rgb(168,168,168)" />
</svg>
