<?xml version="1.0" standalone="no" ?>
<!DOCTYPE svg PUBLIC "-//W3C//DTD SVG 1.1//EN" "http://www.w3.org/Graphics/SVG/1.1/DTD/svg11.dtd">
<svg width="671px" height="433px" xmlns="http://www.w3.org/2000/svg" version="1.1" >
	<circle cx="92" cy="216" r="1.5625" fill="rgb(255,255,255)" />
	<circle cx="499" cy="116" r="2.04082" fill="rgb(247,122,66)" />
	<circle cx="142" cy="136" r="2.21239" fill="rgb(225,98,31)" />
	<circle cx="111" cy="153" r="1.94553" fill="rgb(255,137,91)" />
	<circle cx="263" cy="196" r="2.13675" fill="rgb(213,156,126)" />
	<circle cx="219" cy="268" r="1.77936" fill="rgb(230,191,72)" />
	<circle cx="167" cy="201" r="2.06612" fill="rgb(232,135,38)" />
	<circle cx="313" cy="245" r="2.25225" fill="rgb(221,102,98)" />
	<circle cx="195" cy="123" r="2.17391" fill="rgb(231,106,86)" />
	<circle cx="429" cy="182" r="2.25225" fill="rgb(219,116,50)" />
	<circle cx="259" cy="160" r="2.19298" fill="rgb(240,127,113)" />
	<circle cx="280" cy="61" r="1.94553" fill="rgb(240,125,107)" />
	<circle cx="164" cy="174" r="2.1097" fill="rgb(234,150,126)" />
	<circle cx="142" cy="253" r="1.80505" fill="rgb(244,208,8)" />
	<circle cx="538" cy="55" r="1.99203" fill="rgb(255,167,123)" />
	<circle cx="286" cy="135" r="2.57732" fill="rgb(179,109,119)" />
	<circle cx="306" cy="348" r="2.03252" fill="rgb(175,156,100)" />
	<circle cx="152" cy="225" r="1.87266" fill="rgb(241,158,20)" />
	<circle cx="627" cy="71" r="1.67785" fill="rgb(212,204,131)" />
	<circle cx="530" cy="138" r="2.04082" fill="rgb(234,170,70)" />
	<circle cx="605" cy="219" r="2" fill="rgb(144,143,99)" />
	<circle cx="380" cy="380" r="1.71821" fill="rgb(235,212,100)" />
	<circle cx="148" cy="171" r="2.05761" fill="rgb(211,120,50)" />
	<circle cx="185" cy="158" r="2.24215" fill="rgb(223,87,25)" />
	<circle cx="56" cy="188" r="1.54321" fill="rgb(255,255,255)" />
	<circle cx="387" cy="214" r="2.22222" fill="rgb(193,148,67)" />
	<circle cx="214" cy="195" r="2.00803" fill="rgb(245,120,54)" />
	<circle cx="290" cy="292" r="1.77305" fill="rgb(224,182,98)" />
	<circle cx="468" cy="180" r="2.06612" fill="rgb(169,158,52)" />
	<circle cx="382" cy="404" r="2.35849" fill="rgb(113,97,84)" />
	<circle cx="415" cy="171" r="2.27273" fill="rgb(197,92,44)" />
	<circle cx="182" cy="197" r="2.03252" fill="rgb(234,134,59)" />
	<circle cx="86" cy="245" r="2.11864" fill="rgb(131,127,92)" />
	<circle cx="213" cy="254" r="1.74825" fill="rgb(234,214,39)" />
	<circle cx="218" cy="155" r="2.25225" fill="rgb(235,103,78)" />
	<circle cx="406" cy="109" r="2.15517" fill="rgb(238,100,63)" />
	<circle cx="281" cy="168" r="2.38095" fill="rgb(131,158,151)" />
	<circle cx="321" cy="236" r="2.68817" fill="rgb(110,96,95)" />
	<circle cx="224" cy="36" r="1.8797" fill="rgb(217,215,130)" />
	<circle cx="235" cy="189" r="2.08333" fill="rgb(228,192,0)" />
	<circle cx="439" cy="154" r="2.05761" fill="rgb(235,188,144)" />
	<circle cx="166" cy="135" r="2.1097" fill="rgb(241,110,90)" />
	<circle cx="384" cy="352" r="1.86567" fill="rgb(255,197,127)" />
	<circle cx="443" cy="35" r="1.85185" fill="rgb(240,203,112)" />
	<circle cx="308" cy="286" r="2.12766" fill="rgb(255,255,255)" />
	<circle cx="228" cy="115" r="2.21239" fill="rgb(225,84,74)" />
	<circle cx="116" cy="301" r="2.47525" fill="rgb(108,101,93)" />
	<circle cx="384" cy="334" r="1.87266" fill="rgb(220,176,81)" />
	<circle cx="506" cy="204" r="1.7301" fill="rgb(240,220,97)" />
	<circle cx="468" cy="72" r="1.90114" fill="rgb(166,136,66)" />
	<circle cx="223" cy="281" r="1.76056" fill="rgb(237,221,66)" />
	<circle cx="518" cy="166" r="1.90114" fill="rgb(224,161,0)" />
	<circle cx="236" cy="38" r="1.87266" fill="rgb(207,205,86)" />
	<circle cx="276" cy="330" r="1.87266" fill="rgb(206,162,57)" />
	<circle cx="307" cy="306" r="2.19298" fill="rgb(169,138,118)" />
	<circle cx="363" cy="201" r="2.5641" fill="rgb(199,71,62)" />
	<circle cx="305" cy="359" r="1.76056" fill="rgb(249,207,109)" />
	<circle cx="232" cy="216" r="1.9685" fill="rgb(205,180,79)" />
	<circle cx="546" cy="175" r="1.74216" fill="rgb(234,205,39)" />
	<circle cx="246" cy="220" r="2.05761" fill="rgb(225,172,138)" />
	<circle cx="270" cy="137" r="2.38095" fill="rgb(221,73,73)" />
	<circle cx="128" cy="286" r="1.83824" fill="rgb(209,200,133)" />
	<circle cx="409" cy="293" r="2.40385" fill="rgb(145,115,87)" />
	<circle cx="475" cy="88" r="2.18341" fill="rgb(246,89,38)" />
	<circle cx="134" cy="169" r="2.01613" fill="rgb(253,135,48)" />
	<circle cx="337" cy="181" r="2.32558" fill="rgb(203,105,60)" />
	<circle cx="382" cy="143" r="2.03252" fill="rgb(221,216,38)" />
	<circle cx="421" cy="189" r="2.21239" fill="rgb(193,121,107)" />
	<circle cx="554" cy="130" r="2" fill="rgb(243,147,47)" />
	<circle cx="372" cy="164" r="2.53807" fill="rgb(102,129,156)" />
	<circle cx="421" cy="121" r="2.1645" fill="rgb(227,127,111)" />
	<circle cx="536" cy="108" r="1.98413" fill="rgb(254,143,72)" />
	<circle cx="207" cy="35" r="2.42718" fill="rgb(115,113,101)" />
	<circle cx="137" cy="157" r="2.07469" fill="rgb(214,127,60)" />
	<circle cx="401" cy="278" r="2.36967" fill="rgb(132,107,87)" />
	<circle cx="184" cy="144" r="2.30415" fill="rgb(216,52,24)" />
	<circle cx="313" cy="79" r="3.5461" fill="rgb(47,40,34)" />
	<circle cx="324" cy="138" r="2.59067" fill="rgb(156,57,34)" />
	<circle cx="370" cy="414" r="1.60772" fill="rgb(255,226,73)" />
	<circle cx="421" cy="200" r="2.48756" fill="rgb(60,28,7)" />
	<circle cx="354" cy="348" r="1.50602" fill="rgb(255,255,255)" />
	<circle cx="300" cy="270" r="2.02429" fill="rgb(223,131,46)" />
	<circle cx="610" cy="234" r="2.31481" fill="rgb(106,103,96)" />
	<circle cx="557" cy="116" r="1.90114" fill="rgb(255,173,97)" />
	<circle cx="462" cy="327" r="2.82486" fill="rgb(87,81,69)" />
	<circle cx="632" cy="108" r="1.69492" fill="rgb(212,202,104)" />
	<circle cx="354" cy="234" r="1.66113" fill="rgb(255,255,255)" />
	<circle cx="148" cy="239" r="1.81159" fill="rgb(231,198,41)" />
	<circle cx="444" cy="297" r="2.07469" fill="rgb(196,188,89)" />
	<circle cx="255" cy="181" r="2.14592" fill="rgb(229,86,72)" />
	<circle cx="519" cy="146" r="1.9084" fill="rgb(240,154,107)" />
	<circle cx="573" cy="155" r="1.82482" fill="rgb(240,182,39)" />
	<circle cx="406" cy="156" r="2.33645" fill="rgb(119,136,94)" />
	<circle cx="388" cy="326" r="1.8797" fill="rgb(232,179,103)" />
	<circle cx="21" cy="227" r="2.63158" fill="rgb(91,87,84)" />
	<circle cx="576" cy="116" r="1.91571" fill="rgb(255,165,33)" />
	<circle cx="354" cy="189" r="2.48756" fill="rgb(101,66,70)" />
	<circle cx="300" cy="146" r="2.17391" fill="rgb(173,136,21)" />
	<circle cx="259" cy="213" r="2.10084" fill="rgb(224,113,70)" />
	<circle cx="88" cy="160" r="1.9084" fill="rgb(236,147,5)" />
	<circle cx="375" cy="182" r="2.30415" fill="rgb(191,119,37)" />
	<circle cx="153" cy="141" r="2.14592" fill="rgb(233,120,90)" />
	<circle cx="276" cy="353" r="2.00803" fill="rgb(202,186,163)" />
	<circle cx="272" cy="343" r="1.84502" fill="rgb(230,188,116)" />
	<circle cx="297" cy="305" r="1.93798" fill="rgb(222,153,96)" />
	<circle cx="403" cy="248" r="1.82482" fill="rgb(247,196,17)" />
	<circle cx="659" cy="105" r="2.29358" fill="rgb(120,118,103)" />
	<circle cx="543" cy="163" r="1.89394" fill="rgb(225,178,10)" />
	<circle cx="157" cy="212" r="1.91571" fill="rgb(231,144,31)" />
	<circle cx="84" cy="251" r="1.93798" fill="rgb(173,169,122)" />
	<circle cx="139" cy="146" r="2.04918" fill="rgb(252,122,64)" />
	<circle cx="505" cy="132" r="2.04918" fill="rgb(234,116,20)" />
	<circle cx="604" cy="211" r="2.7933" fill="rgb(69,70,30)" />
	<circle cx="250" cy="96" r="1.98413" fill="rgb(205,195,97)" />
	<circle cx="610" cy="238" r="2.41546" fill="rgb(97,94,87)" />
	<circle cx="563" cy="143" r="1.84502" fill="rgb(240,151,21)" />
	<circle cx="117" cy="300" r="2.24215" fill="rgb(125,119,107)" />
	<circle cx="387" cy="166" r="2.51256" fill="rgb(70,70,104)" />
	<circle cx="384" cy="401" r="2.21239" fill="rgb(150,139,135)" />
	<circle cx="198" cy="239" r="1.63934" fill="rgb(255,255,255)" />
	<circle cx="662" cy="143" r="2.40385" fill="rgb(73,66,60)" />
	<circle cx="608" cy="228" r="2.05761" fill="rgb(158,157,139)" />
	<circle cx="177" cy="261" r="1.71821" fill="rgb(214,200,69)" />
	<circle cx="303" cy="383" r="1.65563" fill="rgb(255,255,255)" />
	<circle cx="590" cy="184" r="1.78571" fill="rgb(231,207,117)" />
	<circle cx="570" cy="96" r="1.89394" fill="rgb(248,169,50)" />
	<circle cx="275" cy="84" r="1.85874" fill="rgb(243,133,100)" />
	<circle cx="389" cy="337" r="2.13675" fill="rgb(179,139,80)" />
	<circle cx="611" cy="242" r="2.20264" fill="rgb(115,113,101)" />
	<circle cx="85" cy="243" r="2.47525" fill="rgb(106,102,93)" />
	<circle cx="123" cy="293" r="2.17391" fill="rgb(172,167,147)" />
	<circle cx="170" cy="163" r="2.29358" fill="rgb(233,104,20)" />
	<circle cx="453" cy="140" r="2.05761" fill="rgb(241,120,111)" />
	<circle cx="432" cy="55" r="1.85185" fill="rgb(240,134,48)" />
	<circle cx="126" cy="147" r="1.93798" fill="rgb(246,142,79)" />
	<circle cx="243" cy="170" r="2.24215" fill="rgb(132,70,49)" />
	<circle cx="449" cy="100" r="1.89394" fill="rgb(255,255,255)" />
	<circle cx="94" cy="170" r="2" fill="rgb(229,148,57)" />
	<circle cx="413" cy="278" r="1.8797" fill="rgb(222,176,99)" />
	<circle cx="485" cy="125" r="2.04918" fill="rgb(239,118,63)" />
	<circle cx="489" cy="101" r="2.05761" fill="rgb(255,122,81)" />
	<circle cx="199" cy="187" r="2.10084" fill="rgb(220,132,68)" />
	<circle cx="84" cy="380" r="1.40845" fill="rgb(255,255,255)" />
	<circle cx="400" cy="273" r="2.40385" fill="rgb(118,115,110)" />
	<circle cx="471" cy="106" r="2.12766" fill="rgb(240,94,55)" />
	<circle cx="552" cy="85" r="1.93798" fill="rgb(255,152,67)" />
	<circle cx="107" cy="166" r="2.13675" fill="rgb(227,117,64)" />
	<circle cx="237" cy="156" r="2.14592" fill="rgb(236,109,68)" />
	<circle cx="116" cy="251" r="1.47059" fill="rgb(255,255,255)" />
	<circle cx="213" cy="135" r="2.24215" fill="rgb(207,65,55)" />
	<circle cx="601" cy="131" r="1.72414" fill="rgb(255,218,47)" />
	<circle cx="427" cy="278" r="1.79856" fill="rgb(241,189,77)" />
	<circle cx="509" cy="33" r="1.52905" fill="rgb(255,255,255)" />
	<circle cx="331" cy="372" r="2.08333" fill="rgb(188,189,132)" />
	<circle cx="373" cy="214" r="2.30415" fill="rgb(226,89,83)" />
	<circle cx="466" cy="337" r="2.36967" fill="rgb(108,105,98)" />
	<circle cx="430" cy="288" r="2.34742" fill="rgb(125,118,99)" />
	<circle cx="451" cy="165" r="2.09205" fill="rgb(199,151,89)" />
	<circle cx="554" cy="193" r="1.84502" fill="rgb(255,255,255)" />
	<circle cx="169" cy="187" r="1.9685" fill="rgb(241,138,61)" />
	<circle cx="477" cy="155" r="1.91571" fill="rgb(246,170,74)" />
	<circle cx="308" cy="259" r="2.14592" fill="rgb(223,99,65)" />
	<circle cx="251" cy="139" r="2.12766" fill="rgb(239,107,92)" />
	<circle cx="382" cy="407" r="2.36967" fill="rgb(97,91,75)" />
	<circle cx="62" cy="210" r="1.7301" fill="rgb(237,220,8)" />
	<circle cx="329" cy="394" r="1.94553" fill="rgb(220,221,163)" />
	<circle cx="514" cy="75" r="1.90114" fill="rgb(255,160,139)" />
	<circle cx="86" cy="193" r="1.81159" fill="rgb(245,191,0)" />
	<circle cx="262" cy="70" r="1.88679" fill="rgb(255,190,114)" />
	<circle cx="136" cy="268" r="1.77936" fill="rgb(230,212,52)" />
	<circle cx="509" cy="95" r="2.01613" fill="rgb(235,137,76)" />
	<circle cx="55" cy="243" r="1.43266" fill="rgb(255,255,255)" />
	<circle cx="278" cy="214" r="1.66667" fill="rgb(255,255,255)" />
	<circle cx="214" cy="35" r="2.01613" fill="rgb(195,190,168)" />
	<circle cx="266" cy="331" r="1.81818" fill="rgb(226,183,78)" />
	<circle cx="354" cy="168" r="2.33645" fill="rgb(219,127,116)" />
	<circle cx="380" cy="363" r="1.63934" fill="rgb(248,224,88)" />
	<circle cx="19" cy="227" r="2.71739" fill="rgb(85,85,77)" />
	<circle cx="265" cy="51" r="1.88679" fill="rgb(251,135,78)" />
	<circle cx="436" cy="74" r="1.83824" fill="rgb(251,144,76)" />
	<circle cx="59" cy="170" r="1.66113" fill="rgb(243,222,43)" />
	<circle cx="407" cy="87" r="2.00803" fill="rgb(250,115,67)" />
	<circle cx="400" cy="125" r="2.26244" fill="rgb(204,63,82)" />
	<circle cx="295" cy="379" r="2.30415" fill="rgb(94,94,68)" />
	<circle cx="180" cy="129" r="2.08333" fill="rgb(247,109,81)" />
	<circle cx="457" cy="318" r="2.35849" fill="rgb(142,130,72)" />
	<circle cx="290" cy="349" r="1.45773" fill="rgb(255,255,255)" />
	<circle cx="452" cy="311" r="2.10084" fill="rgb(207,207,73)" />
	<circle cx="166" cy="228" r="1.81818" fill="rgb(255,255,255)" />
	<circle cx="202" cy="151" r="2.30415" fill="rgb(164,70,60)" />
	<circle cx="448" cy="185" r="2.04918" fill="rgb(225,137,29)" />
	<circle cx="412" cy="68" r="1.9685" fill="rgb(255,134,67)" />
	<circle cx="197" cy="137" r="2.24215" fill="rgb(230,79,48)" />
	<circle cx="492" cy="81" r="2.01613" fill="rgb(255,96,56)" />
	<circle cx="616" cy="93" r="1.53374" fill="rgb(255,255,255)" />
	<circle cx="73" cy="202" r="1.77305" fill="rgb(230,193,0)" />
	<circle cx="430" cy="137" r="2.04082" fill="rgb(242,121,126)" />
	<circle cx="216" cy="83" r="1.48368" fill="rgb(255,255,255)" />
	<circle cx="388" cy="344" r="1.96078" fill="rgb(170,120,47)" />
	<circle cx="47" cy="219" r="1.71233" fill="rgb(239,225,0)" />
	<circle cx="641" cy="27" r="1.9685" fill="rgb(214,212,197)" />
	<circle cx="522" cy="125" r="2.04918" fill="rgb(209,132,76)" />
	<circle cx="320" cy="226" r="2.52525" fill="rgb(158,107,103)" />
	<circle cx="529" cy="94" r="2.06612" fill="rgb(173,128,107)" />
	<circle cx="379" cy="199" r="2.13675" fill="rgb(223,140,36)" />
	<circle cx="540" cy="141" r="2.04082" fill="rgb(222,167,76)" />
	<circle cx="231" cy="292" r="1.81818" fill="rgb(209,193,97)" />
	<circle cx="90" cy="138" r="1.43266" fill="rgb(255,255,255)" />
	<circle cx="416" cy="264" r="1.71821" fill="rgb(249,192,77)" />
	<circle cx="246" cy="119" r="2.18341" fill="rgb(255,96,89)" />
	<circle cx="257" cy="229" r="2.25225" fill="rgb(127,97,73)" />
	<circle cx="41" cy="175" r="1.71233" fill="rgb(230,219,77)" />
	<circle cx="68" cy="259" r="2.45098" fill="rgb(113,106,96)" />
	<circle cx="604" cy="46" r="1.66667" fill="rgb(255,255,255)" />
	<circle cx="277" cy="153" r="2.30415" fill="rgb(84,38,49)" />
	<circle cx="580" cy="169" r="1.76056" fill="rgb(235,208,31)" />
	<circle cx="211" cy="117" r="2.20264" fill="rgb(192,91,83)" />
	<circle cx="445" cy="122" r="2.04918" fill="rgb(232,102,80)" />
	<circle cx="479" cy="51" r="1.92308" fill="rgb(238,206,123)" />
	<circle cx="514" cy="54" r="2.01613" fill="rgb(255,109,86)" />
	<circle cx="230" cy="136" r="2.14592" fill="rgb(217,86,78)" />
	<circle cx="325" cy="287" r="1.71233" fill="rgb(255,255,255)" />
	<circle cx="402" cy="264" r="1.87266" fill="rgb(228,164,64)" />
	<circle cx="399" cy="170" r="2.36967" fill="rgb(107,81,92)" />
	<circle cx="335" cy="104" r="2.23214" fill="rgb(232,108,70)" />
	<circle cx="571" cy="75" r="1.95313" fill="rgb(249,162,59)" />
	<circle cx="445" cy="292" r="2.63158" fill="rgb(80,79,58)" />
	<circle cx="184" cy="176" r="2.05761" fill="rgb(234,118,19)" />
	<circle cx="560" cy="59" r="1.92308" fill="rgb(243,151,66)" />
	<circle cx="408" cy="287" r="2.40385" fill="rgb(196,142,104)" />
	<circle cx="387" cy="371" r="1.9305" fill="rgb(232,223,154)" />
	<circle cx="478" cy="190" r="2.1645" fill="rgb(167,161,135)" />
	<circle cx="588" cy="100" r="1.84502" fill="rgb(236,176,17)" />
	<circle cx="330" cy="199" r="2.43902" fill="rgb(127,91,75)" />
	<circle cx="220" cy="175" r="2.05761" fill="rgb(251,126,104)" />
	<circle cx="302" cy="93" r="1.5873" fill="rgb(255,255,255)" />
	<circle cx="387" cy="227" r="2.1645" fill="rgb(215,127,30)" />
	<circle cx="377" cy="394" r="1.63934" fill="rgb(243,228,83)" />
	<circle cx="465" cy="122" r="2.03252" fill="rgb(255,127,98)" />
	<circle cx="201" cy="168" r="2.11864" fill="rgb(228,96,81)" />
	<circle cx="437" cy="287" r="2.07469" fill="rgb(196,189,57)" />
	<circle cx="379" cy="90" r="1.54799" fill="rgb(255,255,255)" />
	<circle cx="295" cy="281" r="1.87266" fill="rgb(224,147,65)" />
	<circle cx="153" cy="157" r="2.06612" fill="rgb(250,124,47)" />
	<circle cx="458" cy="180" r="2.06612" fill="rgb(168,147,54)" />
	<circle cx="476" cy="217" r="1.45773" fill="rgb(255,255,255)" />
	<circle cx="79" cy="169" r="1.77305" fill="rgb(242,186,51)" />
	<circle cx="409" cy="140" r="2.23214" fill="rgb(186,166,103)" />
	<circle cx="429" cy="169" r="2.23214" fill="rgb(125,64,9)" />
	<circle cx="406" cy="282" r="2.41546" fill="rgb(119,101,81)" />
	<circle cx="383" cy="386" r="2.30415" fill="rgb(111,98,79)" />
	<circle cx="536" cy="75" r="1.88679" fill="rgb(240,151,93)" />
	<circle cx="389" cy="242" r="2.04082" fill="rgb(248,132,47)" />
	<circle cx="7" cy="166" r="2.52525" fill="rgb(100,98,86)" />
	<circle cx="349" cy="104" r="2.38095" fill="rgb(195,145,84)" />
	<circle cx="175" cy="246" r="1.81818" fill="rgb(225,161,61)" />
	<circle cx="32" cy="225" r="1.81818" fill="rgb(221,209,111)" />
	<circle cx="119" cy="298" r="2.21239" fill="rgb(140,134,120)" />
	<circle cx="248" cy="248" r="2.05761" fill="rgb(137,130,120)" />
	<circle cx="423" cy="155" r="2.31481" fill="rgb(221,109,87)" />
	<circle cx="270" cy="317" r="1.77305" fill="rgb(246,210,100)" />
	<circle cx="463" cy="159" r="2.07469" fill="rgb(189,195,99)" />
	<circle cx="493" cy="62" r="2.20264" fill="rgb(239,211,65)" />
	<circle cx="597" cy="199" r="1.9305" fill="rgb(192,186,126)" />
	<circle cx="433" cy="294" r="2.45098" fill="rgb(116,122,76)" />
	<circle cx="142" cy="198" r="1.76056" fill="rgb(255,255,255)" />
	<circle cx="284" cy="306" r="1.7301" fill="rgb(223,199,89)" />
	<circle cx="357" cy="146" r="2.32558" fill="rgb(229,149,34)" />
	<circle cx="478" cy="173" r="1.92308" fill="rgb(226,189,22)" />
	<circle cx="467" cy="204" r="2.42718" fill="rgb(103,93,81)" />
	<circle cx="115" cy="303" r="2.27273" fill="rgb(126,118,115)" />
	<circle cx="268" cy="116" r="1.94553" fill="rgb(246,193,77)" />
	<circle cx="499" cy="218" r="1.76678" fill="rgb(228,218,61)" />
	<circle cx="272" cy="181" r="2.35849" fill="rgb(191,79,75)" />
	<circle cx="552" cy="102" r="2.05761" fill="rgb(208,137,85)" />
	<circle cx="169" cy="150" r="2.20264" fill="rgb(255,125,76)" />
	<circle cx="472" cy="140" r="2.03252" fill="rgb(250,134,57)" />
	<circle cx="246" cy="202" r="2.00803" fill="rgb(155,109,13)" />
	<circle cx="274" cy="337" r="1.83824" fill="rgb(227,185,109)" />
	<circle cx="250" cy="43" r="1.88679" fill="rgb(249,187,130)" />
	<circle cx="448" cy="304" r="2.15517" fill="rgb(196,187,50)" />
	<circle cx="155" cy="284" r="1.42857" fill="rgb(255,255,255)" />
	<circle cx="119" cy="188" r="1.81818" fill="rgb(255,255,255)" />
	<circle cx="517" cy="110" r="2.00803" fill="rgb(229,144,79)" />
	<circle cx="341" cy="139" r="2.7027" fill="rgb(196,82,48)" />
	<circle cx="424" cy="95" r="1.87266" fill="rgb(245,141,78)" />
	<circle cx="399" cy="232" r="2.21239" fill="rgb(181,123,103)" />
	<circle cx="282" cy="319" r="1.73611" fill="rgb(241,205,119)" />
	<circle cx="99" cy="157" r="1.9305" fill="rgb(244,146,49)" />
	<circle cx="440" cy="175" r="2.08333" fill="rgb(217,146,84)" />
	<circle cx="457" cy="43" r="1.85185" fill="rgb(244,218,61)" />
	<circle cx="656" cy="142" r="2.76243" fill="rgb(106,98,95)" />
	<circle cx="337" cy="159" r="2.57732" fill="rgb(221,48,6)" />
	<circle cx="381" cy="343" r="1.80505" fill="rgb(217,153,21)" />
	<circle cx="539" cy="124" r="1.99203" fill="rgb(243,136,38)" />
	<circle cx="117" cy="171" r="2.10084" fill="rgb(239,132,62)" />
	<circle cx="601" cy="210" r="1.93798" fill="rgb(186,178,79)" />
	<circle cx="122" cy="160" r="2.10084" fill="rgb(222,130,91)" />
	<circle cx="103" cy="177" r="2.14592" fill="rgb(207,140,87)" />
	<circle cx="77" cy="254" r="2.24215" fill="rgb(142,135,125)" />
</svg>
