<?xml version="1.0" standalone="no" ?>
<!DOCTYPE svg PUBLIC "-//W3C//DTD SVG 1.1//EN" "http://www.w3.org/Graphics/SVG/1.1/DTD/svg11.dtd">
<svg width="671px" height="433px" xmlns="http://www.w3.org/2000/svg" version="1.1" >
	<circle cx="522.225" cy="68.3122" r="1.42857" fill="rgb(241,155,122)" />
	<circle cx="82.3962" cy="23.2029" r="1.40845" fill="rgb(255,255,255)" />
	<circle cx="228.084" cy="36.0289" r="1.62338" fill="rgb(212,210,110)" />
	<circle cx="2.54427" cy="163.58" r="1.48368" fill="rgb(134,132,120)" />
	<circle cx="252.72" cy="137.963" r="2.15517" fill="rgb(234,98,84)" />
	<circle cx="147.865" cy="144.153" r="2.11864" fill="rgb(227,109,63)" />
	<circle cx="91.8195" cy="328.246" r="1.40845" fill="rgb(255,255,255)" />
	<circle cx="49.696" cy="17.6809" r="1.40845" fill="rgb(255,255,255)" />
	<circle cx="351.067" cy="179.248" r="2.34742" fill="rgb(165,88,96)" />
	<circle cx="272.562" cy="19.1647" r="1.40845" fill="rgb(255,255,255)" />
	<circle cx="478.198" cy="169.921" r="1.87266" fill="rgb(233,173,43)" />
	<circle cx="69.3008" cy="130.834" r="1.40845" fill="rgb(255,255,255)" />
	<circle cx="300.534" cy="135.473" r="2.41546" fill="rgb(220,75,90)" />
	<circle cx="447.263" cy="301.449" r="1.59236" fill="rgb(191,169,86)" />
	<circle cx="636.888" cy="107.786" r="1.5528" fill="rgb(170,163,83)" />
	<circle cx="438.961" cy="68.7566" r="1.83824" fill="rgb(253,150,71)" />
	<circle cx="158.044" cy="156.703" r="2.1097" fill="rgb(246,119,26)" />
	<circle cx="241.97" cy="207.384" r="1.96078" fill="rgb(220,187,20)" />
	<circle cx="496.415" cy="218.46" r="1.57233" fill="rgb(233,221,99)" />
	<circle cx="38.3401" cy="223.441" r="1.62866" fill="rgb(230,223,57)" />
	<circle cx="337.354" cy="129.181" r="3.08642" fill="rgb(116,24,9)" />
	<circle cx="521.975" cy="95.4678" r="2.08333" fill="rgb(255,121,38)" />
	<circle cx="542.815" cy="163.897" r="1.70648" fill="rgb(229,182,4)" />
	<circle cx="195.015" cy="146.707" r="2.28311" fill="rgb(227,85,49)" />
	<circle cx="283.82" cy="78.9243" r="1.71821" fill="rgb(250,143,127)" />
	<circle cx="385.989" cy="164.684" r="2.53807" fill="rgb(78,90,114)" />
	<circle cx="102.369" cy="147.592" r="1.6835" fill="rgb(93,56,37)" />
	<circle cx="292.714" cy="310.756" r="1.8797" fill="rgb(222,157,99)" />
	<circle cx="490.677" cy="84.3337" r="2.06612" fill="rgb(245,95,60)" />
	<circle cx="32.3394" cy="245.349" r="1.40845" fill="rgb(255,255,255)" />
	<circle cx="273.404" cy="306.214" r="1.5625" fill="rgb(197,173,99)" />
	<circle cx="110.385" cy="156.09" r="1.94553" fill="rgb(244,134,57)" />
	<circle cx="558.524" cy="101.664" r="2.03252" fill="rgb(147,87,35)" />
	<circle cx="272.007" cy="131.882" r="2.43902" fill="rgb(138,79,75)" />
	<circle cx="186.014" cy="19.0712" r="1.40845" fill="rgb(255,255,255)" />
	<circle cx="409.365" cy="287.765" r="1.67785" fill="rgb(186,137,104)" />
	<circle cx="391.859" cy="104.304" r="1.77936" fill="rgb(134,98,86)" />
	<circle cx="326.986" cy="110.059" r="1.77936" fill="rgb(189,104,84)" />
	<circle cx="507.893" cy="80.4402" r="1.91571" fill="rgb(255,146,102)" />
	<circle cx="189.876" cy="203.614" r="2.03252" fill="rgb(223,129,78)" />
	<circle cx="382.298" cy="149.376" r="1.9305" fill="rgb(109,132,26)" />
	<circle cx="36.1931" cy="386.71" r="1.40845" fill="rgb(255,255,255)" />
	<circle cx="196.036" cy="119.369" r="2.18341" fill="rgb(234,85,63)" />
	<circle cx="175.803" cy="251.781" r="1.60256" fill="rgb(242,204,95)" />
	<circle cx="495.343" cy="137.821" r="2.04082" fill="rgb(223,120,51)" />
	<circle cx="320.971" cy="219.093" r="2.18341" fill="rgb(181,96,93)" />
	<circle cx="315.064" cy="125.341" r="1.76056" fill="rgb(139,82,73)" />
	<circle cx="45.7503" cy="417.058" r="1.40845" fill="rgb(255,255,255)" />
	<circle cx="139.279" cy="261.079" r="1.66113" fill="rgb(210,193,17)" />
	<circle cx="526.267" cy="292.105" r="1.40845" fill="rgb(255,255,255)" />
	<circle cx="404.343" cy="176.486" r="2.18341" fill="rgb(137,92,86)" />
	<circle cx="302.008" cy="383.388" r="1.5625" fill="rgb(237,230,100)" />
	<circle cx="553.61" cy="44.5189" r="1.79856" fill="rgb(255,109,64)" />
	<circle cx="314.634" cy="139.218" r="2.34742" fill="rgb(184,102,91)" />
	<circle cx="232.167" cy="228.746" r="1.91571" fill="rgb(110,100,98)" />
	<circle cx="266.86" cy="56.9948" r="1.85874" fill="rgb(239,133,75)" />
	<circle cx="395.716" cy="119.368" r="2.42718" fill="rgb(110,21,17)" />
	<circle cx="174.139" cy="413.772" r="1.40845" fill="rgb(255,255,255)" />
	<circle cx="106.637" cy="183.33" r="1.77936" fill="rgb(231,140,7)" />
	<circle cx="5.51445" cy="14.4393" r="1.40845" fill="rgb(255,255,255)" />
	<circle cx="338.432" cy="286.324" r="1.54799" fill="rgb(83,72,70)" />
	<circle cx="162.674" cy="20.8935" r="1.40845" fill="rgb(255,255,255)" />
	<circle cx="331.766" cy="85.5559" r="1.70068" fill="rgb(149,115,106)" />
	<circle cx="86.2059" cy="74.0906" r="1.40845" fill="rgb(255,255,255)" />
	<circle cx="286.816" cy="416.137" r="1.40845" fill="rgb(255,255,255)" />
	<circle cx="98.3518" cy="158.824" r="1.9084" fill="rgb(237,140,46)" />
	<circle cx="155.043" cy="215.663" r="1.85185" fill="rgb(231,148,30)" />
	<circle cx="266.052" cy="89.9111" r="1.79211" fill="rgb(253,137,86)" />
	<circle cx="101.127" cy="234.092" r="1.6835" fill="rgb(238,223,94)" />
	<circle cx="170.278" cy="204.487" r="2.12766" fill="rgb(161,134,113)" />
	<circle cx="328.664" cy="96.3431" r="1.97628" fill="rgb(128,88,78)" />
	<circle cx="300.526" cy="158.523" r="2" fill="rgb(71,121,83)" />
	<circle cx="152.067" cy="45.8891" r="1.40845" fill="rgb(255,255,255)" />
	<circle cx="646.886" cy="170.298" r="1.40845" fill="rgb(255,255,255)" />
	<circle cx="154.263" cy="130.609" r="2.1097" fill="rgb(234,100,39)" />
	<circle cx="266.919" cy="73.1898" r="1.86567" fill="rgb(253,144,88)" />
	<circle cx="369.257" cy="201.434" r="2.38095" fill="rgb(95,51,48)" />
	<circle cx="15.077" cy="418.775" r="1.40845" fill="rgb(255,255,255)" />
	<circle cx="59.4716" cy="167.896" r="1.60256" fill="rgb(255,255,255)" />
	<circle cx="467.962" cy="76.1659" r="1.96078" fill="rgb(161,92,63)" />
	<circle cx="544.846" cy="66.9706" r="1.91571" fill="rgb(227,150,106)" />
	<circle cx="77.466" cy="417.01" r="1.40845" fill="rgb(255,255,255)" />
	<circle cx="407.963" cy="50.0762" r="1.66113" fill="rgb(151,68,52)" />
	<circle cx="363.397" cy="137.434" r="2.20264" fill="rgb(216,95,50)" />
	<circle cx="586.686" cy="124.938" r="1.79211" fill="rgb(255,187,63)" />
	<circle cx="331.047" cy="141.049" r="2.46305" fill="rgb(203,71,48)" />
	<circle cx="70.311" cy="162.63" r="1.60256" fill="rgb(193,185,87)" />
	<circle cx="263.072" cy="212.056" r="1.79856" fill="rgb(190,113,61)" />
	<circle cx="579.194" cy="104.95" r="1.97628" fill="rgb(181,148,97)" />
	<circle cx="416.035" cy="161.274" r="2.33645" fill="rgb(208,72,46)" />
	<circle cx="462.633" cy="130.261" r="2" fill="rgb(242,126,87)" />
	<circle cx="236.952" cy="107.933" r="2.22222" fill="rgb(164,63,55)" />
	<circle cx="10.0241" cy="255.228" r="1.40845" fill="rgb(255,255,255)" />
	<circle cx="230.965" cy="146.402" r="2.14592" fill="rgb(238,82,57)" />
	<circle cx="11.4923" cy="392.143" r="1.40845" fill="rgb(255,255,255)" />
	<circle cx="393.324" cy="63.1629" r="1.5625" fill="rgb(113,68,71)" />
	<circle cx="599.928" cy="401.85" r="1.40845" fill="rgb(255,255,255)" />
	<circle cx="28.3231" cy="291.224" r="1.40845" fill="rgb(255,255,255)" />
	<circle cx="498.336" cy="118.199" r="2.07469" fill="rgb(245,125,73)" />
	<circle cx="283.918" cy="162.575" r="2.34742" fill="rgb(100,129,71)" />
	<circle cx="372.889" cy="253.322" r="1.59236" fill="rgb(151,98,94)" />
	<circle cx="234.698" cy="168.504" r="2.12766" fill="rgb(239,115,61)" />
	<circle cx="114.914" cy="167.31" r="2.27273" fill="rgb(49,30,0)" />
	<circle cx="352.054" cy="123.876" r="2.17391" fill="rgb(211,202,197)" />
	<circle cx="164.343" cy="171.572" r="2.11864" fill="rgb(124,75,43)" />
	<circle cx="389.412" cy="207.045" r="1.96078" fill="rgb(215,130,23)" />
	<circle cx="285.16" cy="49.6974" r="1.70648" fill="rgb(232,100,85)" />
	<circle cx="530.685" cy="237.55" r="1.40845" fill="rgb(255,255,255)" />
	<circle cx="234.389" cy="127.023" r="2.15517" fill="rgb(247,87,73)" />
	<circle cx="131.066" cy="146.288" r="1.95313" fill="rgb(249,138,82)" />
	<circle cx="563.973" cy="261.047" r="1.41243" fill="rgb(255,255,255)" />
	<circle cx="642.821" cy="248.928" r="1.40845" fill="rgb(255,255,255)" />
	<circle cx="50.4106" cy="180.085" r="1.60772" fill="rgb(231,215,119)" />
	<circle cx="332.5" cy="172.983" r="2.24215" fill="rgb(244,95,71)" />
	<circle cx="420.918" cy="329.225" r="1.40845" fill="rgb(255,255,255)" />
	<circle cx="27.9859" cy="99.1512" r="1.40845" fill="rgb(255,255,255)" />
	<circle cx="359.695" cy="71.2736" r="1.40845" fill="rgb(255,255,255)" />
	<circle cx="612.106" cy="132.52" r="1.67224" fill="rgb(243,212,62)" />
	<circle cx="132.42" cy="277.679" r="1.60256" fill="rgb(221,216,125)" />
	<circle cx="510.091" cy="196.033" r="1.58228" fill="rgb(241,214,73)" />
	<circle cx="8.46447" cy="185.825" r="1.40845" fill="rgb(255,255,255)" />
	<circle cx="640.544" cy="412.212" r="1.40845" fill="rgb(255,255,255)" />
	<circle cx="598.122" cy="344.782" r="1.40845" fill="rgb(255,255,255)" />
	<circle cx="264.719" cy="329.541" r="1.57233" fill="rgb(221,194,139)" />
	<circle cx="201.041" cy="300.933" r="1.40845" fill="rgb(255,255,255)" />
	<circle cx="18.8933" cy="15.3867" r="1.40845" fill="rgb(255,255,255)" />
	<circle cx="361.443" cy="19.0497" r="1.40845" fill="rgb(255,255,255)" />
	<circle cx="160.926" cy="376.614" r="1.40845" fill="rgb(255,255,255)" />
	<circle cx="510.32" cy="54.0293" r="2.02429" fill="rgb(228,104,53)" />
	<circle cx="366.001" cy="393.35" r="1.4881" fill="rgb(114,106,67)" />
	<circle cx="151.099" cy="344.578" r="1.40845" fill="rgb(255,255,255)" />
	<circle cx="19.1815" cy="226.394" r="1.52439" fill="rgb(98,98,90)" />
	<circle cx="216.471" cy="161.085" r="2.21239" fill="rgb(240,84,61)" />
	<circle cx="7.70861" cy="303.706" r="1.40845" fill="rgb(255,255,255)" />
	<circle cx="42.9105" cy="83.238" r="1.40845" fill="rgb(255,255,255)" />
	<circle cx="635.048" cy="31.3915" r="1.47493" fill="rgb(178,181,114)" />
	<circle cx="219.755" cy="203.488" r="2.05761" fill="rgb(82,52,41)" />
	<circle cx="285.546" cy="112.03" r="1.71821" fill="rgb(240,144,120)" />
	<circle cx="445.026" cy="22.9306" r="2.00803" fill="rgb(102,105,74)" />
	<circle cx="7.75358" cy="65.6791" r="1.40845" fill="rgb(255,255,255)" />
	<circle cx="365.51" cy="230.957" r="1.68919" fill="rgb(182,95,78)" />
	<circle cx="443.123" cy="86.4463" r="1.79211" fill="rgb(249,162,69)" />
	<circle cx="397.349" cy="221.117" r="1.88679" fill="rgb(210,138,4)" />
	<circle cx="54.7829" cy="360.274" r="1.40845" fill="rgb(255,255,255)" />
	<circle cx="537.838" cy="111.203" r="1.9685" fill="rgb(226,136,76)" />
	<circle cx="391.506" cy="249.62" r="1.8797" fill="rgb(208,137,73)" />
	<circle cx="243.199" cy="16.9805" r="1.40845" fill="rgb(255,255,255)" />
	<circle cx="289.081" cy="126.502" r="2.14592" fill="rgb(211,133,123)" />
	<circle cx="302.688" cy="246.538" r="1.66113" fill="rgb(150,100,89)" />
	<circle cx="472.119" cy="57.501" r="1.9685" fill="rgb(90,58,9)" />
	<circle cx="490.765" cy="264.144" r="1.40845" fill="rgb(255,255,255)" />
	<circle cx="527.216" cy="393.944" r="1.40845" fill="rgb(255,255,255)" />
	<circle cx="119.239" cy="19.4929" r="1.40845" fill="rgb(255,255,255)" />
	<circle cx="92.4841" cy="189.158" r="1.83824" fill="rgb(239,161,0)" />
	<circle cx="210.809" cy="240.401" r="1.67785" fill="rgb(226,157,4)" />
	<circle cx="114.379" cy="223.096" r="1.60772" fill="rgb(176,155,38)" />
	<circle cx="530.204" cy="16.8326" r="1.40845" fill="rgb(255,255,255)" />
	<circle cx="194.132" cy="161.002" r="2.19298" fill="rgb(224,86,47)" />
	<circle cx="381.17" cy="132.521" r="2.24215" fill="rgb(217,100,93)" />
	<circle cx="375.289" cy="216.945" r="2.32558" fill="rgb(234,102,90)" />
	<circle cx="104.451" cy="268.741" r="1.40845" fill="rgb(255,255,255)" />
	<circle cx="317.459" cy="201.571" r="1.67785" fill="rgb(216,95,87)" />
	<circle cx="43.7942" cy="60.3244" r="1.40845" fill="rgb(255,255,255)" />
	<circle cx="115.703" cy="353.257" r="1.40845" fill="rgb(255,255,255)" />
	<circle cx="226.544" cy="186.245" r="2.1097" fill="rgb(214,113,93)" />
	<circle cx="22.8632" cy="315.992" r="1.40845" fill="rgb(255,255,255)" />
	<circle cx="349.945" cy="197.752" r="2.59067" fill="rgb(66,37,39)" />
	<circle cx="244.388" cy="413.457" r="1.40845" fill="rgb(255,255,255)" />
	<circle cx="324.406" cy="50.2006" r="1.40845" fill="rgb(255,255,255)" />
	<circle cx="83.4314" cy="357.443" r="1.40845" fill="rgb(255,255,255)" />
	<circle cx="132.466" cy="169.611" r="2.03252" fill="rgb(255,134,47)" />
	<circle cx="334.482" cy="207.234" r="2.22222" fill="rgb(220,120,42)" />
	<circle cx="455.932" cy="148.543" r="2.06612" fill="rgb(220,202,118)" />
	<circle cx="309.919" cy="231.379" r="1.63399" fill="rgb(139,91,81)" />
	<circle cx="363.844" cy="43.9847" r="1.40845" fill="rgb(255,255,255)" />
	<circle cx="25.4647" cy="51.5897" r="1.40845" fill="rgb(255,255,255)" />
	<circle cx="78.2571" cy="278.538" r="1.40845" fill="rgb(255,255,255)" />
	<circle cx="458.655" cy="322.175" r="1.52905" fill="rgb(121,115,99)" />
	<circle cx="38.171" cy="334.844" r="1.40845" fill="rgb(255,255,255)" />
	<circle cx="435.476" cy="137.714" r="2" fill="rgb(234,109,81)" />
	<circle cx="241.602" cy="38.9499" r="1.78571" fill="rgb(222,202,87)" />
	<circle cx="450.454" cy="32.5739" r="1.99203" fill="rgb(63,60,53)" />
	<circle cx="620.027" cy="186.127" r="1.40845" fill="rgb(255,255,255)" />
	<circle cx="64.9735" cy="387.985" r="1.40845" fill="rgb(255,255,255)" />
	<circle cx="479.975" cy="123.33" r="2.03252" fill="rgb(255,134,90)" />
	<circle cx="250.459" cy="185.199" r="2.06612" fill="rgb(178,128,103)" />
	<circle cx="179.154" cy="273.553" r="1.5674" fill="rgb(195,198,129)" />
	<circle cx="548.864" cy="184.793" r="1.54799" fill="rgb(225,226,36)" />
	<circle cx="322.948" cy="167.619" r="1.84502" fill="rgb(99,51,49)" />
	<circle cx="295.897" cy="265.035" r="1.66667" fill="rgb(204,111,50)" />
	<circle cx="67.039" cy="15.3442" r="1.40845" fill="rgb(255,255,255)" />
	<circle cx="586.146" cy="83.4077" r="1.92308" fill="rgb(73,45,6)" />
	<circle cx="467.01" cy="406.243" r="1.40845" fill="rgb(255,255,255)" />
	<circle cx="211.362" cy="103.027" r="1.79856" fill="rgb(226,110,95)" />
	<circle cx="161.282" cy="123.262" r="1.67224" fill="rgb(73,43,17)" />
	<circle cx="407.98" cy="113.116" r="2.22222" fill="rgb(228,88,73)" />
	<circle cx="174.908" cy="188.135" r="2.01613" fill="rgb(229,127,52)" />
	<circle cx="144.145" cy="311.452" r="1.40845" fill="rgb(255,255,255)" />
	<circle cx="558.431" cy="141.197" r="1.82482" fill="rgb(255,176,34)" />
	<circle cx="63.9279" cy="35.3486" r="1.40845" fill="rgb(255,255,255)" />
	<circle cx="251.11" cy="71.2267" r="2.04918" fill="rgb(216,210,158)" />
	<circle cx="58.6682" cy="210.437" r="1.72414" fill="rgb(241,214,47)" />
	<circle cx="336.015" cy="344.049" r="1.5625" fill="rgb(118,90,53)" />
	<circle cx="477.857" cy="148.436" r="1.96078" fill="rgb(246,135,54)" />
	<circle cx="71.602" cy="209.13" r="1.73611" fill="rgb(179,160,102)" />
	<circle cx="609.304" cy="235.336" r="1.45349" fill="rgb(122,119,112)" />
	<circle cx="79.2384" cy="175.015" r="1.82482" fill="rgb(240,183,14)" />
	<circle cx="102.903" cy="170.531" r="2.23214" fill="rgb(219,129,76)" />
	<circle cx="563.269" cy="81.5909" r="1.91571" fill="rgb(163,127,91)" />
	<circle cx="248.877" cy="158.523" r="2.21239" fill="rgb(199,107,58)" />
	<circle cx="417.568" cy="70.2432" r="1.90114" fill="rgb(252,133,67)" />
	<circle cx="163.526" cy="143.216" r="2.15517" fill="rgb(193,107,94)" />
	<circle cx="531.349" cy="149.278" r="2.06612" fill="rgb(46,29,21)" />
	<circle cx="394.47" cy="74.4032" r="1.66113" fill="rgb(161,102,94)" />
	<circle cx="33.1516" cy="174.03" r="1.67785" fill="rgb(210,196,89)" />
	<circle cx="457.179" cy="49.7061" r="1.74825" fill="rgb(255,158,77)" />
	<circle cx="98.5787" cy="16.368" r="1.40845" fill="rgb(255,255,255)" />
	<circle cx="173.301" cy="314.257" r="1.40845" fill="rgb(255,255,255)" />
	<circle cx="594.748" cy="196.578" r="1.57233" fill="rgb(219,210,133)" />
	<circle cx="120.369" cy="206.937" r="1.67785" fill="rgb(249,169,54)" />
	<circle cx="511.519" cy="149.874" r="1.77936" fill="rgb(213,147,87)" />
	<circle cx="330.854" cy="21.8697" r="1.40845" fill="rgb(255,255,255)" />
	<circle cx="71.7704" cy="305.198" r="1.40845" fill="rgb(255,255,255)" />
	<circle cx="516.842" cy="130.968" r="2.00803" fill="rgb(229,118,47)" />
	<circle cx="501.328" cy="42.7236" r="1.8315" fill="rgb(131,97,25)" />
	<circle cx="395.817" cy="87.6844" r="1.71233" fill="rgb(180,101,88)" />
	<circle cx="46.7043" cy="310.021" r="1.40845" fill="rgb(255,255,255)" />
	<circle cx="333.035" cy="155.726" r="2.35849" fill="rgb(215,75,52)" />
	<circle cx="582.738" cy="175.45" r="1.60256" fill="rgb(239,228,22)" />
	<circle cx="183.004" cy="137.606" r="2.21239" fill="rgb(226,95,51)" />
	<circle cx="639.028" cy="369.028" r="1.40845" fill="rgb(255,255,255)" />
	<circle cx="44.6038" cy="168.89" r="1.55763" fill="rgb(155,153,130)" />
	<circle cx="79.1753" cy="225.308" r="1.40845" fill="rgb(255,255,255)" />
	<circle cx="300.897" cy="23.612" r="1.40845" fill="rgb(255,255,255)" />
	<circle cx="426.207" cy="178.437" r="2.22222" fill="rgb(187,91,49)" />
	<circle cx="234.105" cy="48.0774" r="1.62338" fill="rgb(255,255,255)" />
	<circle cx="306.816" cy="290.336" r="1.92308" fill="rgb(179,155,143)" />
	<circle cx="519.325" cy="41.5015" r="1.7301" fill="rgb(246,135,126)" />
	<circle cx="108.591" cy="91.2951" r="1.40845" fill="rgb(255,255,255)" />
	<circle cx="128.513" cy="381.473" r="1.40845" fill="rgb(255,255,255)" />
	<circle cx="312.434" cy="273.264" r="1.96078" fill="rgb(90,51,36)" />
	<circle cx="411.428" cy="85.3159" r="1.96078" fill="rgb(255,126,61)" />
	<circle cx="284.686" cy="143.166" r="2.41546" fill="rgb(187,92,44)" />
	<circle cx="30.2099" cy="267.493" r="1.40845" fill="rgb(255,255,255)" />
	<circle cx="280.758" cy="329.092" r="1.71821" fill="rgb(217,180,135)" />
	<circle cx="228.828" cy="366.839" r="1.40845" fill="rgb(255,255,255)" />
	<circle cx="57.0147" cy="238.147" r="1.40845" fill="rgb(255,255,255)" />
	<circle cx="95.9398" cy="384.975" r="1.40845" fill="rgb(255,255,255)" />
	<circle cx="639.282" cy="325.838" r="1.40845" fill="rgb(255,255,255)" />
	<circle cx="461.259" cy="92.4475" r="1.94553" fill="rgb(181,136,95)" />
	<circle cx="563.086" cy="63.4731" r="1.94553" fill="rgb(237,173,137)" />
	<circle cx="441.97" cy="50.9365" r="1.81159" fill="rgb(255,167,32)" />
	<circle cx="479.085" cy="193.738" r="1.92308" fill="rgb(196,192,154)" />
	<circle cx="274.561" cy="350.641" r="1.5873" fill="rgb(196,162,114)" />
	<circle cx="178.268" cy="149.729" r="2.28311" fill="rgb(173,75,46)" />
	<circle cx="403.952" cy="414.839" r="1.40845" fill="rgb(255,255,255)" />
	<circle cx="488.17" cy="26.276" r="1.52439" fill="rgb(72,66,54)" />
	<circle cx="369.84" cy="416.821" r="1.50602" fill="rgb(242,210,75)" />
	<circle cx="542.454" cy="91.1411" r="1.9685" fill="rgb(241,142,77)" />
	<circle cx="101.514" cy="119.936" r="1.40845" fill="rgb(255,255,255)" />
	<circle cx="385.811" cy="191.926" r="2.05761" fill="rgb(184,115,60)" />
	<circle cx="223.249" cy="113.215" r="2.20264" fill="rgb(220,88,83)" />
	<circle cx="49.3663" cy="218.566" r="1.71233" fill="rgb(251,230,0)" />
	<circle cx="119.39" cy="244.628" r="1.41243" fill="rgb(255,255,255)" />
	<circle cx="207.435" cy="175.424" r="2.10084" fill="rgb(254,111,77)" />
	<circle cx="434.362" cy="23.4294" r="1.5528" fill="rgb(52,33,19)" />
	<circle cx="395.516" cy="21.9223" r="1.40845" fill="rgb(255,255,255)" />
	<circle cx="122.32" cy="293.952" r="1.59744" fill="rgb(112,106,90)" />
	<circle cx="135.384" cy="135.521" r="1.79211" fill="rgb(117,57,29)" />
	<circle cx="155.492" cy="181.9" r="2.17391" fill="rgb(81,68,60)" />
	<circle cx="285.98" cy="284.267" r="1.58228" fill="rgb(212,172,113)" />
	<circle cx="434.932" cy="158.209" r="2.13675" fill="rgb(199,141,68)" />
	<circle cx="455.344" cy="242.248" r="1.40845" fill="rgb(255,255,255)" />
	<circle cx="150.67" cy="229.705" r="1.74216" fill="rgb(235,163,55)" />
	<circle cx="518.017" cy="113.697" r="2" fill="rgb(196,116,65)" />
	<circle cx="424.222" cy="120.673" r="2.09205" fill="rgb(243,129,95)" />
	<circle cx="454.355" cy="67.8904" r="1.76056" fill="rgb(255,159,66)" />
	<circle cx="419.873" cy="99.7714" r="1.90114" fill="rgb(255,146,92)" />
	<circle cx="7.38561" cy="165.854" r="1.57233" fill="rgb(115,113,101)" />
	<circle cx="52.0632" cy="285.491" r="1.40845" fill="rgb(255,255,255)" />
	<circle cx="43.5501" cy="38.1027" r="1.40845" fill="rgb(255,255,255)" />
	<circle cx="173.244" cy="119.361" r="1.79211" fill="rgb(119,45,34)" />
	<circle cx="404.868" cy="74.8263" r="2.04918" fill="rgb(245,103,63)" />
	<circle cx="596.66" cy="290.764" r="1.40845" fill="rgb(255,255,255)" />
	<circle cx="434.967" cy="107.148" r="1.8315" fill="rgb(255,192,79)" />
	<circle cx="166.336" cy="92.8269" r="1.40845" fill="rgb(255,255,255)" />
	<circle cx="639.019" cy="285.609" r="1.40845" fill="rgb(255,255,255)" />
	<circle cx="73.3809" cy="185.418" r="1.69492" fill="rgb(255,255,255)" />
	<circle cx="286.251" cy="180.812" r="1.97628" fill="rgb(95,135,161)" />
	<circle cx="397.865" cy="271.79" r="1.9084" fill="rgb(93,85,62)" />
	<circle cx="139.578" cy="155.438" r="2.07469" fill="rgb(197,110,67)" />
	<circle cx="357.221" cy="162.698" r="2.45098" fill="rgb(91,104,120)" />
	<circle cx="64.5417" cy="332.663" r="1.40845" fill="rgb(255,255,255)" />
	<circle cx="33.993" cy="16.9126" r="1.40845" fill="rgb(255,255,255)" />
	<circle cx="141.176" cy="414.555" r="1.40845" fill="rgb(255,255,255)" />
	<circle cx="156.016" cy="197.823" r="1.80505" fill="rgb(209,128,73)" />
	<circle cx="35.1947" cy="122.364" r="1.40845" fill="rgb(255,255,255)" />
	<circle cx="269.3" cy="43.466" r="1.75439" fill="rgb(220,123,88)" />
	<circle cx="261.684" cy="381.652" r="1.40845" fill="rgb(255,255,255)" />
	<circle cx="114.582" cy="144.301" r="1.74825" fill="rgb(216,136,67)" />
	<circle cx="13.385" cy="140.494" r="1.40845" fill="rgb(255,255,255)" />
	<circle cx="380.589" cy="365.883" r="1.55763" fill="rgb(251,226,82)" />
	<circle cx="485.148" cy="39.5767" r="1.79211" fill="rgb(72,68,23)" />
	<circle cx="502.274" cy="98.8251" r="2.01613" fill="rgb(228,109,87)" />
	<circle cx="121.038" cy="178.062" r="1.92308" fill="rgb(201,135,48)" />
	<circle cx="403.428" cy="63.8744" r="2.1097" fill="rgb(248,100,60)" />
	<circle cx="486.645" cy="360.45" r="1.41243" fill="rgb(255,255,255)" />
	<circle cx="416.804" cy="43.5804" r="1.67224" fill="rgb(186,100,67)" />
	<circle cx="7.93046" cy="46.2848" r="1.40845" fill="rgb(255,255,255)" />
	<circle cx="24.1256" cy="198.272" r="1.40845" fill="rgb(255,255,255)" />
	<circle cx="119.612" cy="323.768" r="1.40845" fill="rgb(255,255,255)" />
	<circle cx="428.275" cy="60.9011" r="1.85874" fill="rgb(255,151,87)" />
	<circle cx="215.52" cy="35.6057" r="1.54799" fill="rgb(188,184,159)" />
	<circle cx="471.067" cy="38.4872" r="2.11864" fill="rgb(81,71,79)" />
	<circle cx="54.2952" cy="106.678" r="1.40845" fill="rgb(255,255,255)" />
	<circle cx="429.212" cy="204.474" r="1.67224" fill="rgb(119,110,101)" />
	<circle cx="7.54494" cy="234.427" r="1.40845" fill="rgb(255,255,255)" />
	<circle cx="206.139" cy="218.353" r="1.86567" fill="rgb(237,140,69)" />
	<circle cx="404.253" cy="235.467" r="1.78571" fill="rgb(108,64,1)" />
	<circle cx="97.7666" cy="298.57" r="1.40845" fill="rgb(255,255,255)" />
	<circle cx="517.574" cy="171.635" r="1.79211" fill="rgb(226,172,2)" />
	<circle cx="42.0704" cy="196.859" r="1.40845" fill="rgb(255,255,255)" />
	<circle cx="521.918" cy="343.594" r="1.40845" fill="rgb(255,255,255)" />
	<circle cx="63.8736" cy="81.1933" r="1.40845" fill="rgb(255,255,255)" />
	<circle cx="89.5664" cy="246.457" r="1.65563" fill="rgb(188,184,113)" />
	<circle cx="398.101" cy="135.909" r="2.04082" fill="rgb(169,106,97)" />
	<circle cx="558.164" cy="203.65" r="1.45773" fill="rgb(139,131,108)" />
	<circle cx="109.018" cy="415.614" r="1.40845" fill="rgb(255,255,255)" />
	<circle cx="338.242" cy="116.735" r="2.34742" fill="rgb(227,99,26)" />
	<circle cx="223.588" cy="97.4876" r="1.78571" fill="rgb(244,102,100)" />
	<circle cx="252.141" cy="102.701" r="2.00803" fill="rgb(225,92,97)" />
	<circle cx="167.588" cy="67.917" r="1.40845" fill="rgb(255,255,255)" />
	<circle cx="428.207" cy="270.085" r="1.6129" fill="rgb(206,186,117)" />
	<circle cx="246.957" cy="85.5775" r="1.96078" fill="rgb(223,216,48)" />
	<circle cx="92.6783" cy="175.918" r="2.17391" fill="rgb(114,57,12)" />
	<circle cx="320.458" cy="83.7972" r="1.66667" fill="rgb(110,90,79)" />
	<circle cx="80.5486" cy="102.217" r="1.40845" fill="rgb(255,255,255)" />
	<circle cx="310.096" cy="308.771" r="1.87266" fill="rgb(201,131,80)" />
	<circle cx="384.616" cy="299.693" r="1.54799" fill="rgb(191,132,98)" />
	<circle cx="416.776" cy="143.645" r="2.28311" fill="rgb(170,104,92)" />
	<circle cx="147.5" cy="168.429" r="2.04082" fill="rgb(218,142,80)" />
	<circle cx="473.351" cy="24.8365" r="1.66113" fill="rgb(207,207,197)" />
	<circle cx="482.392" cy="70.985" r="2.02429" fill="rgb(179,90,82)" />
	<circle cx="248.364" cy="119.232" r="2.17391" fill="rgb(241,84,79)" />
	<circle cx="380.619" cy="392.748" r="1.5625" fill="rgb(232,218,121)" />
	<circle cx="86.9907" cy="164.337" r="1.87266" fill="rgb(239,157,0)" />
	<circle cx="322.461" cy="238.567" r="2.30415" fill="rgb(94,84,82)" />
	<circle cx="174.288" cy="161.725" r="2.29358" fill="rgb(218,80,17)" />
	<circle cx="91.2532" cy="151.925" r="1.61812" fill="rgb(89,57,46)" />
	<circle cx="123.787" cy="157.768" r="2.03252" fill="rgb(243,129,66)" />
	<circle cx="427.154" cy="82.8059" r="1.85874" fill="rgb(255,155,97)" />
	<circle cx="7.476" cy="29.5" r="1.40845" fill="rgb(255,255,255)" />
	<circle cx="84.8216" cy="48.3112" r="1.40845" fill="rgb(255,255,255)" />
	<circle cx="217.54" cy="266.272" r="1.58228" fill="rgb(237,193,45)" />
	<circle cx="128.827" cy="194.727" r="1.81818" fill="rgb(239,136,31)" />
	<circle cx="9.9614" cy="114.903" r="1.40845" fill="rgb(255,255,255)" />
	<circle cx="426.414" cy="34.2934" r="1.57233" fill="rgb(204,143,114)" />
	<circle cx="22.4062" cy="170.788" r="1.64474" fill="rgb(96,90,74)" />
	<circle cx="133.821" cy="105.509" r="1.40845" fill="rgb(255,255,255)" />
	<circle cx="201.025" cy="190.96" r="2.02429" fill="rgb(138,74,36)" />
	<circle cx="331.208" cy="372.208" r="1.59236" fill="rgb(188,189,132)" />
	<circle cx="228.245" cy="328.601" r="1.40845" fill="rgb(255,255,255)" />
	<circle cx="361.051" cy="104.408" r="1.85185" fill="rgb(148,122,107)" />
	<circle cx="264.091" cy="117.741" r="1.94553" fill="rgb(237,205,128)" />
	<circle cx="608.851" cy="73.5766" r="1.6129" fill="rgb(255,207,9)" />
	<circle cx="194.433" cy="378.645" r="1.40845" fill="rgb(255,255,255)" />
	<circle cx="531.271" cy="53.6381" r="2.01613" fill="rgb(255,92,56)" />
	<circle cx="449.168" cy="363.113" r="1.40845" fill="rgb(255,255,255)" />
	<circle cx="191.553" cy="342.906" r="1.40845" fill="rgb(255,255,255)" />
	<circle cx="319.273" cy="183.944" r="1.74825" fill="rgb(57,35,22)" />
	<circle cx="176.652" cy="233.808" r="1.70648" fill="rgb(218,154,54)" />
	<circle cx="443.842" cy="186.458" r="2.04082" fill="rgb(179,157,120)" />
	<circle cx="13.903" cy="168.368" r="1.66667" fill="rgb(100,98,86)" />
	<circle cx="8.25124" cy="209.54" r="1.40845" fill="rgb(255,255,255)" />
	<circle cx="434.318" cy="287.807" r="1.77305" fill="rgb(168,146,96)" />
	<circle cx="608.558" cy="156.787" r="1.40845" fill="rgb(255,255,255)" />
	<circle cx="559.772" cy="317.86" r="1.40845" fill="rgb(255,255,255)" />
	<circle cx="538.824" cy="40.3319" r="1.71821" fill="rgb(234,127,121)" />
	<circle cx="308.167" cy="329.968" r="1.6835" fill="rgb(152,107,76)" />
	<circle cx="328.641" cy="191.585" r="2.52525" fill="rgb(146,76,27)" />
	<circle cx="344.881" cy="94.3112" r="1.92308" fill="rgb(170,113,93)" />
	<circle cx="460.882" cy="33.3498" r="2.1645" fill="rgb(207,186,103)" />
	<circle cx="437.167" cy="36.485" r="1.77936" fill="rgb(239,151,54)" />
	<circle cx="231.56" cy="292.053" r="1.54799" fill="rgb(209,193,97)" />
	<circle cx="339.339" cy="257.831" r="1.59744" fill="rgb(166,138,135)" />
	<circle cx="347.414" cy="149.973" r="2.76243" fill="rgb(97,48,44)" />
	<circle cx="414.418" cy="371.633" r="1.40845" fill="rgb(255,255,255)" />
	<circle cx="9.20435" cy="278.307" r="1.40845" fill="rgb(255,255,255)" />
	<circle cx="343.578" cy="164.494" r="2.6178" fill="rgb(73,4,0)" />
	<circle cx="467.043" cy="109.721" r="2.12766" fill="rgb(240,95,68)" />
	<circle cx="347.693" cy="137.392" r="2.59067" fill="rgb(197,99,74)" />
	<circle cx="273.502" cy="194.022" r="1.93798" fill="rgb(204,90,64)" />
	<circle cx="475.704" cy="89.4049" r="2.18341" fill="rgb(243,87,38)" />
	<circle cx="305.671" cy="353.642" r="1.63399" fill="rgb(234,175,105)" />
	<circle cx="458.244" cy="199.969" r="1.76056" fill="rgb(161,157,145)" />
	<circle cx="169.721" cy="131.742" r="2.05761" fill="rgb(236,93,77)" />
	<circle cx="561.603" cy="367.141" r="1.40845" fill="rgb(255,255,255)" />
	<circle cx="572.607" cy="45.593" r="1.71233" fill="rgb(235,130,23)" />
	<circle cx="127.625" cy="45.8013" r="1.40845" fill="rgb(255,255,255)" />
	<circle cx="338.076" cy="228.36" r="1.78571" fill="rgb(145,114,112)" />
	<circle cx="538.381" cy="131.638" r="2.00803" fill="rgb(174,106,41)" />
	<circle cx="339.443" cy="186.187" r="2.27273" fill="rgb(202,101,47)" />
	<circle cx="357.953" cy="211.916" r="2.09205" fill="rgb(119,44,49)" />
	<circle cx="560.842" cy="414.644" r="1.40845" fill="rgb(255,255,255)" />
	<circle cx="605.04" cy="45.7726" r="1.53846" fill="rgb(255,255,255)" />
	<circle cx="345.356" cy="106.818" r="2.38095" fill="rgb(107,51,36)" />
	<circle cx="315.894" cy="255.782" r="2.07469" fill="rgb(218,136,125)" />
	<circle cx="416.747" cy="199.145" r="1.90114" fill="rgb(181,106,49)" />
	<circle cx="400.219" cy="55.5943" r="1.59744" fill="rgb(116,63,47)" />
	<circle cx="69.7804" cy="258.264" r="1.57233" fill="rgb(134,127,117)" />
	<circle cx="583.778" cy="18.6068" r="1.40845" fill="rgb(255,255,255)" />
	<circle cx="280.916" cy="97.3196" r="1.72414" fill="rgb(254,145,116)" />
	<circle cx="83.3428" cy="199.363" r="1.68919" fill="rgb(241,183,23)" />
	<circle cx="145.354" cy="245.286" r="1.72414" fill="rgb(244,214,64)" />
	<circle cx="29.5518" cy="357.806" r="1.40845" fill="rgb(255,255,255)" />
	<circle cx="643.219" cy="68.0243" r="1.4881" fill="rgb(232,232,134)" />
	<circle cx="181.429" cy="45.8366" r="1.40845" fill="rgb(255,255,255)" />
	<circle cx="24.4728" cy="32.5879" r="1.40845" fill="rgb(255,255,255)" />
	<circle cx="529.431" cy="79.5535" r="1.9084" fill="rgb(198,129,90)" />
	<circle cx="27.608" cy="226.148" r="1.59744" fill="rgb(218,212,162)" />
	<circle cx="106.503" cy="217.309" r="1.55763" fill="rgb(96,87,72)" />
	<circle cx="144.563" cy="131.397" r="1.74216" fill="rgb(115,65,38)" />
	<circle cx="369.112" cy="126.253" r="2.01613" fill="rgb(80,75,69)" />
	<circle cx="24.5523" cy="73.4769" r="1.40845" fill="rgb(255,255,255)" />
	<circle cx="9.79718" cy="365.303" r="1.40845" fill="rgb(255,255,255)" />
	<circle cx="383.843" cy="343.197" r="1.59236" fill="rgb(249,174,31)" />
	<circle cx="500.597" cy="413.286" r="1.40845" fill="rgb(255,255,255)" />
	<circle cx="367.803" cy="154.365" r="2.35849" fill="rgb(67,147,76)" />
	<circle cx="287.443" cy="63.674" r="1.77305" fill="rgb(234,112,99)" />
	<circle cx="248.273" cy="54.762" r="1.85874" fill="rgb(143,115,93)" />
	<circle cx="644.714" cy="139.954" r="1.5528" fill="rgb(111,105,91)" />
	<circle cx="483.938" cy="103.782" r="2.06612" fill="rgb(248,106,66)" />
	<circle cx="317.349" cy="152.4" r="2.29358" fill="rgb(124,78,81)" />
	<circle cx="451.627" cy="107.016" r="2.04918" fill="rgb(225,116,111)" />
	<circle cx="414.53" cy="56.9546" r="1.96078" fill="rgb(252,144,46)" />
	<circle cx="602.865" cy="216.162" r="1.49701" fill="rgb(197,197,127)" />
	<circle cx="584.157" cy="63.8504" r="1.79856" fill="rgb(172,165,136)" />
	<circle cx="386.422" cy="322.248" r="1.5528" fill="rgb(228,152,68)" />
	<circle cx="209.539" cy="412.305" r="1.40845" fill="rgb(255,255,255)" />
	<circle cx="53.7712" cy="263.177" r="1.41243" fill="rgb(255,255,255)" />
	<circle cx="138.562" cy="184.193" r="2.04082" fill="rgb(255,133,9)" />
	<circle cx="445.295" cy="123.198" r="2.04918" fill="rgb(237,108,89)" />
	<circle cx="177.028" cy="217.879" r="1.97628" fill="rgb(235,140,72)" />
	<circle cx="605.648" cy="102.648" r="1.76678" fill="rgb(251,207,59)" />
	<circle cx="213.212" cy="15.901" r="1.40845" fill="rgb(255,255,255)" />
	<circle cx="254.847" cy="40.666" r="1.75439" fill="rgb(214,138,44)" />
	<circle cx="454.882" cy="170.511" r="2.09205" fill="rgb(153,138,117)" />
	<circle cx="444.611" cy="12.6478" r="1.67785" fill="rgb(163,152,96)" />
	<circle cx="411.186" cy="128.009" r="2.33645" fill="rgb(188,75,59)" />
	<circle cx="364.269" cy="187.793" r="2.20264" fill="rgb(212,127,73)" />
	<circle cx="41.7479" cy="144.892" r="1.40845" fill="rgb(255,255,255)" />
	<circle cx="264.958" cy="172.176" r="2.25225" fill="rgb(220,83,75)" />
	<circle cx="211.042" cy="145.497" r="2.33645" fill="rgb(186,83,74)" />
	<circle cx="104.065" cy="38.2888" r="1.40845" fill="rgb(255,255,255)" />
	<circle cx="427.342" cy="47.1954" r="1.8797" fill="rgb(255,152,77)" />
	<circle cx="157.429" cy="284.122" r="1.40845" fill="rgb(255,255,255)" />
	<circle cx="410.169" cy="272.202" r="1.79856" fill="rgb(249,178,64)" />
	<circle cx="327.821" cy="405.123" r="1.49254" fill="rgb(205,196,153)" />
	<circle cx="67.4761" cy="198.549" r="1.70068" fill="rgb(78,70,34)" />
	<circle cx="498.347" cy="64.1612" r="2.14592" fill="rgb(160,63,54)" />
	<circle cx="255.211" cy="234.562" r="1.67224" fill="rgb(113,86,65)" />
	<circle cx="80.0703" cy="157.418" r="1.62338" fill="rgb(129,96,55)" />
	<circle cx="124.444" cy="138.685" r="1.65016" fill="rgb(64,35,19)" />
	<circle cx="413.153" cy="251.856" r="1.62338" fill="rgb(203,169,82)" />
	<circle cx="184.667" cy="125.391" r="2.10084" fill="rgb(255,102,90)" />
	<circle cx="185.71" cy="113.14" r="1.71821" fill="rgb(100,51,36)" />
	<circle cx="370.648" cy="171.851" r="2.41546" fill="rgb(89,105,130)" />
	<circle cx="435.385" cy="410.068" r="1.40845" fill="rgb(255,255,255)" />
	<circle cx="403.484" cy="98.3535" r="2.05761" fill="rgb(229,84,53)" />
	<circle cx="201.047" cy="71.3649" r="1.40845" fill="rgb(255,255,255)" />
	<circle cx="79.1883" cy="252.306" r="1.69492" fill="rgb(108,102,80)" />
	<circle cx="559.607" cy="121.88" r="1.93798" fill="rgb(255,148,30)" />
	<circle cx="644.581" cy="210.348" r="1.40845" fill="rgb(255,255,255)" />
	<circle cx="218.634" cy="130.351" r="2.24215" fill="rgb(228,65,50)" />
	<circle cx="8.70495" cy="89.0856" r="1.40845" fill="rgb(255,255,255)" />
	<circle cx="140.176" cy="20.1081" r="1.40845" fill="rgb(255,255,255)" />
	<circle cx="10.1535" cy="336.155" r="1.40845" fill="rgb(255,255,255)" />
	<circle cx="380.55" cy="278.575" r="1.57233" fill="rgb(182,117,97)" />
	<circle cx="204.353" cy="35.3802" r="1.49701" fill="rgb(96,94,82)" />
	<circle cx="487.964" cy="53.3181" r="2.18341" fill="rgb(255,106,99)" />
	<circle cx="109.49" cy="64.1128" r="1.40845" fill="rgb(255,255,255)" />
	<circle cx="64.1938" cy="57.0887" r="1.40845" fill="rgb(255,255,255)" />
	<circle cx="200.465" cy="132.515" r="2.18341" fill="rgb(227,89,76)" />
	<circle cx="383.903" cy="232.822" r="2.01613" fill="rgb(225,106,50)" />
	<circle cx="317.49" cy="75.9896" r="1.52905" fill="rgb(94,87,81)" />
	<circle cx="383.243" cy="118.898" r="2.05761" fill="rgb(121,120,115)" />
	<circle cx="572.506" cy="155.902" r="1.68919" fill="rgb(246,185,32)" />
	<circle cx="385.488" cy="179.074" r="2.46305" fill="rgb(153,84,87)" />
	<circle cx="325.21" cy="127.535" r="2.63158" fill="rgb(209,58,49)" />
	<circle cx="267.676" cy="150.936" r="2.25225" fill="rgb(228,93,90)" />
	<circle cx="400.437" cy="155.567" r="2.22222" fill="rgb(87,129,89)" />
	<circle cx="235.724" cy="64.3656" r="1.54799" fill="rgb(192,190,178)" />
	<circle cx="137.081" cy="74.9046" r="1.40845" fill="rgb(255,255,255)" />
	<circle cx="198.766" cy="107.378" r="1.6835" fill="rgb(124,67,56)" />
	<circle cx="236.068" cy="93.2585" r="1.9685" fill="rgb(230,109,100)" />
	<circle cx="459.46" cy="20.5258" r="1.73611" fill="rgb(157,157,133)" />
	<circle cx="337.563" cy="315.472" r="1.55763" fill="rgb(145,101,66)" />
	<circle cx="488.394" cy="307.461" r="1.40845" fill="rgb(255,255,255)" />
	<circle cx="209.215" cy="118.32" r="2.21239" fill="rgb(189,101,91)" />
	<circle cx="186.129" cy="176.143" r="2.04918" fill="rgb(228,122,36)" />
</svg>
