<?xml version="1.0" standalone="no" ?>
<!DOCTYPE svg PUBLIC "-//W3C//DTD SVG 1.1//EN" "http://www.w3.org/Graphics/SVG/1.1/DTD/svg11.dtd">
<svg width="671px" height="433px" xmlns="http://www.w3.org/2000/svg" version="1.1" >
	<circle cx="520.169" cy="69.0669" r="1.44509" fill="rgb(255,179,147)" />
	<circle cx="219.732" cy="168.585" r="2.10084" fill="rgb(173,135,98)" />
	<circle cx="399.437" cy="82.1167" r="1.69492" fill="rgb(249,125,99)" />
	<circle cx="95.7841" cy="37.672" r="1.40845" fill="rgb(255,255,255)" />
	<circle cx="269.19" cy="128.729" r="2.24215" fill="rgb(186,91,73)" />
	<circle cx="318.385" cy="393.507" r="1.51057" fill="rgb(255,255,255)" />
	<circle cx="453.765" cy="313.864" r="1.47929" fill="rgb(191,189,76)" />
	<circle cx="442.729" cy="52.5649" r="1.79856" fill="rgb(247,153,40)" />
	<circle cx="545.051" cy="108.19" r="1.98413" fill="rgb(255,136,55)" />
	<circle cx="476.259" cy="189.254" r="1.93798" fill="rgb(163,152,106)" />
	<circle cx="21.461" cy="57.8552" r="1.40845" fill="rgb(255,255,255)" />
	<circle cx="280.508" cy="298.046" r="1.57729" fill="rgb(224,180,107)" />
	<circle cx="330.602" cy="223.707" r="1.96078" fill="rgb(209,145,136)" />
	<circle cx="32.1968" cy="173.229" r="1.52439" fill="rgb(194,183,101)" />
	<circle cx="636.858" cy="69.8179" r="1.49701" fill="rgb(234,228,154)" />
	<circle cx="177.731" cy="266.498" r="1.51057" fill="rgb(229,212,98)" />
	<circle cx="367.798" cy="220.321" r="1.96078" fill="rgb(152,158,146)" />
	<circle cx="464.719" cy="74.6581" r="1.87266" fill="rgb(215,205,118)" />
	<circle cx="311.592" cy="27.6311" r="1.40845" fill="rgb(255,255,255)" />
	<circle cx="590.199" cy="187.822" r="1.50602" fill="rgb(226,207,87)" />
	<circle cx="372.212" cy="406.519" r="1.49254" fill="rgb(242,210,65)" />
	<circle cx="214.404" cy="249.579" r="1.62866" fill="rgb(216,196,21)" />
	<circle cx="380.644" cy="367.454" r="1.51976" fill="rgb(253,226,83)" />
	<circle cx="335.591" cy="160.653" r="2.51256" fill="rgb(214,52,14)" />
	<circle cx="433.498" cy="284.121" r="1.61812" fill="rgb(233,197,139)" />
	<circle cx="26.7625" cy="267.05" r="1.40845" fill="rgb(255,255,255)" />
	<circle cx="269.707" cy="154.509" r="2.26244" fill="rgb(215,87,74)" />
	<circle cx="249.326" cy="230.97" r="1.74825" fill="rgb(131,112,80)" />
	<circle cx="176.328" cy="232.342" r="1.70648" fill="rgb(219,153,56)" />
	<circle cx="514.279" cy="325.722" r="1.40845" fill="rgb(255,255,255)" />
	<circle cx="519.508" cy="101.336" r="2.02429" fill="rgb(169,116,84)" />
	<circle cx="459.444" cy="28.2848" r="1.9084" fill="rgb(143,130,122)" />
	<circle cx="373.745" cy="177.403" r="2.34742" fill="rgb(87,57,31)" />
	<circle cx="162.385" cy="187.69" r="1.99203" fill="rgb(230,119,37)" />
	<circle cx="544.814" cy="57.7119" r="1.96078" fill="rgb(255,145,100)" />
	<circle cx="361.342" cy="133.304" r="2.20264" fill="rgb(152,67,70)" />
	<circle cx="212.738" cy="218.299" r="1.91571" fill="rgb(229,124,56)" />
	<circle cx="347.387" cy="180.994" r="2.30415" fill="rgb(64,13,0)" />
	<circle cx="171.386" cy="329.625" r="1.40845" fill="rgb(255,255,255)" />
	<circle cx="515.21" cy="177.433" r="1.67224" fill="rgb(231,180,55)" />
	<circle cx="498.027" cy="120.027" r="2.05761" fill="rgb(242,125,71)" />
	<circle cx="64.6808" cy="120.003" r="1.40845" fill="rgb(255,255,255)" />
	<circle cx="595.801" cy="126.235" r="1.68919" fill="rgb(255,182,24)" />
	<circle cx="325.362" cy="178.981" r="1.90114" fill="rgb(215,81,54)" />
	<circle cx="499.717" cy="89.9535" r="2" fill="rgb(255,133,94)" />
	<circle cx="259.693" cy="204.251" r="1.87266" fill="rgb(214,134,83)" />
	<circle cx="586.764" cy="403.441" r="1.40845" fill="rgb(255,255,255)" />
	<circle cx="479.873" cy="152.684" r="1.91571" fill="rgb(213,132,51)" />
	<circle cx="143.79" cy="248.928" r="1.61812" fill="rgb(235,199,40)" />
	<circle cx="439.237" cy="81.2848" r="1.81818" fill="rgb(255,164,92)" />
	<circle cx="188.068" cy="116.428" r="1.75439" fill="rgb(224,92,80)" />
	<circle cx="77.5285" cy="300.56" r="1.40845" fill="rgb(255,255,255)" />
	<circle cx="197.771" cy="183.436" r="2.06612" fill="rgb(234,106,17)" />
	<circle cx="155.086" cy="217.165" r="1.83824" fill="rgb(235,149,30)" />
	<circle cx="228.021" cy="286.787" r="1.50602" fill="rgb(207,188,111)" />
	<circle cx="394.988" cy="224.364" r="1.94553" fill="rgb(113,66,0)" />
	<circle cx="572.994" cy="158.068" r="1.62866" fill="rgb(247,190,38)" />
	<circle cx="229.18" cy="120.729" r="2.22222" fill="rgb(243,87,75)" />
	<circle cx="278.524" cy="184.601" r="1.99203" fill="rgb(114,65,68)" />
	<circle cx="18.2383" cy="23.8832" r="1.40845" fill="rgb(255,255,255)" />
	<circle cx="48.0284" cy="218.691" r="1.52439" fill="rgb(244,226,0)" />
	<circle cx="485.64" cy="261.983" r="1.40845" fill="rgb(255,255,255)" />
	<circle cx="324.034" cy="200.378" r="1.8797" fill="rgb(178,81,46)" />
	<circle cx="595.07" cy="63.7234" r="1.70068" fill="rgb(223,222,217)" />
	<circle cx="206.278" cy="128.867" r="2.23214" fill="rgb(240,81,78)" />
	<circle cx="551.303" cy="189.205" r="1.5015" fill="rgb(233,222,44)" />
	<circle cx="141.449" cy="77.2395" r="1.40845" fill="rgb(255,255,255)" />
	<circle cx="356.492" cy="104.696" r="1.79856" fill="rgb(123,87,65)" />
	<circle cx="563.9" cy="44.7703" r="1.5625" fill="rgb(249,108,26)" />
	<circle cx="128.014" cy="284.693" r="1.49254" fill="rgb(184,175,110)" />
	<circle cx="235.865" cy="40.0955" r="1.57729" fill="rgb(117,112,18)" />
	<circle cx="440.323" cy="23.0038" r="1.62866" fill="rgb(241,190,109)" />
	<circle cx="383.635" cy="127.005" r="2.19298" fill="rgb(174,84,96)" />
	<circle cx="448.75" cy="195.121" r="1.70068" fill="rgb(201,153,89)" />
	<circle cx="643.011" cy="212.742" r="1.40845" fill="rgb(255,255,255)" />
	<circle cx="170.778" cy="28.917" r="1.40845" fill="rgb(255,255,255)" />
	<circle cx="211.319" cy="105.773" r="1.81159" fill="rgb(232,91,73)" />
	<circle cx="427.351" cy="395.183" r="1.40845" fill="rgb(255,255,255)" />
	<circle cx="200.298" cy="153.043" r="2.26244" fill="rgb(165,80,73)" />
	<circle cx="334.11" cy="356.383" r="1.58228" fill="rgb(140,104,88)" />
	<circle cx="478.326" cy="89.1354" r="2.1645" fill="rgb(252,77,20)" />
	<circle cx="159.72" cy="145.19" r="2.12766" fill="rgb(189,121,76)" />
	<circle cx="291.469" cy="162.598" r="2.07469" fill="rgb(89,139,110)" />
	<circle cx="579.002" cy="333.333" r="1.40845" fill="rgb(255,255,255)" />
	<circle cx="419.673" cy="68.8042" r="1.90114" fill="rgb(255,135,66)" />
	<circle cx="604.761" cy="221.885" r="1.47493" fill="rgb(174,171,130)" />
	<circle cx="283.759" cy="53.0066" r="1.69492" fill="rgb(241,115,93)" />
	<circle cx="68.2085" cy="354.674" r="1.40845" fill="rgb(255,255,255)" />
	<circle cx="21.0644" cy="361.444" r="1.40845" fill="rgb(255,255,255)" />
	<circle cx="155.586" cy="166.454" r="2.12766" fill="rgb(219,108,18)" />
	<circle cx="104.221" cy="96.3302" r="1.40845" fill="rgb(255,255,255)" />
	<circle cx="379.965" cy="248.738" r="1.67224" fill="rgb(255,255,255)" />
	<circle cx="418.492" cy="97.1993" r="1.90114" fill="rgb(246,143,64)" />
	<circle cx="29.1758" cy="408.667" r="1.40845" fill="rgb(255,255,255)" />
	<circle cx="302.29" cy="261.446" r="1.72414" fill="rgb(211,106,58)" />
	<circle cx="435.685" cy="118.309" r="1.98413" fill="rgb(244,94,69)" />
	<circle cx="22.232" cy="131.944" r="1.40845" fill="rgb(255,255,255)" />
	<circle cx="570.132" cy="105.036" r="1.9685" fill="rgb(134,87,35)" />
	<circle cx="395.391" cy="106.605" r="1.89394" fill="rgb(225,96,77)" />
	<circle cx="83.9244" cy="191.138" r="1.77305" fill="rgb(225,177,75)" />
	<circle cx="220.883" cy="348.215" r="1.40845" fill="rgb(255,255,255)" />
	<circle cx="260.109" cy="46.0848" r="1.60256" fill="rgb(233,168,104)" />
	<circle cx="431.412" cy="144.718" r="2.09205" fill="rgb(211,105,63)" />
	<circle cx="632.519" cy="107.439" r="1.57233" fill="rgb(187,178,87)" />
	<circle cx="304.797" cy="314.841" r="1.85874" fill="rgb(216,200,187)" />
	<circle cx="558.399" cy="132.395" r="1.91571" fill="rgb(227,148,69)" />
	<circle cx="80.3454" cy="251.928" r="1.51515" fill="rgb(119,112,84)" />
	<circle cx="405.255" cy="279.926" r="1.85874" fill="rgb(99,86,67)" />
	<circle cx="420.558" cy="200.561" r="1.79856" fill="rgb(93,57,33)" />
	<circle cx="118.96" cy="145.036" r="1.66113" fill="rgb(237,133,80)" />
	<circle cx="142.778" cy="400.278" r="1.40845" fill="rgb(255,255,255)" />
	<circle cx="399.806" cy="174.078" r="2.24215" fill="rgb(135,83,72)" />
	<circle cx="456.136" cy="103.879" r="2" fill="rgb(229,111,107)" />
	<circle cx="279.965" cy="74.2658" r="1.80505" fill="rgb(252,141,113)" />
	<circle cx="491.993" cy="64.8448" r="2.1097" fill="rgb(157,138,35)" />
	<circle cx="529.661" cy="396.902" r="1.40845" fill="rgb(255,255,255)" />
	<circle cx="385.415" cy="332.367" r="1.51976" fill="rgb(223,179,104)" />
	<circle cx="99.6854" cy="179.069" r="2.02429" fill="rgb(179,132,90)" />
	<circle cx="182.701" cy="139.024" r="2.21239" fill="rgb(220,75,31)" />
	<circle cx="164.455" cy="125.387" r="1.68919" fill="rgb(194,83,63)" />
	<circle cx="225.18" cy="145.892" r="2.19298" fill="rgb(218,130,84)" />
	<circle cx="279.869" cy="101.945" r="1.71821" fill="rgb(252,143,112)" />
	<circle cx="409.394" cy="251" r="1.60772" fill="rgb(233,182,39)" />
	<circle cx="630.8" cy="293.129" r="1.40845" fill="rgb(255,255,255)" />
	<circle cx="501.755" cy="46.1982" r="1.85185" fill="rgb(170,76,64)" />
	<circle cx="227.71" cy="195.396" r="2.05761" fill="rgb(119,91,41)" />
	<circle cx="335.749" cy="92.2355" r="1.74216" fill="rgb(106,80,65)" />
	<circle cx="253.408" cy="78.4747" r="1.9305" fill="rgb(137,114,60)" />
	<circle cx="318.282" cy="129.3" r="2.13675" fill="rgb(106,47,39)" />
	<circle cx="363.874" cy="34.5907" r="1.40845" fill="rgb(255,255,255)" />
	<circle cx="420.475" cy="45.0343" r="1.59744" fill="rgb(255,138,74)" />
	<circle cx="291.546" cy="132.281" r="2.22222" fill="rgb(203,82,97)" />
	<circle cx="540.609" cy="85.0941" r="1.93798" fill="rgb(255,140,58)" />
	<circle cx="407.107" cy="149.083" r="2.23214" fill="rgb(82,100,50)" />
	<circle cx="454.789" cy="165.271" r="2.07469" fill="rgb(148,130,90)" />
	<circle cx="78.9601" cy="164.422" r="1.65563" fill="rgb(253,193,0)" />
	<circle cx="353.71" cy="200.024" r="2.40385" fill="rgb(84,37,47)" />
	<circle cx="25.172" cy="313.364" r="1.40845" fill="rgb(255,255,255)" />
	<circle cx="382.772" cy="199.105" r="2.10084" fill="rgb(214,134,75)" />
	<circle cx="211.91" cy="35.0677" r="1.46199" fill="rgb(186,180,166)" />
	<circle cx="119.861" cy="345.112" r="1.40845" fill="rgb(255,255,255)" />
	<circle cx="122.406" cy="204.13" r="1.64474" fill="rgb(240,161,30)" />
	<circle cx="527.435" cy="128.035" r="2.00803" fill="rgb(246,152,82)" />
	<circle cx="336.719" cy="265.78" r="1.59236" fill="rgb(119,95,85)" />
	<circle cx="130.863" cy="29.264" r="1.40845" fill="rgb(255,255,255)" />
	<circle cx="307.041" cy="283.996" r="1.8797" fill="rgb(159,145,132)" />
	<circle cx="105.021" cy="228.906" r="1.54321" fill="rgb(234,214,57)" />
	<circle cx="480.537" cy="31.2166" r="1.63399" fill="rgb(160,151,122)" />
	<circle cx="506.191" cy="143.188" r="1.89394" fill="rgb(205,131,106)" />
	<circle cx="330.347" cy="108.65" r="1.82482" fill="rgb(239,88,77)" />
	<circle cx="136.253" cy="156.094" r="2.02429" fill="rgb(209,128,75)" />
	<circle cx="12.145" cy="167.856" r="1.5015" fill="rgb(115,113,101)" />
	<circle cx="313.029" cy="149.316" r="2.14592" fill="rgb(201,114,105)" />
	<circle cx="381.032" cy="156.001" r="2.15517" fill="rgb(122,178,107)" />
	<circle cx="340.293" cy="124.357" r="2.52525" fill="rgb(147,65,44)" />
	<circle cx="498.619" cy="213.077" r="1.54799" fill="rgb(179,165,77)" />
	<circle cx="304.661" cy="354.24" r="1.58228" fill="rgb(228,177,111)" />
	<circle cx="22.0632" cy="94.0638" r="1.40845" fill="rgb(255,255,255)" />
	<circle cx="182.401" cy="204.372" r="2.06612" fill="rgb(255,146,53)" />
	<circle cx="240.924" cy="59.981" r="1.63399" fill="rgb(72,70,58)" />
	<circle cx="56.362" cy="173.49" r="1.5674" fill="rgb(250,225,62)" />
	<circle cx="567.928" cy="75.0011" r="1.93798" fill="rgb(236,145,66)" />
	<circle cx="57.7958" cy="27.1679" r="1.40845" fill="rgb(255,255,255)" />
	<circle cx="233.982" cy="95.8093" r="1.85185" fill="rgb(233,100,101)" />
	<circle cx="458.123" cy="135.03" r="2.04082" fill="rgb(223,102,55)" />
	<circle cx="248.101" cy="171.633" r="2.19298" fill="rgb(206,81,61)" />
	<circle cx="400.474" cy="60.5626" r="1.65016" fill="rgb(213,77,63)" />
	<circle cx="320.58" cy="80.8558" r="1.53846" fill="rgb(78,61,51)" />
	<circle cx="628.384" cy="34.4579" r="1.47059" fill="rgb(255,255,255)" />
	<circle cx="196.499" cy="402.159" r="1.40845" fill="rgb(255,255,255)" />
	<circle cx="87.1025" cy="405.671" r="1.40845" fill="rgb(255,255,255)" />
	<circle cx="358.011" cy="158.557" r="2.40385" fill="rgb(21,97,123)" />
	<circle cx="258.015" cy="403.128" r="1.40845" fill="rgb(255,255,255)" />
	<circle cx="248.512" cy="140.327" r="2.11864" fill="rgb(225,103,80)" />
	<circle cx="98.776" cy="154.321" r="1.6835" fill="rgb(233,134,32)" />
	<circle cx="116.546" cy="169.755" r="2.11864" fill="rgb(168,112,77)" />
	<circle cx="64.6646" cy="72.1062" r="1.40845" fill="rgb(255,255,255)" />
	<circle cx="410.247" cy="124.063" r="2.31481" fill="rgb(152,106,106)" />
	<circle cx="476.533" cy="114.999" r="2.06612" fill="rgb(249,96,38)" />
	<circle cx="383.083" cy="291.421" r="1.5528" fill="rgb(212,123,89)" />
	<circle cx="178.143" cy="163.353" r="2.19298" fill="rgb(214,95,39)" />
	<circle cx="535.305" cy="155.368" r="1.8797" fill="rgb(217,206,184)" />
	<circle cx="596.087" cy="97.5242" r="1.78571" fill="rgb(231,173,14)" />
	<circle cx="136.065" cy="182.072" r="1.97628" fill="rgb(235,121,32)" />
	<circle cx="555.66" cy="260.086" r="1.41243" fill="rgb(255,255,255)" />
	<circle cx="527.906" cy="43.3381" r="1.58228" fill="rgb(255,114,110)" />
	<circle cx="426.28" cy="171.642" r="2.20264" fill="rgb(230,115,32)" />
	<circle cx="67.6508" cy="205.804" r="1.60772" fill="rgb(237,206,0)" />
	<circle cx="273.017" cy="337.079" r="1.60772" fill="rgb(231,187,100)" />
	<circle cx="314.456" cy="239.712" r="1.83824" fill="rgb(175,98,78)" />
	<circle cx="337.63" cy="312.335" r="1.54799" fill="rgb(186,128,82)" />
	<circle cx="141.528" cy="134.96" r="1.68919" fill="rgb(164,81,39)" />
	<circle cx="637.733" cy="382.544" r="1.40845" fill="rgb(255,255,255)" />
	<circle cx="339.542" cy="142.285" r="2.6455" fill="rgb(200,57,17)" />
	<circle cx="475.994" cy="390.661" r="1.40845" fill="rgb(255,255,255)" />
	<circle cx="251.024" cy="109.876" r="2.07469" fill="rgb(207,91,76)" />
	<circle cx="471.555" cy="52.3986" r="1.88679" fill="rgb(254,200,50)" />
	<circle cx="26.6178" cy="225.734" r="1.46199" fill="rgb(125,118,76)" />
	<circle cx="636.96" cy="139.165" r="1.49254" fill="rgb(204,199,159)" />
	<circle cx="187.09" cy="71.3516" r="1.40845" fill="rgb(255,255,255)" />
</svg>
